<svg xmlns="http://www.w3.org/2000/svg" xmlns:xlink="http://www.w3.org/1999/xlink" width="156" height="98" viewBox="0 0 156 98">
  <defs>
    <linearGradient id="linear-gradient" x1="0.892" y1="1.123" x2="0" y2="0.254" gradientUnits="objectBoundingBox">
      <stop offset="0" stop-color="#efeeed"/>
      <stop offset="0" stop-color="#e8e7e5"/>
      <stop offset="0.034" stop-color="#dedddc"/>
      <stop offset="0.059" stop-color="#ccc"/>
      <stop offset="0.081" stop-color="#d6d3d4"/>
      <stop offset="0.124" stop-color="#c7c2c7"/>
      <stop offset="0.151" stop-color="#b5b1b5"/>
      <stop offset="0.181" stop-color="#c9c6c9"/>
      <stop offset="0.231" stop-color="#c7c7c7"/>
      <stop offset="0.264" stop-color="#b1b1b1"/>
      <stop offset="0.301" stop-color="#cbcbcb"/>
      <stop offset="0.345" stop-color="#e3e3e3"/>
      <stop offset="0.394" stop-color="#c6c6c6"/>
      <stop offset="0.425" stop-color="#bfbfbf"/>
      <stop offset="0.456" stop-color="#d3d3d3"/>
      <stop offset="0.497" stop-color="#f3f3f4"/>
      <stop offset="0.522" stop-color="#e2e2e2"/>
      <stop offset="0.553" stop-color="#f6f6f7"/>
      <stop offset="0.586" stop-color="#ebeaec"/>
      <stop offset="0.632" stop-color="#c6c3c6"/>
      <stop offset="0.674" stop-color="#d6d5d6"/>
      <stop offset="0.717" stop-color="#c4c4c4"/>
      <stop offset="0.758" stop-color="#bebcbc"/>
      <stop offset="0.803" stop-color="#dbdbdb"/>
      <stop offset="0.875" stop-color="#d9d8d8"/>
      <stop offset="0.937" stop-color="#bab9b9"/>
      <stop offset="0.96" stop-color="#cecece"/>
      <stop offset="1" stop-color="#c3c3c3"/>
      <stop offset="1" stop-color="#aeadb3"/>
    </linearGradient>
    <filter id="Trazado_25921" x="35.535" y="5.5" width="91.084" height="57.595" filterUnits="userSpaceOnUse">
      <feOffset dy="1" input="SourceAlpha"/>
      <feGaussianBlur stdDeviation="1.5" result="blur"/>
      <feFlood flood-opacity="0.302"/>
      <feComposite operator="in" in2="blur"/>
      <feComposite in="SourceGraphic"/>
    </filter>
    <filter id="Trazado_25433" x="89.166" y="9.277" width="21.223" height="21.228" filterUnits="userSpaceOnUse">
      <feOffset dy="1" input="SourceAlpha"/>
      <feGaussianBlur stdDeviation="3" result="blur-2"/>
      <feFlood flood-opacity="0.161"/>
      <feComposite operator="in" in2="blur-2"/>
      <feComposite in="SourceGraphic"/>
    </filter>
    <linearGradient id="linear-gradient-2" x1="0.917" y1="1.255" x2="0.078" y2="0.021" gradientUnits="objectBoundingBox">
      <stop offset="0" stop-color="#efeeed"/>
      <stop offset="0" stop-color="#e8e7e5"/>
      <stop offset="0.059" stop-color="#c9c8c8"/>
      <stop offset="0.173" stop-color="#fff"/>
      <stop offset="0.264" stop-color="#bcbcbc"/>
      <stop offset="0.522" stop-color="#f9f9fa"/>
      <stop offset="0.586" stop-color="#ebeaec"/>
      <stop offset="0.706" stop-color="#c6c3c6"/>
      <stop offset="0.872" stop-color="#fcfcfc"/>
      <stop offset="0.93" stop-color="#c6c1c5"/>
      <stop offset="1" stop-color="#d8d9dd"/>
      <stop offset="1" stop-color="#aeadb3"/>
    </linearGradient>
    <filter id="Trazado_25922" x="70.855" y="15.544" width="40.375" height="19.486" filterUnits="userSpaceOnUse">
      <feOffset dy="1" input="SourceAlpha"/>
      <feGaussianBlur stdDeviation="1" result="blur-3"/>
      <feFlood flood-opacity="0.302"/>
      <feComposite operator="in" in2="blur-3"/>
      <feComposite in="SourceGraphic"/>
    </filter>
    <linearGradient id="linear-gradient-3" x1="0.981" y1="1" x2="0.031" y2="-0.428" gradientUnits="objectBoundingBox">
      <stop offset="0" stop-color="#efeeed"/>
      <stop offset="0.042" stop-color="#ddd"/>
      <stop offset="0.061" stop-color="#bebebe"/>
      <stop offset="0.078" stop-color="#e0dfdf"/>
      <stop offset="0.157" stop-color="#e8e8e8"/>
      <stop offset="0.173" stop-color="#d0d0d0"/>
      <stop offset="0.199" stop-color="#fffefd"/>
      <stop offset="0.378" stop-color="#cecece"/>
      <stop offset="0.399" stop-color="#c3c3c3"/>
      <stop offset="0.417" stop-color="#d3d3d3"/>
      <stop offset="0.564" stop-color="#f9f9fa"/>
      <stop offset="0.586" stop-color="#d5d5d5"/>
      <stop offset="0.601" stop-color="#ebeaec"/>
      <stop offset="0.718" stop-color="#e8e8e8"/>
      <stop offset="0.741" stop-color="#c6c6c6"/>
      <stop offset="0.779" stop-color="#ededed"/>
      <stop offset="0.899" stop-color="#cbc9c9"/>
      <stop offset="0.909" stop-color="#b4b4b4"/>
      <stop offset="0.924" stop-color="#d6d6d6"/>
      <stop offset="0.976" stop-color="#eeedf0"/>
      <stop offset="1" stop-color="#aeadb3"/>
    </linearGradient>
    <filter id="Trazado_25923" x="34.549" y="57.262" width="93.182" height="18.96" filterUnits="userSpaceOnUse">
      <feOffset dy="1" input="SourceAlpha"/>
      <feGaussianBlur stdDeviation="1" result="blur-4"/>
      <feFlood flood-opacity="0.302"/>
      <feComposite operator="in" in2="blur-4"/>
      <feComposite in="SourceGraphic"/>
    </filter>
    <clipPath id="clip-Mesa_de_trabajo_12">
      <rect width="156" height="98"/>
    </clipPath>
  </defs>
  <g id="Mesa_de_trabajo_12" data-name="Mesa de trabajo – 12" clip-path="url(#clip-Mesa_de_trabajo_12)">
    <g id="Grupo_7645" data-name="Grupo 7645" transform="translate(-385.999 -98.982)">
      <g id="Grupo_7582" transform="translate(433.012 177.264)">
        <g id="Grupo_7581" transform="translate(0 0)">
          <path id="Trazado_25469" d="M199.357,269.181l-.408,2.331H197.2l1.865-10.113h2.273l1.865,10.113h-1.749l-.379-2.331Zm.845-5.45-.641,3.964h1.224Z" transform="translate(-186.155 -261.036)" fill="#fff"/>
          <path id="Trazado_25470" d="M220.149,262.945H218.4V261.4h5.188v1.545h-1.749v8.6h-1.69Z" transform="translate(-201.176 -261.036)" fill="#fff"/>
          <path id="Trazado_25471" d="M241.9,271.513V261.4h4.78v1.545H243.59v2.769h2.215v1.545H243.59v2.769h3.089v1.545l-4.78-.058Z" transform="translate(-217.827 -261.036)" fill="#fff"/>
          <path id="Trazado_25472" d="M289.719,271.513H288V261.4h1.632v10.113Z" transform="translate(-250.492 -261.036)" fill="#fff"/>
          <path id="Trazado_25473" d="M301.686,269.181l-.437,2.331H299.5l1.865-10.113h2.273l1.865,10.113h-1.749l-.379-2.331Zm.874-5.45-.641,3.964h1.224Z" transform="translate(-258.64 -261.036)" fill="#fff"/>
          <path id="Trazado_25474" d="M366.232,271.513H364.6V261.4h1.632Z" transform="translate(-304.768 -261.036)" fill="#fff"/>
          <path id="Trazado_25475" d="M379.966,268.716a3.106,3.106,0,0,1-.583,1.807,2.224,2.224,0,0,1-1.166.729,3.621,3.621,0,0,1-.962.117,3.186,3.186,0,0,1-1.632-.437,2.889,2.889,0,0,1-.845-1.02,4.7,4.7,0,0,1-.379-1.428l1.6-.117a2.1,2.1,0,0,0,.525,1.282.725.725,0,0,0,.7.262,1.01,1.01,0,0,0,1.049-1.166,1.826,1.826,0,0,0-.641-1.282c-.321-.262-.845-.729-1.486-1.282a6.267,6.267,0,0,1-1.166-1.311,2.76,2.76,0,0,1-.379-1.428,2.283,2.283,0,0,1,1.02-2.069,3.172,3.172,0,0,1,3.06-.058,2.535,2.535,0,0,1,.787.787,3.227,3.227,0,0,1,.379,1.166l-1.6.262a1.477,1.477,0,0,0-.379-.962.9.9,0,0,0-.641-.262.709.709,0,0,0-.7.379,1.315,1.315,0,0,0-.2.729,2.164,2.164,0,0,0,.641,1.428c.146.146.437.379.729.641a9.6,9.6,0,0,1,.787.641,4.96,4.96,0,0,1,.962,1.107,1.478,1.478,0,0,1,.262.466,2.4,2.4,0,0,1,.262,1.02Z" transform="translate(-311.712 -260.716)" fill="#fff"/>
          <g id="Grupo_7580" transform="translate(0 0.248)">
            <path id="Trazado_25476" d="M167.2,261h1.545v1.311l-4.721,7.14-2.652-4.08v5.887H159.3V261h1.574l3.118,4.78Z" transform="translate(-159.3 -261)" fill="#fff"/>
            <path id="Trazado_25477" d="M184.8,279.72v-5.392l2.011-1.428v6.849H184.8Z" transform="translate(-177.368 -269.432)" fill="#fff"/>
          </g>
          <path id="Trazado_25478" d="M264.832,267.689v3.818H263.2V261.394h2.652a2.98,2.98,0,0,1,2.069.7,2.4,2.4,0,0,1,.583,1.69v1.486a2.25,2.25,0,0,1-.9,1.807l1.224,4.4h-1.807L266,267.66h0l-.437-1.486h.321a1.215,1.215,0,0,0,.7-.262.689.689,0,0,0,.262-.641v-1.486c0-.583-.321-.9-.962-.9h-.991v3.235l-.058,1.574Z" transform="translate(-232.92 -261.03)" fill="#fff"/>
          <path id="Trazado_25479" d="M343.932,267.689v3.818H342.3V261.394h2.652a2.98,2.98,0,0,1,2.069.7,2.4,2.4,0,0,1,.583,1.69v1.486a2.25,2.25,0,0,1-.9,1.807l1.224,4.4h-1.807l-1.02-3.818h0l-.437-1.486h.321a1.215,1.215,0,0,0,.7-.262.689.689,0,0,0,.262-.641v-1.486c0-.583-.321-.9-.962-.9h-1.02v3.235l-.029,1.574Z" transform="translate(-288.967 -261.03)" fill="#fff"/>
          <path id="Trazado_25480" d="M325.287,263.808v-1.166a2.341,2.341,0,0,0-.787-1.749,2.823,2.823,0,0,0-3.818,0,2.153,2.153,0,0,0-.787,1.749v.117l1.428,7.723a2.481,2.481,0,0,0,1.282.262,2.8,2.8,0,0,0,1.894-.729,2.153,2.153,0,0,0,.787-1.749v-3.614h-2.71V266.2h.962v2.011a.9.9,0,0,1-.262.641,1.025,1.025,0,0,1-1.37,0,.689.689,0,0,1-.262-.641v-5.683a.9.9,0,0,1,.262-.641,1.025,1.025,0,0,1,1.37,0,.689.689,0,0,1,.262.641v1.224l1.749.058Z" transform="translate(-273.09 -260.15)" fill="#fff"/>
        </g>
      </g>
      <g id="Grupo_7629" data-name="Grupo 7629" transform="translate(394 117.275)">
        <path id="Trazado_25870" data-name="Trazado 25870" d="M49.908,102.615a11.727,11.727,0,0,0-10.463-4.051c-.612.117-.466,1.078.146,1.078a15.488,15.488,0,0,1,10.142,3.177.135.135,0,0,0,.175-.2Z" transform="translate(-35.086 -85.57)" fill="#fff"/>
        <path id="Trazado_25871" data-name="Trazado 25871" d="M49.908,102.615a11.727,11.727,0,0,0-10.463-4.051c-.612.117-.466,1.078.146,1.078a15.488,15.488,0,0,1,10.142,3.177.135.135,0,0,0,.175-.2Z" transform="translate(-35.086 -85.57)" fill="#fff" opacity="0.703"/>
        <path id="Trazado_25872" data-name="Trazado 25872" d="M95.91,94.219a8.54,8.54,0,0,0-9.53,5.042c-.058.175.2.262.291.117a8.72,8.72,0,0,1,8.976-4.138C96.289,95.326,96.58,94.365,95.91,94.219Z" transform="translate(-68.614 -82.478)" fill="#fff" opacity="0.703"/>
        <path id="Trazado_25873" data-name="Trazado 25873" d="M78.537,70.953c-1.836,3.5-2.885,7.869-.845,11.512.058.117.233.029.2-.087-1.224-3.847-.233-7.4,1.574-10.871a.542.542,0,0,0-.933-.554Z" transform="translate(-61.675 -65.915)" fill="#fff" opacity="0.703"/>
        <path id="Trazado_25874" data-name="Trazado 25874" d="M95.077,125.285a9.658,9.658,0,0,0-10.987-7.373c-.146.029-.087.233.029.233A10.37,10.37,0,0,1,94,125.576a.559.559,0,0,0,1.078-.291Z" transform="translate(-66.936 -99.264)" fill="#fff" opacity="0.703"/>
        <path id="Trazado_25875" data-name="Trazado 25875" d="M81.885,122.334a.17.17,0,0,0-.175.291,10.529,10.529,0,0,1,3.643,4.255,18.5,18.5,0,0,1,1.195,5.129.49.49,0,0,0,.933,0c.554-3.818-2.506-7.811-5.6-9.676Z" transform="translate(-65.256 -102.492)" fill="#fff"/>
        <path id="Trazado_25876" data-name="Trazado 25876" d="M55.362,118.2c-4.226.641-8.073,5.6-8.364,9.734-.029.583.816.641.991.146a17.4,17.4,0,0,1,2.332-5.392,11.947,11.947,0,0,1,5.129-4.109c.233-.117.146-.408-.087-.379Z" transform="translate(-40.715 -99.576)" fill="#fff" opacity="0.703"/>
        <path id="Trazado_25877" data-name="Trazado 25877" d="M51.147,117.39a9.112,9.112,0,0,0-5.654,1.69.288.288,0,0,0,.291.5,14.349,14.349,0,0,1,5.392-1.982C51.293,117.594,51.264,117.39,51.147,117.39Z" transform="translate(-39.56 -99.004)" fill="#fff"/>
        <path id="Trazado_25878" data-name="Trazado 25878" d="M77.423,132.516c-1.195-1.953-.787-3.934-.35-6.062a.18.18,0,1,0-.35-.087c-.758,2.127-1.341,4.634.175,6.586.233.291.7-.117.525-.437Z" transform="translate(-61.231 -105.271)" fill="#fff"/>
        <path id="Trazado_25879" data-name="Trazado 25879" d="M102.064,111.776a11.188,11.188,0,0,0-7.169-.146.12.12,0,0,0,.058.233,12.165,12.165,0,0,1,6.994.321C102.21,112.271,102.326,111.863,102.064,111.776Z" transform="translate(-74.594 -94.556)" fill="#fff"/>
        <path id="Trazado_25880" data-name="Trazado 25880" d="M91.571,80.661a9.6,9.6,0,0,0-3.177,5.858c-.029.175.233.233.262.058a10.4,10.4,0,0,1,3.235-5.625C92.067,80.748,91.775,80.486,91.571,80.661Z" transform="translate(-70.046 -72.942)" fill="#fff"/>
        <path id="Trazado_25881" data-name="Trazado 25881" d="M58.91,84.238a10.362,10.362,0,0,0-4.925-5.945.341.341,0,0,0-.35.583,13.189,13.189,0,0,1,4.984,5.508c.087.146.321.029.291-.146Z" transform="translate(-45.311 -71.273)" fill="#fff"/>
        <path id="Trazado_25882" data-name="Trazado 25882" d="M48.027,73.5a.175.175,0,0,0-.117.029.651.651,0,0,0-.379.175.483.483,0,0,0-.146.379c0,.321.233.5.554.554a.175.175,0,0,1,.117.029.529.529,0,0,0,.408-.175.654.654,0,0,0,.175-.408c-.058-.291-.321-.612-.612-.583Z" transform="translate(-40.986 -67.904)" fill="#fff"/>
        <path id="Trazado_25883" data-name="Trazado 25883" d="M125.043,94.6a.424.424,0,0,0,0,.845A.424.424,0,0,0,125.043,94.6Z" transform="translate(-95.737 -82.859)" fill="#fff"/>
        <path id="Trazado_25884" data-name="Trazado 25884" d="M81.744,152.857a.5.5,0,0,0-.991,0,.22.22,0,0,0,.029.233.454.454,0,0,0,.5.321.419.419,0,0,0,.5-.321.568.568,0,0,1-.029-.233Z" transform="translate(-64.62 -123.805)" fill="#fff"/>
        <path id="Trazado_25885" data-name="Trazado 25885" d="M84.45,56.758c-.67-.2-1.341-.408-1.982-.641h-.029c-.029-.554-.087-1.107-.117-1.632A.189.189,0,0,0,82,54.369a4.113,4.113,0,0,0-.933,1.515,10.621,10.621,0,0,0-1.37-.408.2.2,0,0,0-.2.321c.291.321.583.612.874.933a5.324,5.324,0,0,0-.962,1.02c-.117.175.058.321.233.291a7.765,7.765,0,0,0,1.778-.525c.262.641.583,1.224.874,1.836.087.2.408.087.408-.117.029-1.107.379-2.04,1.661-2.069.262,0,.321-.35.087-.408Zm-1.6.583a2.017,2.017,0,0,0-.5,1.137c-.2-.379-.408-.787-.641-1.166-.029-.029-.058-.058-.087-.058a.221.221,0,0,0-.262-.087,6.567,6.567,0,0,1-1.224.379,4.391,4.391,0,0,1,.67-.612.192.192,0,0,0,.029-.321c-.175-.2-.379-.379-.554-.583.262.058.554.117.816.175.117,0,.146-.087.117-.175a6.99,6.99,0,0,1,.729-1.078c.029.5.058.991.117,1.486a.183.183,0,0,0,.262.146c.379.117.729.233,1.107.321a1.615,1.615,0,0,0-.583.437Z" transform="translate(-63.653 -54.315)" fill="#fff"/>
        <path id="Trazado_25886" data-name="Trazado 25886" d="M30.267,121.531a13.913,13.913,0,0,1-1.6-.845.1.1,0,0,0-.058-.029,4.255,4.255,0,0,0,.087-1.6.216.216,0,0,0-.379-.146c-.35.466-.729.933-1.078,1.4a4.251,4.251,0,0,1-1.107-.787c-.146-.146-.437,0-.35.2.2.554.379,1.137.583,1.719v.029h0a7.9,7.9,0,0,1-.874,1.311c-.117.146,0,.466.2.35.5-.2.991-.408,1.457-.641a6.417,6.417,0,0,0,.787,1.37.207.207,0,0,0,.379-.087c0-.5.029-.962.029-1.457a12.818,12.818,0,0,0,1.836-.379c.2-.058.262-.321.087-.408Zm-3.031.554c-.321.117-.641.262-.962.379a3.006,3.006,0,0,0,.408-.874v-.117c.029-.029.029-.058.029-.117-.058-.35-.146-.7-.233-1.049a3.422,3.422,0,0,0,.787.437.2.2,0,0,0,.291-.087l.787-1.02c0,.408-.058.816-.087,1.253a.133.133,0,0,0,.117.146.182.182,0,0,0,.146.087c.379.146.729.321,1.078.5a10.346,10.346,0,0,1-1.37.262c-.117.029-.2.087-.2.2v.991a6,6,0,0,1-.5-.962c-.117,0-.233-.058-.291-.029Z" transform="translate(-25.441 -100.027)" fill="#fff"/>
        <path id="Trazado_25887" data-name="Trazado 25887" d="M125.858,114.122c-.525-.117-1.078-.087-1.574-.2-.554-.146-.583-.962-.758-1.486a.211.211,0,0,0-.379-.058,3.866,3.866,0,0,0-.525,1.107h0a2.993,2.993,0,0,0-1.515.117.226.226,0,0,0-.058.408,1.757,1.757,0,0,1,.612.612.692.692,0,0,1-.2.9.653.653,0,0,0-.2.7c.058.117.175.233.291.175a14.7,14.7,0,0,0,1.428-.583,2.737,2.737,0,0,0,1.282,1.282.172.172,0,0,0,.262-.146l-.262-1.836a4.163,4.163,0,0,0,1.632-.641c.146-.087.146-.321-.029-.35Zm-1.778.67c-.087,0-.2.087-.175.175.058.554.146,1.107.233,1.661a2.59,2.59,0,0,1-.816-1.02c-.029-.058-.058-.058-.087-.087A.184.184,0,0,0,123,115.4a8.663,8.663,0,0,0-1.137.379c.087-.117.233-.233.262-.35a1.292,1.292,0,0,0,.087-.583,1.557,1.557,0,0,0-.554-.933,4.525,4.525,0,0,1,.9-.087.151.151,0,0,0,.117-.058.16.16,0,0,0,.146-.087,3.14,3.14,0,0,1,.408-.758c.117.408.233.845.321,1.253a.25.25,0,0,0,.2.175,7.136,7.136,0,0,1,1.574.087,2.975,2.975,0,0,1-1.253.35Z" transform="translate(-93.113 -95.387)" fill="#fff"/>
      </g>
      <g id="Grupo_7638" data-name="Grupo 7638">
        <path id="Trazado_25891" data-name="Trazado 25891" d="M405.4,53.307c0,.117.029.262.029.408a21.863,21.863,0,0,0,.7,3.526,15.216,15.216,0,0,0,3.585,6.441l.146-3.526a17.027,17.027,0,0,1-2.74-5.566,19.516,19.516,0,0,1-.554-2.39L405.4,53.307Z" transform="translate(99.334 64.459)" fill="#fff" opacity="0.998"/>
        <path id="Trazado_25892" data-name="Trazado 25892" d="M404.437,71.515a14.1,14.1,0,0,1-5.508-8.044,19.075,19.075,0,0,1-.7-3.526c0-.117-.029-.2-.029-.291l1.341-1.253a23.179,23.179,0,0,0,.7,3.439,15.864,15.864,0,0,0,4.313,7.315Z" transform="translate(104.436 60.066)" fill="#fff" opacity="0.646"/>
        <path id="Trazado_25893" data-name="Trazado 25893" d="M377.237,79.9,376.1,80.978a12.049,12.049,0,0,0,2.8,3.352,18.054,18.054,0,0,1-1.428-3.5C377.382,80.483,377.295,80.191,377.237,79.9Z" transform="translate(120.096 44.833)" fill="#fff" opacity="0.998"/>
        <path id="Trazado_25894" data-name="Trazado 25894" d="M397.165,76.5a15.3,15.3,0,0,1-5.188-8.044,21.626,21.626,0,0,1-.7-3.352L389.5,66.761a18.655,18.655,0,0,0,.583,2.594,14.437,14.437,0,0,0,4.255,6.994c0,.029,2.594.146,2.827.146Z" transform="translate(110.602 55.319)" fill="#fff" opacity="0.998"/>
        <path id="Trazado_25895" data-name="Trazado 25895" d="M387.792,81.8a15.833,15.833,0,0,1-3.526-6.47,18.248,18.248,0,0,1-.5-2.127l-1.37,1.282c.087.408.2.874.35,1.341a16.286,16.286,0,0,0,2.331,4.9,8.954,8.954,0,0,0,2.71,1.078Z" transform="translate(115.631 49.579)" fill="#fff" opacity="0.646"/>
        <path id="Trazado_25896" data-name="Trazado 25896" d="M414.594,54.181l.175-4.08A20.75,20.75,0,0,1,413.6,47.07a13.516,13.516,0,0,1-.35-1.37L412,46.895a24.394,24.394,0,0,0,.612,2.856,17.308,17.308,0,0,0,1.982,4.43Z" transform="translate(94.658 69.064)" fill="#fff" opacity="0.646"/>
        <g id="Grupo_7630" data-name="Grupo 7630" transform="translate(507.27 109.169)" opacity="0.998">
          <path id="Trazado_25897" data-name="Trazado 25897" d="M418.7,43.4h0" transform="translate(-417.359 -38.475)" fill="#fff"/>
          <path id="Trazado_25898" data-name="Trazado 25898" d="M418.821,29.56a11.755,11.755,0,0,0,2.944.787,10.247,10.247,0,0,0,0-1.836c-.233.5-1.341.729-3.235.466a1.807,1.807,0,0,0-2.04,1.311,1.854,1.854,0,0,0-.729-1.749c-.612-.437.146-1.4.146-1.4s-.291.233-.933-.641c0,0-.67,1.6.379,2.273a2.379,2.379,0,0,1,.991,1.4c-.466-.641-1.4-.729-2.244.233l.612.466s.35-1.02,1.719-.379c.029,0,.058.029.087.029v.058c0,.087-.029.146-.029.233a.815.815,0,0,0-.029-.175l-.058.117a.29.29,0,0,1,.029-.117,1.292,1.292,0,0,0-.146.175.728.728,0,0,1,.117-.233l-.933.874c.117.554.262,1.166.437,1.807.117.437.291.9.437,1.37l.175-4.022c.233-.146.641-.175,1.166.437A3.768,3.768,0,0,0,419.7,32.1l.583-1.515a1.419,1.419,0,0,1-2.1.058c-.641-.554-1.107-.554-1.4-.408a1.663,1.663,0,0,1,2.04-.67Z" transform="translate(-414.1 -26.5)" fill="#fff"/>
        </g>
      </g>
      <g id="Grupo_7639" data-name="Grupo 7639">
        <path id="Trazado_25899" data-name="Trazado 25899" d="M435.125,181.535,430.492,167.4l18.623,8.51-12.882,6.178-4.168,9.851,5.3,4.663-12.27-4.984,5.829-.058,4.2-10.025Zm10.841-4.954L433.872,175.5l1.894,5.8,10.2-4.721Z" transform="translate(85.375 -17.167)" fill="#fff" opacity="0.605"/>
        <path id="Trazado_25900" data-name="Trazado 25900" d="M467.295,196.278,457.124,201l-1.923-5.8Z" transform="translate(64.047 -36.864)" fill="#fff"/>
      </g>
      <g id="Grupo_7631" data-name="Grupo 7631" transform="translate(403.598 152.731)">
        <path id="Trazado_25901" data-name="Trazado 25901" d="M77.11,185.495a5.8,5.8,0,0,1,7.84,2.477.66.66,0,0,1-.262.874.668.668,0,0,1-.874-.262,4.55,4.55,0,0,0-6.12-1.953.66.66,0,0,1-.874-.262.645.645,0,0,1,.291-.874Z" transform="translate(-71.389 -182.252)" fill="#fff"/>
        <path id="Trazado_25902" data-name="Trazado 25902" d="M59.313,188.25A8.408,8.408,0,1,1,74.235,180.5c2.127,4.109.787,10.346-1.37,12.794l.641.2a.587.587,0,0,1,.437.554.7.7,0,0,1-.35.641l-.758.408c.408,4.984,1.807,5.45,3.73,6.091a7.415,7.415,0,0,1,3.76,2.273.644.644,0,0,1-.058.9c-.029.029-.087.058-.117.087a.629.629,0,0,1-.787-.146,6.275,6.275,0,0,0-3.177-1.865c-2.39-.787-4.051-1.719-4.546-6.674l-.291.146a.614.614,0,0,1-.7-.087.639.639,0,0,1-.2-.7l.2-.612c-3.322.321-9.151-2.069-11.337-6.266Zm11.949,4.721c1.982-1.02,4.051-7.607,1.836-11.891a7.111,7.111,0,0,0-12.619,6.557c2.215,4.313,8.772,6.382,10.783,5.333Z" transform="translate(-58.373 -175.973)" fill="#fff" opacity="0.748"/>
      </g>
      <g id="Grupo_7637" data-name="Grupo 7637" transform="translate(1.303 109.271)">
        <g transform="matrix(1, 0, 0, 1, 384.7, -10.29)" filter="url(#Trazado_25921)">
          <path id="Trazado_25921-2" data-name="Trazado 25921" d="M164.742,26.353a27.115,27.115,0,0,1,2.136,2.779,18.652,18.652,0,0,1,1.434,2.984,19.2,19.2,0,0,1,.79,3.16,21.82,21.82,0,0,1,.263,3.394,17.73,17.73,0,0,1-.146,2.487,19.786,19.786,0,0,1-.5,2.282,13.353,13.353,0,0,1-.7,2.077c-.293.7-.614,1.346-.936,2.019l-.234.5a2.292,2.292,0,0,1-.293.439l-1.638,2.662L153.333,68.715a2.716,2.716,0,0,1-2.34,1.346l-5.354.029a2.578,2.578,0,0,1-2.574-2.574,2.42,2.42,0,0,1,.439-1.4l7.489-11.556H150.9a13.294,13.294,0,0,1-10.883-4.447h0a15.9,15.9,0,0,1-3.072-5.09,19.2,19.2,0,0,1-1.053-6.027,18.5,18.5,0,0,1,1.141-6.67,17.472,17.472,0,0,1,3.452-5.646,15.086,15.086,0,0,1,5.3-3.891,16.826,16.826,0,0,1,6.67-1.287,18.465,18.465,0,0,1,3.364.322,14.279,14.279,0,0,1,3.277,1.053,17.451,17.451,0,0,1,5.646,3.481ZM155.38,44.843a6.861,6.861,0,0,0,2.165-1.609,7.51,7.51,0,0,0,1.434-2.428,7.057,7.057,0,0,0,.468-2.692,6.771,6.771,0,0,0-2.019-5.032,7.089,7.089,0,0,0-2.282-1.521,5.578,5.578,0,0,0-2.75-.614,6.011,6.011,0,0,0-2.574.673,6.745,6.745,0,0,0-2.136,1.609,7.5,7.5,0,0,0-1.434,2.282,8.688,8.688,0,0,0,0,5.383c0,.029.029.029.029.059a7.558,7.558,0,0,0,1.434,2.37,5.909,5.909,0,0,0,2.136,1.551,7.6,7.6,0,0,0,5.529-.029Zm14.95,11.176h0l-.029-5.471h-.234a2.078,2.078,0,0,1-1.726-.965,1.956,1.956,0,0,1,0-1.96l.936-1.551a2.008,2.008,0,0,1,1.668-.995h4.388a2.038,2.038,0,0,1,1.638.848,7.458,7.458,0,0,1,1.551-.527,11.187,11.187,0,0,1,2.633-.322,10,10,0,0,1,4.242.848,11.529,11.529,0,0,1,3.452,2.311,10.891,10.891,0,0,1,2.34,3.481,10.6,10.6,0,0,1,.878,4.242l.029,10.5s-.029,3.54-3.54,3.54H188.5a3.565,3.565,0,0,1-3.54-3.511l-.029-10.5a3.91,3.91,0,0,0-.293-1.521,4.064,4.064,0,0,0-.819-1.258,3.93,3.93,0,0,0-1.229-.819,3.81,3.81,0,0,0-1.521-.293,3.91,3.91,0,0,0-1.521.293,4.3,4.3,0,0,0-1.229.819,3.93,3.93,0,0,0-.819,1.229,3.81,3.81,0,0,0-.293,1.521l.029,10.5a3.525,3.525,0,0,1-7.051.029h0l-.029-7.2.176-3.277Zm40.724,1.434a4.206,4.206,0,0,0-.468-1.96,6.46,6.46,0,0,0-1.287-1.785,6.67,6.67,0,0,0-1.755-1.258,4.565,4.565,0,0,0-1.96-.439,4.987,4.987,0,0,0-3.95,1.7,5.6,5.6,0,0,0-1.4,3.8,5.373,5.373,0,0,0,.38,2.019,5.968,5.968,0,0,0,1.053,1.755,5.117,5.117,0,0,0,3.979,1.668c5.09-.059,5.412-5.5,5.412-5.5Zm6.67-2.106a11.08,11.08,0,0,1-.556,6.524,3.034,3.034,0,0,0-.117.293,13.294,13.294,0,0,1-6.641,6.729,11.57,11.57,0,0,1-4.739,1.082,12.639,12.639,0,0,1-5.09-.995,13.059,13.059,0,0,1-3.95-2.721,12.293,12.293,0,0,1-2.545-4.008,13.24,13.24,0,0,1-.907-4.739,13.4,13.4,0,0,1,.878-4.8,12.428,12.428,0,0,1,6.378-6.758h.029a12.148,12.148,0,0,1,5.061-1.024,11.852,11.852,0,0,1,4.8.995,12.837,12.837,0,0,1,3.979,2.721c0-.029,2.4,1.843,3.423,6.7Z" transform="translate(-95.86 -12.5)" fill="url(#linear-gradient)"/>
        </g>
        <g transform="matrix(1, 0, 0, 1, 384.7, -10.29)" filter="url(#Trazado_25433)">
          <path id="Trazado_25433-2" data-name="Trazado_25433" d="M336.32,49.852l.5.907a.029.029,0,0,0,.029.029h0l.907.5a.145.145,0,0,1,.029.2l-.029.029-.907.5a.029.029,0,0,0-.029.029h0l-.5.907c-.029.088-.176.088-.234,0l-.5-.907a.029.029,0,0,0-.029-.029h0l-.907-.5a.145.145,0,0,1-.029-.2l.029-.029.907-.5a.029.029,0,0,0,.029-.029h0l.5-.907a.145.145,0,0,1,.2-.029.029.029,0,0,1,.029.029Z" transform="translate(-236.43 -32.51)" fill="#e3e8fd"/>
        </g>
        <g transform="matrix(1, 0, 0, 1, 384.7, -10.29)" filter="url(#Trazado_25922)">
          <path id="Trazado_25922-2" data-name="Trazado 25922" d="M257.117,62.724l-.029-11.614,7.46-.029v1.726h-5.354v3.277h4.33v1.668h-4.33v5h-2.077v-.029Zm11.263.146a4.609,4.609,0,0,1-2.223-.527,3.807,3.807,0,0,1-1.521-1.521,4.169,4.169,0,0,1-.527-2.223,4.443,4.443,0,0,1,.527-2.282,4.139,4.139,0,0,1,1.463-1.551,4.617,4.617,0,0,1,2.253-.585,3.93,3.93,0,0,1,2.136.527,3.629,3.629,0,0,1,1.434,1.463,4.106,4.106,0,0,1,.527,2.048v.38a1.933,1.933,0,0,1-.029.41l-6.2.029a2.463,2.463,0,0,0,.644,1.521,2.1,2.1,0,0,0,1.463.527,1.7,1.7,0,0,0,1.053-.293,2.2,2.2,0,0,0,.644-.731h2.136a4.038,4.038,0,0,1-2.077,2.457,3.762,3.762,0,0,1-1.7.351ZM268.351,56a2.041,2.041,0,0,0-1.346.468,1.925,1.925,0,0,0-.761,1.346h4.1a1.922,1.922,0,0,0-.614-1.316,1.867,1.867,0,0,0-1.375-.5Zm4.769,6.7L273.091,50.7h2.136l.029,11.936H273.12Zm6.085,0V60.969l4.154-4.769h-4.125V54.445l6.553-.029v1.726l-4.242,4.769h4.33v1.755Zm-2.809,0-.029-8.25H278.5l.029,8.221H276.4Zm-21.181-6.758-1.2,8.25H251.5l1.726-8.25Zm-.7-4.037a1.52,1.52,0,0,1,1.024.38,1.343,1.343,0,0,1,0,1.931,1.39,1.39,0,0,1-1.024.38,1.52,1.52,0,0,1-1.024-.38,1.28,1.28,0,0,1-.41-.965,1.327,1.327,0,0,1,.41-.965A1.39,1.39,0,0,1,254.513,51.9Z" transform="translate(-177.65 -33.16)" fill="url(#linear-gradient-2)"/>
        </g>
        <g transform="matrix(1, 0, 0, 1, 384.7, -10.29)" filter="url(#Trazado_25923)">
          <path id="Trazado_25923-2" data-name="Trazado 25923" d="M127.4,206.143l4.418-12.317H134.3l4.505,12.317h-2.37l-.995-2.867h-4.71l-.965,2.867Zm3.949-4.593h3.511l-1.814-5.12-1.7,5.12Zm7.987,4.564-.029-8.718h1.96l.176,1.463a3.073,3.073,0,0,1,1.141-1.229,3.54,3.54,0,0,1,1.785-.468,3.074,3.074,0,0,1,2.487,1.024,4.336,4.336,0,0,1,.907,2.984v4.915h-2.253v-4.71a2.806,2.806,0,0,0-.468-1.726,1.608,1.608,0,0,0-1.434-.614,2.076,2.076,0,0,0-1.551.644,2.732,2.732,0,0,0-.614,1.872v4.505l-2.106.059Zm10.239-10.093a1.61,1.61,0,0,1-1.024-.351,1.262,1.262,0,0,1-.41-.936,1.164,1.164,0,0,1,.41-.936,1.437,1.437,0,0,1,1.024-.38,1.61,1.61,0,0,1,1.024.351,1.262,1.262,0,0,1,.41.936,1.164,1.164,0,0,1-.41.936A1.437,1.437,0,0,1,149.576,196.021Zm-1.112,10.064-.029-8.718h2.253l.029,8.718Zm5.88,0-3.218-8.718h2.34l2.223,6.582,2.194-6.582h2.34l-3.16,8.718Zm9.713.176a5.015,5.015,0,0,1-2.34-.556,3.981,3.981,0,0,1-1.609-1.58,5.162,5.162,0,0,1-.585-2.37,5.372,5.372,0,0,1,.556-2.428,3.982,3.982,0,0,1,1.551-1.638,4.967,4.967,0,0,1,4.622,0,3.879,3.879,0,0,1,1.521,1.551,4.313,4.313,0,0,1,.527,2.165v.41a2.215,2.215,0,0,1-.029.439l-6.583.029a2.148,2.148,0,0,0,.7,1.58,2.207,2.207,0,0,0,1.551.556,2.161,2.161,0,0,0,1.141-.322,2.108,2.108,0,0,0,.7-.819h2.282a4.526,4.526,0,0,1-.819,1.521,3.565,3.565,0,0,1-1.4,1.053,4,4,0,0,1-1.785.41Zm-.029-7.285a2.279,2.279,0,0,0-1.434.468,2.312,2.312,0,0,0-.819,1.434h4.3a1.873,1.873,0,0,0-1.9-1.872.219.219,0,0,0-.146-.029Zm4.944,7.051-.029-8.718h2.019l.2,1.638a3.431,3.431,0,0,1,3.189-1.843v2.37h-.614a3.411,3.411,0,0,0-1.316.263,1.838,1.838,0,0,0-.907.79,3.15,3.15,0,0,0-.322,1.551v3.979l-2.223-.029Zm9.654.2a5.392,5.392,0,0,1-2.048-.351,3.565,3.565,0,0,1-1.4-1.053,2.578,2.578,0,0,1-.614-1.551h2.253a1.454,1.454,0,0,0,.585.848,1.762,1.762,0,0,0,1.2.351,1.489,1.489,0,0,0,1.053-.293.744.744,0,0,0,.322-.7.793.793,0,0,0-.5-.761,10.24,10.24,0,0,0-1.346-.41c-.38-.088-.731-.176-1.141-.293a6.66,6.66,0,0,1-1.053-.439,2.284,2.284,0,0,1-.79-.7,1.979,1.979,0,0,1-.293-1.053,2.413,2.413,0,0,1,.907-1.96,4.56,4.56,0,0,1,5.032-.059,2.987,2.987,0,0,1,1.112,1.989h-2.136c-.117-.644-.614-.995-1.434-.965a1.553,1.553,0,0,0-.995.263.634.634,0,0,0-.322.614c0,.234.176.439.5.614a7.147,7.147,0,0,0,1.346.41,15.494,15.494,0,0,1,1.668.439,3.274,3.274,0,0,1,1.229.731,2.094,2.094,0,0,1,.439,1.434,2.571,2.571,0,0,1-1.668,2.487,4.2,4.2,0,0,1-1.9.41Zm7.606-.029a4.4,4.4,0,0,1-1.843-.351,2.5,2.5,0,0,1-1.053-.936,2.558,2.558,0,0,1-.38-1.316,2.358,2.358,0,0,1,.936-1.96,4.416,4.416,0,0,1,2.809-.731H188.9v-.234a1.7,1.7,0,0,0-.5-1.316,1.813,1.813,0,0,0-1.258-.41,2.345,2.345,0,0,0-1.17.322,1.38,1.38,0,0,0-.614.936H183.19a2.787,2.787,0,0,1,.644-1.638,3.66,3.66,0,0,1,1.434-1.053,4.979,4.979,0,0,1,1.96-.38,4.166,4.166,0,0,1,2.9.936,3.406,3.406,0,0,1,1.082,2.6v5.354h-1.931l-.2-1.4a3.287,3.287,0,0,1-1.053,1.141,3.179,3.179,0,0,1-1.785.439Zm.527-1.755a1.946,1.946,0,0,0,1.521-.614,2.81,2.81,0,0,0,.644-1.551h-1.931a2.082,2.082,0,0,0-1.258.322.973.973,0,0,0-.351.819.826.826,0,0,0,.38.761,1.641,1.641,0,0,0,.995.263Zm4.973,1.521-.029-8.718h2.019l.2,1.638a3.431,3.431,0,0,1,3.189-1.843v2.37H196.5a3.411,3.411,0,0,0-1.316.263,1.838,1.838,0,0,0-.907.79,3.15,3.15,0,0,0-.322,1.551V206l-2.223-.029Zm7.138-10.064a1.61,1.61,0,0,1-1.024-.351,1.275,1.275,0,0,1,0-1.872,1.486,1.486,0,0,1,1.024-.38,1.61,1.61,0,0,1,1.024.351,1.275,1.275,0,0,1,0,1.872A1.437,1.437,0,0,1,198.871,195.9Zm-1.082,10.064-.029-8.718h2.253l.029,8.718Zm7.255.176a4.357,4.357,0,0,1-3.862-2.165,5.035,5.035,0,0,1,.029-4.739,4.388,4.388,0,0,1,1.58-1.609,4.7,4.7,0,0,1,2.253-.585,5.027,5.027,0,0,1,2.253.556,4.883,4.883,0,0,1,1.609,1.58,4.526,4.526,0,0,1,.585,2.37,5.133,5.133,0,0,1-.556,2.37,4.388,4.388,0,0,1-1.58,1.609,4.1,4.1,0,0,1-2.311.614Zm0-1.9a2.076,2.076,0,0,0,1.521-.644,3.247,3.247,0,0,0,0-3.92,2.076,2.076,0,0,0-1.521-.644,1.97,1.97,0,0,0-1.521.644,2.7,2.7,0,0,0-.644,1.96,2.66,2.66,0,0,0,.644,1.96,2.4,2.4,0,0,0,1.521.644Zm6.465,1.96a1.39,1.39,0,0,1-1.024-.38,1.343,1.343,0,0,1,0-1.931,1.569,1.569,0,0,1,2.048,0,1.343,1.343,0,0,1,0,1.931A1.39,1.39,0,0,1,211.51,206.2Zm-.673-4.037,1.229-8.25h2.516l-1.755,8.25Z" transform="translate(-89.85 -134.04)" fill="url(#linear-gradient-3)"/>
        </g>
      </g>
    </g>
  </g>
</svg>
