<svg xmlns="http://www.w3.org/2000/svg" xmlns:xlink="http://www.w3.org/1999/xlink" width="640" height="647.55" viewBox="0 0 640 647.55">
  <defs>
    <clipPath id="clip-Assets_2">
      <rect width="640" height="647.55"/>
    </clipPath>
  </defs>
  <g id="Assets_2" data-name="Assets 2" clip-path="url(#clip-Assets_2)">
    <g id="Patrones-navidad" opacity="0.7">
      <path id="Trazado_19008" data-name="Trazado 19008" d="M1010.86,150.789c12.3,0,14.109-18.229,14.109-18.229s2.459,18.229,15.395,18.229A20.654,20.654,0,0,0,1025.615,169a23.065,23.065,0,0,0-14.749-18.206Z" transform="translate(-417.687 -56.097)" fill="#fff"/>
      <path id="Trazado_19009" data-name="Trazado 19009" d="M971.716,176.726c4.789,0,5.493-7.1,5.493-7.1s.957,7.1,5.992,7.1a8.051,8.051,0,0,0-5.746,7.09,8.979,8.979,0,0,0-5.746-7.09Z" transform="translate(-401.514 -71.411)" fill="#fff"/>
      <path id="Trazado_19010" data-name="Trazado 19010" d="M990.419,41.35l-15.958-.082c2.23-2.242,4.39-4.549,6.45-6.931,1.3-1.5-.88-3.7-2.189-2.189q-3.187,3.689-6.656,7.166-.238-8.883-.651-17.754c-.094-1.984-3.187-2-3.093,0q.44,9.244.669,18.488-4.6-3.838-9.214-7.683c-1.52-1.268-3.715.91-2.189,2.189q4,3.337,8,6.673-7.157-.035-14.309-.076a1.547,1.547,0,0,0,0,3.093l15.524.082q-3.847,3.469-7.935,6.614a1.6,1.6,0,0,0-.558,2.113,1.556,1.556,0,0,0,2.113.558q4.481-3.442,8.692-7.254.194,10.811.123,21.633a1.547,1.547,0,0,0,3.093,0q.079-10.617-.117-21.228l7.325,6.11c1.52,1.268,3.715-.91,2.189-2.189q-3.786-3.16-7.577-6.321,8.126.044,16.257.082a1.547,1.547,0,0,0,0-3.093Z" transform="translate(-392.456 -9.627)" fill="#fff"/>
      <path id="Trazado_19011" data-name="Trazado 19011" d="M1059.622,5.895q-2.034,2.007-4.243,3.8c.065-2.224.135-4.443.223-6.667.041-1-1.508-.992-1.55,0-.088,2.207-.158,4.414-.223,6.614-1.262-1.18-2.524-2.359-3.8-3.521-.734-.669-1.831.423-1.092,1.092q2.218,2.016,4.4,4.073-2.2,1.637-4.543,3.075c-.845.516-.07,1.855.781,1.338,1.432-.874,2.823-1.814,4.179-2.8-.047,1.86-.088,3.727-.117,5.587a.775.775,0,0,0,1.549,0c.029-1.778.07-3.557.111-5.335,1.074,1.027,2.154,2.048,3.216,3.087.716.693,1.807-.4,1.092-1.092-1.285-1.256-2.588-2.494-3.891-3.733a62.7,62.7,0,0,0,5-4.419.772.772,0,0,0-1.092-1.092Z" transform="translate(-433.206 -2.279)" fill="#fff"/>
      <path id="Trazado_19012" data-name="Trazado 19012" d="M1010.86,602.829c12.3,0,14.109-18.229,14.109-18.229s2.459,18.229,15.395,18.229a20.654,20.654,0,0,0-14.749,18.206,23.065,23.065,0,0,0-14.749-18.206Z" transform="translate(-417.687 -242.833)" fill="#fff"/>
      <path id="Trazado_19013" data-name="Trazado 19013" d="M971.716,628.766c4.789,0,5.493-7.1,5.493-7.1s.957,7.1,5.992,7.1a8.051,8.051,0,0,0-5.746,7.09,8.979,8.979,0,0,0-5.746-7.09Z" transform="translate(-401.514 -258.146)" fill="#fff"/>
      <path id="Trazado_19014" data-name="Trazado 19014" d="M1049.261,343.169q-11.621-.062-23.247-.117,5.106-5.062,9.8-10.482c1.3-1.5-.88-3.7-2.189-2.189q-4.807,5.564-10.077,10.77-.326-12.853-.927-25.7c-.094-1.984-3.187-2-3.093,0q.634,13.293.951,26.6-6.823-5.687-13.646-11.38c-1.52-1.268-3.715.91-2.189,2.189q6.083,5.071,12.161,10.142-10.608-.053-21.217-.112a1.547,1.547,0,0,0,0,3.093q11.374.062,22.743.117c-3.88,3.551-7.9,6.949-12.043,10.13a1.607,1.607,0,0,0-.558,2.119,1.561,1.561,0,0,0,2.119.558c4.4-3.375,8.657-6.967,12.765-10.729q.3,15.477.194,30.948a1.547,1.547,0,0,0,3.093,0q.106-15.177-.182-30.355,5.529,4.6,11.051,9.214c1.52,1.268,3.715-.91,2.189-2.189q-5.793-4.824-11.58-9.655l23.887.123a1.547,1.547,0,0,0,0-3.093Z" transform="translate(-410.761 -131.032)" fill="#fff"/>
      <path id="Trazado_19015" data-name="Trazado 19015" d="M990.419,493.39q-7.976-.044-15.958-.082c2.23-2.242,4.39-4.548,6.45-6.931,1.3-1.5-.88-3.7-2.189-2.189q-3.187,3.689-6.656,7.166-.238-8.883-.651-17.754c-.094-1.984-3.187-2-3.093,0q.44,9.244.669,18.487-4.6-3.838-9.214-7.683c-1.52-1.268-3.715.91-2.189,2.189q4,3.337,8,6.673-7.157-.035-14.309-.076a1.547,1.547,0,0,0,0,3.093q7.765.044,15.524.082-3.847,3.469-7.935,6.614a1.6,1.6,0,0,0-.558,2.113,1.556,1.556,0,0,0,2.113.558q4.481-3.442,8.692-7.254.194,10.811.123,21.633a1.547,1.547,0,0,0,3.093,0q.079-10.617-.117-21.228l7.325,6.11c1.52,1.268,3.715-.91,2.189-2.189q-3.786-3.16-7.577-6.321,8.126.044,16.257.082a1.547,1.547,0,0,0,0-3.093Z" transform="translate(-392.456 -196.362)" fill="#fff"/>
      <path id="Trazado_19016" data-name="Trazado 19016" d="M972.63,393.406a81.383,81.383,0,0,1-6.256,5.558q.141-4.824.323-9.649c.041-1-1.508-.992-1.544,0q-.194,4.8-.323,9.6c-1.86-1.743-3.727-3.486-5.617-5.2-.734-.669-1.831.423-1.092,1.092q3.125,2.844,6.2,5.746-3.125,2.351-6.462,4.4c-.845.516-.07,1.855.781,1.338,2.1-1.279,4.132-2.659,6.11-4.114-.065,2.717-.135,5.429-.176,8.146a.775.775,0,0,0,1.549,0c.041-2.629.106-5.259.17-7.888,1.614,1.538,3.234,3.075,4.83,4.631.71.693,1.808-.4,1.092-1.092q-2.729-2.667-5.511-5.282a82.554,82.554,0,0,0,7.019-6.18.772.772,0,0,0-1.092-1.092Z" transform="translate(-395.643 -161.853)" fill="#fff"/>
      <path id="Trazado_19017" data-name="Trazado 19017" d="M1059.622,457.935q-2.034,2.007-4.243,3.8c.065-2.224.135-4.443.223-6.667.041-1-1.508-.992-1.55,0-.088,2.207-.158,4.413-.223,6.614-1.262-1.18-2.524-2.359-3.8-3.521-.734-.669-1.831.423-1.092,1.092q2.218,2.016,4.4,4.073-2.2,1.638-4.543,3.075c-.845.516-.07,1.855.781,1.338,1.432-.874,2.823-1.814,4.179-2.8-.047,1.861-.088,3.727-.117,5.587a.775.775,0,0,0,1.549,0c.029-1.778.07-3.557.111-5.335,1.074,1.027,2.154,2.048,3.216,3.087.716.693,1.807-.4,1.092-1.092-1.285-1.256-2.588-2.494-3.891-3.733a62.694,62.694,0,0,0,5-4.419.772.772,0,0,0-1.092-1.092Z" transform="translate(-433.206 -189.014)" fill="#fff"/>
      <path id="Trazado_19018" data-name="Trazado 19018" d="M938.04,266.024c21.281,0,24.4-31.534,24.4-31.534s4.255,31.534,26.628,31.534c0,0-22.655,5.388-25.513,31.487-4.232-24.967-25.513-31.487-25.513-31.487Z" transform="translate(-387.605 -98.204)" fill="#fff"/>
      <path id="Trazado_19019" data-name="Trazado 19019" d="M1035.99,249.814c7.084,0,8.123-10.494,8.123-10.494s1.414,10.494,8.862,10.494a11.888,11.888,0,0,0-8.493,10.482A13.284,13.284,0,0,0,1035.99,249.814Z" transform="translate(-428.068 -100.199)" fill="#fff"/>
      <path id="Trazado_19020" data-name="Trazado 19020" d="M1010.86,1054.869c12.3,0,14.109-18.229,14.109-18.229s2.459,18.229,15.395,18.229a20.654,20.654,0,0,0-14.749,18.206,23.065,23.065,0,0,0-14.749-18.206Z" transform="translate(-417.687 -429.568)" fill="#fff"/>
      <path id="Trazado_19021" data-name="Trazado 19021" d="M971.716,1080.806c4.789,0,5.493-7.1,5.493-7.1s.957,7.1,5.992,7.1a8.051,8.051,0,0,0-5.746,7.09,8.978,8.978,0,0,0-5.746-7.09Z" transform="translate(-401.514 -444.882)" fill="#fff"/>
      <path id="Trazado_19022" data-name="Trazado 19022" d="M1049.261,795.209q-11.621-.062-23.247-.117,5.106-5.062,9.8-10.482c1.3-1.5-.88-3.7-2.189-2.189q-4.807,5.564-10.077,10.77-.326-12.853-.927-25.7c-.094-1.984-3.187-2-3.093,0q.634,13.293.951,26.6-6.823-5.687-13.646-11.38c-1.52-1.268-3.715.91-2.189,2.189q6.083,5.071,12.161,10.142-10.608-.053-21.217-.112a1.547,1.547,0,0,0,0,3.093q11.374.062,22.743.117c-3.88,3.551-7.9,6.949-12.043,10.13a1.607,1.607,0,0,0-.558,2.119,1.561,1.561,0,0,0,2.119.558c4.4-3.375,8.657-6.967,12.765-10.729q.3,15.477.194,30.948a1.547,1.547,0,0,0,3.093,0q.106-15.177-.182-30.355,5.529,4.6,11.051,9.214c1.52,1.268,3.715-.91,2.189-2.189q-5.793-4.824-11.58-9.654l23.887.123a1.547,1.547,0,0,0,0-3.093Z" transform="translate(-410.761 -317.767)" fill="#fff"/>
      <path id="Trazado_19023" data-name="Trazado 19023" d="M990.419,945.43l-15.958-.082c2.23-2.242,4.39-4.548,6.45-6.931,1.3-1.5-.88-3.7-2.189-2.189q-3.187,3.689-6.656,7.166-.238-8.883-.651-17.754c-.094-1.984-3.187-2-3.093,0q.44,9.244.669,18.487-4.6-3.838-9.214-7.682c-1.52-1.268-3.715.91-2.189,2.189q4,3.337,8,6.673-7.157-.035-14.309-.076a1.547,1.547,0,0,0,0,3.093l15.524.082q-3.847,3.469-7.935,6.614a1.6,1.6,0,0,0-.558,2.113,1.556,1.556,0,0,0,2.113.558q4.481-3.442,8.692-7.254.194,10.811.123,21.633a1.547,1.547,0,0,0,3.093,0q.079-10.617-.117-21.228l7.325,6.11c1.52,1.268,3.715-.91,2.189-2.189q-3.786-3.161-7.577-6.321,8.126.044,16.257.082a1.547,1.547,0,0,0,0-3.093Z" transform="translate(-392.456 -383.098)" fill="#fff"/>
      <path id="Trazado_19024" data-name="Trazado 19024" d="M972.63,845.446A81.383,81.383,0,0,1,966.373,851q.141-4.824.323-9.649c.041-1-1.508-.992-1.544,0q-.194,4.8-.323,9.6c-1.86-1.743-3.727-3.486-5.617-5.2-.734-.669-1.831.423-1.092,1.092q3.125,2.843,6.2,5.746-3.125,2.351-6.462,4.4c-.845.516-.07,1.855.781,1.338,2.1-1.28,4.132-2.659,6.11-4.114-.065,2.717-.135,5.429-.176,8.146a.775.775,0,0,0,1.549,0c.041-2.629.106-5.259.17-7.888,1.614,1.538,3.234,3.075,4.83,4.631.71.693,1.808-.4,1.092-1.092q-2.729-2.668-5.511-5.282a82.57,82.57,0,0,0,7.019-6.18.772.772,0,0,0-1.092-1.092Z" transform="translate(-395.643 -348.589)" fill="#fff"/>
      <path id="Trazado_19025" data-name="Trazado 19025" d="M1059.622,909.975q-2.034,2.007-4.243,3.8c.065-2.224.135-4.443.223-6.667.041-1-1.508-.992-1.55,0-.088,2.207-.158,4.414-.223,6.615-1.262-1.18-2.524-2.359-3.8-3.521-.734-.669-1.831.422-1.092,1.092q2.218,2.016,4.4,4.073-2.2,1.637-4.543,3.075c-.845.516-.07,1.855.781,1.338,1.432-.875,2.823-1.814,4.179-2.8-.047,1.86-.088,3.727-.117,5.587a.775.775,0,0,0,1.549,0c.029-1.778.07-3.557.111-5.335,1.074,1.027,2.154,2.048,3.216,3.087.716.693,1.807-.4,1.092-1.092-1.285-1.256-2.588-2.494-3.891-3.733a62.657,62.657,0,0,0,5-4.419.772.772,0,0,0-1.092-1.092Z" transform="translate(-433.206 -375.749)" fill="#fff"/>
      <path id="Trazado_19026" data-name="Trazado 19026" d="M938.04,718.054c21.281,0,24.4-31.534,24.4-31.534s4.255,31.534,26.628,31.534c0,0-22.655,5.388-25.513,31.487-4.232-24.967-25.513-31.487-25.513-31.487Z" transform="translate(-387.605 -284.935)" fill="#fff" opacity="0.5"/>
      <path id="Trazado_19027" data-name="Trazado 19027" d="M1035.99,701.854c7.084,0,8.123-10.494,8.123-10.494s1.414,10.494,8.862,10.494a11.888,11.888,0,0,0-8.493,10.482A13.284,13.284,0,0,0,1035.99,701.854Z" transform="translate(-428.068 -286.935)" fill="#fff"/>
      <path id="Trazado_19028" data-name="Trazado 19028" d="M915.285,117.137c-1.1,0-2.213-.012-3.316-.018l-19.926-.106q1.505-1.488,2.976-3.023c.317-.323.622-.657.939-.98q1.083-1.136,2.136-2.289c.3-.323.6-.646.892-.974.963-1.062,1.919-2.136,2.858-3.222a1.651,1.651,0,0,0-1.115-2.694,1.32,1.32,0,0,0-1.074.5c-.91,1.056-1.843,2.1-2.782,3.14-.376.417-.763.828-1.144,1.244-.54.587-1.086,1.174-1.637,1.755-.5.528-1,1.051-1.5,1.573-.423.434-.845.863-1.268,1.3-.581.587-1.156,1.18-1.743,1.755h0q-.326-12.853-.927-25.7c-.094-1.984-3.187-2-3.093,0q.634,13.293.951,26.6-6.823-5.687-13.646-11.38a1.643,1.643,0,0,0-.593-.323,1.869,1.869,0,0,0-.305-.059c-1.315-.106-2.535,1.526-1.291,2.565q6.083,5.071,12.161,10.142-10.608-.053-21.217-.112h0a1.547,1.547,0,0,0,0,3.093q11.374.062,22.743.117h0c-.886.816-1.784,1.614-2.688,2.412-.182.158-.364.323-.546.481-.786.687-1.573,1.367-2.371,2.037-.434.37-.874.734-1.315,1.092-.6.493-1.191.992-1.8,1.479-1.1.886-2.207,1.767-3.322,2.623a1.607,1.607,0,0,0-.557,2.119,1.7,1.7,0,0,0,1.256.775,1.288,1.288,0,0,0,.6-.07,1.164,1.164,0,0,0,.264-.147q1.734-1.329,3.439-2.711c.734-.593,1.461-1.2,2.189-1.8.346-.288.693-.569,1.039-.863q1.417-1.188,2.805-2.412l.276-.241q1.523-1.338,3.017-2.706.3,15.477.194,30.948a1.547,1.547,0,0,0,3.093,0q.106-15.177-.182-30.355,5.529,4.6,11.051,9.214a1.6,1.6,0,0,0,.9.376c1.315.106,2.536-1.526,1.291-2.565q-5.793-4.824-11.58-9.655,9.446.053,18.892.1c1.667.006,3.328.018,4.995.023h0a1.547,1.547,0,0,0,0-3.093Z" transform="translate(-355.418 -37.651)" fill="#fff"/>
      <path id="Trazado_19029" data-name="Trazado 19029" d="M838.65,167.386a81.372,81.372,0,0,1-6.256,5.558q.141-4.824.323-9.649c.041-1-1.508-.992-1.544,0q-.194,4.8-.323,9.6c-1.861-1.743-3.727-3.486-5.617-5.2-.734-.669-1.831.423-1.092,1.092q3.125,2.844,6.2,5.746-3.125,2.351-6.462,4.4c-.845.516-.07,1.855.781,1.338,2.1-1.279,4.132-2.659,6.11-4.114-.065,2.717-.135,5.429-.176,8.146a.772.772,0,0,0,1.544,0c.041-2.629.106-5.259.17-7.888,1.614,1.538,3.234,3.075,4.83,4.631.71.693,1.808-.4,1.092-1.092q-2.729-2.667-5.511-5.282a83.5,83.5,0,0,0,7.019-6.18.772.772,0,0,0-1.092-1.092Z" transform="translate(-340.297 -68.485)" fill="#fff"/>
      <path id="Trazado_19030" data-name="Trazado 19030" d="M742.9,150.789c12.3,0,14.109-18.229,14.109-18.229s2.459,18.229,15.395,18.229A20.654,20.654,0,0,0,757.655,169a23.065,23.065,0,0,0-14.749-18.206Z" transform="translate(-306.994 -56.097)" fill="#fff"/>
      <path id="Trazado_19031" data-name="Trazado 19031" d="M703.756,176.726c4.789,0,5.493-7.1,5.493-7.1s.957,7.1,5.992,7.1a8.051,8.051,0,0,0-5.746,7.09,8.979,8.979,0,0,0-5.746-7.09Z" transform="translate(-290.821 -71.411)" fill="#fff"/>
      <path id="Trazado_19032" data-name="Trazado 19032" d="M722.459,41.35,706.5,41.268c2.23-2.242,4.39-4.549,6.45-6.931,1.3-1.5-.88-3.7-2.189-2.189q-3.187,3.689-6.656,7.166-.238-8.883-.651-17.754c-.094-1.984-3.187-2-3.093,0q.44,9.244.669,18.488-4.6-3.838-9.214-7.683c-1.52-1.268-3.715.91-2.189,2.189q4,3.337,8,6.673-7.157-.035-14.309-.076a1.547,1.547,0,0,0,0,3.093l15.524.082q-3.847,3.469-7.935,6.614a1.6,1.6,0,0,0-.557,2.113,1.561,1.561,0,0,0,2.119.558q4.481-3.442,8.692-7.254.194,10.811.123,21.633a1.547,1.547,0,0,0,3.093,0q.079-10.617-.117-21.228l7.325,6.11c1.52,1.268,3.715-.91,2.189-2.189q-3.786-3.16-7.577-6.321,8.125.044,16.257.082a1.547,1.547,0,0,0,0-3.093Z" transform="translate(-281.764 -9.627)" fill="#fff"/>
      <path id="Trazado_19033" data-name="Trazado 19033" d="M804.06,40c21.281,0,24.4-31.534,24.4-31.534S832.719,40,855.092,40c0,0-22.655,5.388-25.513,31.487C825.347,46.525,804.066,40,804.066,40Z" transform="translate(-332.259 -4.836)" fill="#fff" opacity="0.5"/>
      <path id="Trazado_19034" data-name="Trazado 19034" d="M902.02,23.794c7.084,0,8.123-10.494,8.123-10.494s1.414,10.494,8.862,10.494a11.888,11.888,0,0,0-8.493,10.482A13.284,13.284,0,0,0,902.02,23.794Z" transform="translate(-372.725 -6.831)" fill="#fff"/>
      <path id="Trazado_19035" data-name="Trazado 19035" d="M791.662,5.895q-2.034,2.007-4.243,3.8c.065-2.224.135-4.443.223-6.667.041-1-1.508-.992-1.549,0-.088,2.207-.159,4.414-.223,6.614-1.262-1.18-2.524-2.359-3.8-3.521-.734-.669-1.831.423-1.092,1.092q2.219,2.016,4.4,4.073-2.2,1.637-4.543,3.075c-.845.516-.07,1.855.781,1.338,1.432-.874,2.823-1.814,4.179-2.8-.047,1.86-.088,3.727-.117,5.587a.772.772,0,0,0,1.544,0c.029-1.778.07-3.557.112-5.335,1.074,1.027,2.154,2.048,3.216,3.087.71.693,1.808-.4,1.092-1.092-1.285-1.256-2.588-2.494-3.891-3.733a62.709,62.709,0,0,0,5-4.419A.772.772,0,0,0,791.656,5.9Z" transform="translate(-322.513 -2.279)" fill="#fff"/>
      <path id="Trazado_19036" data-name="Trazado 19036" d="M915.289,569.181c-1.1,0-2.213-.012-3.316-.018l-19.925-.106c1-.992,2-2,2.976-3.017.317-.329.628-.657.939-.986.722-.757,1.432-1.52,2.142-2.289.3-.323.593-.646.892-.968.963-1.062,1.919-2.136,2.858-3.222a1.651,1.651,0,0,0-1.115-2.694,1.32,1.32,0,0,0-1.074.5c-.91,1.056-1.843,2.1-2.782,3.14-.376.417-.763.828-1.144,1.244-.54.587-1.086,1.174-1.637,1.755-.5.528-1,1.051-1.5,1.573-.423.434-.845.863-1.268,1.3-.581.587-1.156,1.18-1.743,1.755h0q-.326-12.853-.927-25.7c-.094-1.984-3.187-2-3.093,0q.634,13.293.951,26.6-6.823-5.687-13.645-11.38a1.643,1.643,0,0,0-.593-.323,1.859,1.859,0,0,0-.305-.059c-1.315-.106-2.535,1.526-1.291,2.565q6.083,5.071,12.161,10.142-10.608-.053-21.217-.111h0a1.547,1.547,0,0,0,0,3.093q11.374.062,22.743.117h0c-.886.816-1.784,1.614-2.688,2.412-.182.158-.364.323-.546.481-.786.687-1.573,1.367-2.371,2.037-.434.37-.875.734-1.315,1.092-.6.493-1.191.992-1.8,1.479-1.1.886-2.207,1.767-3.322,2.623a1.607,1.607,0,0,0-.558,2.119,1.7,1.7,0,0,0,1.256.775,1.289,1.289,0,0,0,.6-.07,1.169,1.169,0,0,0,.264-.147q1.734-1.329,3.439-2.706c.74-.593,1.461-1.2,2.2-1.8.346-.288.693-.569,1.039-.863.945-.792,1.878-1.6,2.805-2.412.088-.082.182-.159.27-.235q1.523-1.338,3.017-2.706.3,15.477.194,30.948a1.547,1.547,0,0,0,3.093,0q.106-15.177-.182-30.355,5.529,4.6,11.052,9.214a1.6,1.6,0,0,0,.9.376c1.315.106,2.536-1.526,1.291-2.565q-5.793-4.824-11.58-9.655,9.446.053,18.892.1c1.667.006,3.328.018,4.995.023h0a1.547,1.547,0,0,0,0-3.093Z" transform="translate(-355.423 -224.391)" fill="#fff"/>
      <path id="Trazado_19037" data-name="Trazado 19037" d="M838.65,619.426a81.4,81.4,0,0,1-6.256,5.558q.141-4.824.323-9.649c.041-1-1.508-.992-1.544,0q-.194,4.8-.323,9.6c-1.861-1.743-3.727-3.486-5.617-5.2-.734-.669-1.831.423-1.092,1.092q3.125,2.844,6.2,5.746-3.125,2.351-6.462,4.4c-.845.517-.07,1.855.781,1.338,2.1-1.279,4.132-2.659,6.11-4.114-.065,2.717-.135,5.429-.176,8.146a.772.772,0,0,0,1.544,0c.041-2.629.106-5.259.17-7.888,1.614,1.538,3.234,3.075,4.83,4.631.71.693,1.808-.4,1.092-1.092q-2.729-2.668-5.511-5.282a82.591,82.591,0,0,0,7.019-6.18.772.772,0,0,0-1.092-1.092Z" transform="translate(-340.297 -255.221)" fill="#fff"/>
      <path id="Trazado_19038" data-name="Trazado 19038" d="M742.9,602.829c12.3,0,14.109-18.229,14.109-18.229s2.459,18.229,15.395,18.229a20.654,20.654,0,0,0-14.749,18.206,23.065,23.065,0,0,0-14.749-18.206Z" transform="translate(-306.994 -242.833)" fill="#fff"/>
      <path id="Trazado_19039" data-name="Trazado 19039" d="M703.756,628.766c4.789,0,5.493-7.1,5.493-7.1s.957,7.1,5.992,7.1a8.051,8.051,0,0,0-5.746,7.09,8.979,8.979,0,0,0-5.746-7.09Z" transform="translate(-290.821 -258.146)" fill="#fff"/>
      <path id="Trazado_19040" data-name="Trazado 19040" d="M781.3,343.169q-11.621-.062-23.247-.117,5.106-5.062,9.8-10.482c1.3-1.5-.88-3.7-2.189-2.189q-4.807,5.564-10.077,10.77-.326-12.853-.927-25.7c-.094-1.984-3.187-2-3.093,0q.634,13.293.951,26.6-6.823-5.687-13.646-11.38c-1.52-1.268-3.715.91-2.189,2.189q6.083,5.071,12.161,10.142-10.608-.053-21.217-.112a1.547,1.547,0,0,0,0,3.093q11.374.062,22.743.117c-3.88,3.551-7.9,6.949-12.043,10.13a1.607,1.607,0,0,0-.558,2.119,1.561,1.561,0,0,0,2.119.558c4.4-3.375,8.657-6.967,12.765-10.729q.3,15.477.194,30.948a1.547,1.547,0,0,0,3.093,0q.105-15.177-.182-30.355,5.529,4.6,11.051,9.214c1.52,1.268,3.715-.91,2.189-2.189q-5.793-4.824-11.58-9.655l23.887.123a1.547,1.547,0,0,0,0-3.093Z" transform="translate(-300.068 -131.032)" fill="#fff"/>
      <path id="Trazado_19041" data-name="Trazado 19041" d="M722.459,493.39q-7.976-.044-15.958-.082c2.23-2.242,4.39-4.548,6.45-6.931,1.3-1.5-.88-3.7-2.189-2.189q-3.187,3.689-6.656,7.166-.238-8.883-.651-17.754c-.094-1.984-3.187-2-3.093,0q.44,9.244.669,18.487-4.6-3.838-9.214-7.683c-1.52-1.268-3.715.91-2.189,2.189q4,3.337,8,6.673-7.157-.035-14.309-.076a1.547,1.547,0,0,0,0,3.093q7.765.044,15.524.082-3.847,3.469-7.935,6.614a1.6,1.6,0,0,0-.557,2.113,1.561,1.561,0,0,0,2.119.558q4.481-3.442,8.692-7.254.194,10.811.123,21.633a1.547,1.547,0,0,0,3.093,0q.079-10.617-.117-21.228l7.325,6.11c1.52,1.268,3.715-.91,2.189-2.189q-3.786-3.16-7.577-6.321,8.125.044,16.257.082a1.547,1.547,0,0,0,0-3.093Z" transform="translate(-281.764 -196.362)" fill="#fff"/>
      <path id="Trazado_19042" data-name="Trazado 19042" d="M804.06,492.034c21.281,0,24.4-31.534,24.4-31.534s4.255,31.534,26.628,31.534c0,0-22.655,5.388-25.513,31.487-4.232-24.967-25.513-31.487-25.513-31.487Z" transform="translate(-332.259 -191.567)" fill="#fff"/>
      <path id="Trazado_19043" data-name="Trazado 19043" d="M876.88,376.809c12.3,0,14.109-18.229,14.109-18.229s2.459,18.229,15.394,18.229a20.654,20.654,0,0,0-14.749,18.206,23.065,23.065,0,0,0-14.749-18.206Z" transform="translate(-362.34 -149.465)" fill="#fff"/>
      <path id="Trazado_19044" data-name="Trazado 19044" d="M902.02,475.834c7.084,0,8.123-10.494,8.123-10.494s1.414,10.494,8.862,10.494a11.888,11.888,0,0,0-8.493,10.482,13.284,13.284,0,0,0-8.493-10.482Z" transform="translate(-372.725 -193.567)" fill="#fff"/>
      <path id="Trazado_19045" data-name="Trazado 19045" d="M837.736,402.746c4.789,0,5.493-7.1,5.493-7.1s.957,7.1,5.992,7.1a8.051,8.051,0,0,0-5.746,7.09,8.979,8.979,0,0,0-5.746-7.09Z" transform="translate(-346.168 -164.778)" fill="#fff"/>
      <path id="Trazado_19046" data-name="Trazado 19046" d="M704.67,393.406a81.382,81.382,0,0,1-6.256,5.558q.141-4.824.323-9.649c.041-1-1.508-.992-1.544,0q-.194,4.8-.323,9.6c-1.86-1.743-3.727-3.486-5.617-5.2-.734-.669-1.831.423-1.092,1.092q3.125,2.844,6.2,5.746-3.125,2.351-6.462,4.4c-.845.516-.07,1.855.781,1.338,2.1-1.279,4.132-2.659,6.11-4.114-.065,2.717-.135,5.429-.176,8.146a.772.772,0,0,0,1.544,0c.041-2.629.106-5.259.17-7.888,1.614,1.538,3.234,3.075,4.83,4.631.71.693,1.808-.4,1.092-1.092q-2.729-2.667-5.511-5.282a83.477,83.477,0,0,0,7.019-6.18.772.772,0,0,0-1.092-1.092Z" transform="translate(-284.95 -161.853)" fill="#fff"/>
      <path id="Trazado_19047" data-name="Trazado 19047" d="M791.662,457.935q-2.034,2.007-4.243,3.8c.065-2.224.135-4.443.223-6.667.041-1-1.508-.992-1.549,0-.088,2.207-.159,4.413-.223,6.614-1.262-1.18-2.524-2.359-3.8-3.521-.734-.669-1.831.423-1.092,1.092q2.219,2.016,4.4,4.073-2.2,1.638-4.543,3.075c-.845.516-.07,1.855.781,1.338,1.432-.874,2.823-1.814,4.179-2.8-.047,1.861-.088,3.727-.117,5.587a.772.772,0,0,0,1.544,0c.029-1.778.07-3.557.112-5.335,1.074,1.027,2.154,2.048,3.216,3.087.71.693,1.808-.4,1.092-1.092-1.285-1.256-2.588-2.494-3.891-3.733a62.706,62.706,0,0,0,5-4.419.772.772,0,0,0-1.092-1.092Z" transform="translate(-322.513 -189.014)" fill="#fff"/>
      <path id="Trazado_19048" data-name="Trazado 19048" d="M856.439,267.37q-7.976-.044-15.958-.082c2.23-2.242,4.39-4.548,6.45-6.931,1.3-1.5-.88-3.7-2.189-2.189q-3.187,3.689-6.656,7.166-.238-8.883-.651-17.754c-.094-1.984-3.187-2-3.093,0q.44,9.244.669,18.488-4.6-3.838-9.214-7.683c-1.52-1.268-3.715.91-2.189,2.189q4,3.337,8,6.673-7.157-.035-14.309-.076a1.547,1.547,0,0,0,0,3.093q7.765.044,15.524.082-3.847,3.469-7.935,6.614a1.6,1.6,0,0,0-.558,2.113,1.555,1.555,0,0,0,2.113.558q4.481-3.442,8.692-7.254.194,10.811.123,21.633a1.547,1.547,0,0,0,3.093,0q.079-10.617-.117-21.228l7.325,6.11c1.52,1.268,3.715-.91,2.189-2.189q-3.786-3.16-7.577-6.321,8.126.044,16.257.082a1.547,1.547,0,0,0,0-3.093Z" transform="translate(-337.11 -102.995)" fill="#fff"/>
      <path id="Trazado_19049" data-name="Trazado 19049" d="M924.476,235.131c.352-.311.7-.628,1.045-.945.411-.387.822-.775,1.227-1.174a.778.778,0,0,0-.522-1.315.614.614,0,0,0-.287.041.784.784,0,0,0-.141.07.6.6,0,0,0-.135.112q-.96.942-1.96,1.837l-.194.176c-.681.61-1.379,1.2-2.084,1.778h0c.065-2.224.135-4.443.223-6.667.041-1-1.508-.992-1.549,0q-.132,3.31-.223,6.614c-1.262-1.18-2.524-2.359-3.8-3.521a.775.775,0,0,0-1.1,1.092q2.219,2.016,4.4,4.073h0c-.692.516-1.4,1.009-2.107,1.5-.1.07-.205.135-.305.205q-1.048.7-2.125,1.367h0a.8.8,0,0,0,.317,1.45.714.714,0,0,0,.464-.117h0c.657-.4,1.3-.816,1.943-1.244l.37-.246c.628-.423,1.25-.857,1.86-1.3h0c-.047,1.861-.088,3.727-.117,5.587a.772.772,0,0,0,1.544,0c.029-1.778.07-3.557.111-5.335,1.074,1.027,2.154,2.048,3.216,3.087a.726.726,0,0,0,.569.223.764.764,0,0,0,.522-1.315c-1.285-1.256-2.588-2.494-3.891-3.733q1.3-1.03,2.553-2.13c.065-.053.123-.112.182-.164Z" transform="translate(-377.867 -95.646)" fill="#fff"/>
      <path id="Trazado_19050" data-name="Trazado 19050" d="M670.08,266.024c21.281,0,24.4-31.534,24.4-31.534s4.255,31.534,26.628,31.534c0,0-22.655,5.388-25.513,31.487-4.232-24.967-25.513-31.487-25.513-31.487Z" transform="translate(-276.912 -98.204)" fill="#fff" opacity="0.5"/>
      <path id="Trazado_19051" data-name="Trazado 19051" d="M768.04,249.814c7.084,0,8.123-10.494,8.123-10.494s1.414,10.494,8.862,10.494a11.888,11.888,0,0,0-8.492,10.482,13.284,13.284,0,0,0-8.492-10.482Z" transform="translate(-317.379 -100.199)" fill="#fff"/>
      <path id="Trazado_19052" data-name="Trazado 19052" d="M915.281,1021.229q-11.621-.062-23.247-.117c1-.992,1.99-2,2.97-3.017.317-.329.628-.657.939-.986.716-.757,1.432-1.514,2.136-2.283.3-.323.6-.646.892-.969.963-1.062,1.919-2.136,2.858-3.222a1.651,1.651,0,0,0-1.115-2.694,1.32,1.32,0,0,0-1.074.5c-.91,1.056-1.843,2.1-2.782,3.14-.376.417-.763.828-1.145,1.244-.54.587-1.086,1.174-1.637,1.755-.5.528-1,1.051-1.5,1.573-.422.434-.845.863-1.268,1.3-.581.587-1.156,1.18-1.743,1.755h0q-.326-12.853-.927-25.7c-.094-1.984-3.187-2-3.093,0q.634,13.293.951,26.6-6.823-5.687-13.646-11.38a1.639,1.639,0,0,0-.593-.323,1.853,1.853,0,0,0-.305-.059c-1.315-.106-2.536,1.526-1.291,2.565q6.083,5.071,12.161,10.142l-20.36-.106h-.851a1.547,1.547,0,0,0,0,3.093q3.715.018,7.424.041,7.659.036,15.324.076h0c-.886.816-1.784,1.614-2.688,2.412-.182.159-.364.323-.552.481-.786.687-1.573,1.367-2.371,2.036-.434.37-.875.728-1.315,1.092q-.9.748-1.8,1.479c-1.1.886-2.207,1.767-3.322,2.624a1.607,1.607,0,0,0-.558,2.119,1.7,1.7,0,0,0,1.256.775,1.287,1.287,0,0,0,.6-.07,1.17,1.17,0,0,0,.264-.147q1.734-1.329,3.439-2.711c.734-.593,1.461-1.2,2.189-1.8.346-.287.693-.569,1.039-.863q1.417-1.188,2.806-2.412l.276-.241q1.523-1.338,3.017-2.706.3,15.477.194,30.948a1.547,1.547,0,0,0,3.093,0q.106-15.177-.182-30.355,5.529,4.6,11.051,9.214a1.6,1.6,0,0,0,.9.376c1.315.106,2.535-1.526,1.291-2.565q-5.793-4.824-11.58-9.655l23.887.123h0a1.547,1.547,0,0,0,0-3.093Z" transform="translate(-355.414 -411.135)" fill="#fff"/>
      <path id="Trazado_19053" data-name="Trazado 19053" d="M838.65,1071.466a81.4,81.4,0,0,1-6.256,5.558q.141-4.824.323-9.649c.041-1-1.508-.992-1.544,0q-.194,4.8-.323,9.6c-1.861-1.743-3.727-3.486-5.617-5.2-.734-.669-1.831.423-1.092,1.092q3.125,2.844,6.2,5.746-3.125,2.351-6.462,4.4c-.845.516-.07,1.854.781,1.338,2.1-1.28,4.132-2.659,6.11-4.114-.065,2.717-.135,5.429-.176,8.146a.772.772,0,0,0,1.544,0c.041-2.629.106-5.259.17-7.888,1.614,1.538,3.234,3.075,4.83,4.631.71.693,1.808-.4,1.092-1.092q-2.729-2.667-5.511-5.282a83.484,83.484,0,0,0,7.019-6.18.772.772,0,0,0-1.092-1.092Z" transform="translate(-340.297 -441.956)" fill="#fff"/>
      <path id="Trazado_19054" data-name="Trazado 19054" d="M593.648,1044.413q26.833.141,53.672.276a1.547,1.547,0,0,0,0-3.093q-26.833-.141-53.672-.276a1.547,1.547,0,0,0,0,3.093Z" transform="translate(-244.721 -431.501)" fill="#fff"/>
      <path id="Trazado_19055" data-name="Trazado 19055" d="M639.739,1019.648a186.266,186.266,0,0,1-27.344,25.853,1.607,1.607,0,0,0-.557,2.119,1.561,1.561,0,0,0,2.119.557,189.737,189.737,0,0,0,27.966-26.334c1.3-1.5-.88-3.7-2.189-2.189h0Z" transform="translate(-252.768 -422.342)" fill="#fff"/>
      <path id="Trazado_19056" data-name="Trazado 19056" d="M609.766,1022.41l30.126,25.125c1.52,1.268,3.715-.91,2.189-2.189l-30.126-25.125c-1.52-1.268-3.715.91-2.189,2.189Z" transform="translate(-251.784 -422.627)" fill="#fff"/>
      <path id="Trazado_19057" data-name="Trazado 19057" d="M742.9,1054.869c12.3,0,14.109-18.229,14.109-18.229s2.459,18.229,15.395,18.229a20.654,20.654,0,0,0-14.749,18.206,23.065,23.065,0,0,0-14.749-18.206Z" transform="translate(-306.994 -429.568)" fill="#fff"/>
      <path id="Trazado_19058" data-name="Trazado 19058" d="M703.756,1080.806c4.789,0,5.493-7.1,5.493-7.1s.957,7.1,5.992,7.1a8.051,8.051,0,0,0-5.746,7.09,8.978,8.978,0,0,0-5.746-7.09Z" transform="translate(-290.821 -444.882)" fill="#fff"/>
      <path id="Trazado_19059" data-name="Trazado 19059" d="M781.3,795.209q-11.621-.062-23.247-.117,5.106-5.062,9.8-10.482c1.3-1.5-.88-3.7-2.189-2.189q-4.807,5.564-10.077,10.77-.326-12.853-.927-25.7c-.094-1.984-3.187-2-3.093,0q.634,13.293.951,26.6-6.823-5.687-13.646-11.38c-1.52-1.268-3.715.91-2.189,2.189q6.083,5.071,12.161,10.142-10.608-.053-21.217-.112a1.547,1.547,0,0,0,0,3.093q11.374.062,22.743.117c-3.88,3.551-7.9,6.949-12.043,10.13a1.607,1.607,0,0,0-.558,2.119,1.561,1.561,0,0,0,2.119.558c4.4-3.375,8.657-6.967,12.765-10.729q.3,15.477.194,30.948a1.547,1.547,0,0,0,3.093,0q.105-15.177-.182-30.355,5.529,4.6,11.051,9.214c1.52,1.268,3.715-.91,2.189-2.189q-5.793-4.824-11.58-9.654l23.887.123a1.547,1.547,0,0,0,0-3.093Z" transform="translate(-300.068 -317.767)" fill="#fff"/>
      <path id="Trazado_19060" data-name="Trazado 19060" d="M722.459,945.43l-15.958-.082c2.23-2.242,4.39-4.548,6.45-6.931,1.3-1.5-.88-3.7-2.189-2.189q-3.187,3.689-6.656,7.166-.238-8.883-.651-17.754c-.094-1.984-3.187-2-3.093,0q.44,9.244.669,18.487-4.6-3.838-9.214-7.682c-1.52-1.268-3.715.91-2.189,2.189q4,3.337,8,6.673-7.157-.035-14.309-.076a1.547,1.547,0,0,0,0,3.093l15.524.082q-3.847,3.469-7.935,6.614a1.6,1.6,0,0,0-.557,2.113,1.561,1.561,0,0,0,2.119.558q4.481-3.442,8.692-7.254.194,10.811.123,21.633a1.547,1.547,0,0,0,3.093,0q.079-10.617-.117-21.228l7.325,6.11c1.52,1.268,3.715-.91,2.189-2.189q-3.786-3.161-7.577-6.321,8.125.044,16.257.082a1.547,1.547,0,0,0,0-3.093Z" transform="translate(-281.764 -383.098)" fill="#fff"/>
      <path id="Trazado_19061" data-name="Trazado 19061" d="M804.06,944.074c21.281,0,24.4-31.534,24.4-31.534s4.255,31.534,26.628,31.534c0,0-22.655,5.388-25.513,31.488-4.232-24.967-25.513-31.488-25.513-31.488Z" transform="translate(-332.259 -378.303)" fill="#fff" opacity="0.5"/>
      <path id="Trazado_19062" data-name="Trazado 19062" d="M876.88,828.849c12.3,0,14.109-18.229,14.109-18.229s2.459,18.229,15.394,18.229a20.654,20.654,0,0,0-14.749,18.206,23.065,23.065,0,0,0-14.749-18.206Z" transform="translate(-362.34 -336.2)" fill="#fff"/>
      <path id="Trazado_19063" data-name="Trazado 19063" d="M902.02,927.874c7.084,0,8.123-10.494,8.123-10.494s1.414,10.494,8.862,10.494a11.888,11.888,0,0,0-8.493,10.482A13.284,13.284,0,0,0,902.02,927.874Z" transform="translate(-372.725 -380.302)" fill="#fff"/>
      <path id="Trazado_19064" data-name="Trazado 19064" d="M837.736,854.786c4.789,0,5.493-7.1,5.493-7.1s.957,7.1,5.992,7.1a8.051,8.051,0,0,0-5.746,7.09,8.979,8.979,0,0,0-5.746-7.09Z" transform="translate(-346.168 -351.514)" fill="#fff"/>
      <path id="Trazado_19065" data-name="Trazado 19065" d="M704.67,845.446A81.382,81.382,0,0,1,698.413,851q.141-4.824.323-9.649c.041-1-1.508-.992-1.544,0q-.194,4.8-.323,9.6c-1.86-1.743-3.727-3.486-5.617-5.2-.734-.669-1.831.423-1.092,1.092q3.125,2.843,6.2,5.746-3.125,2.351-6.462,4.4c-.845.516-.07,1.855.781,1.338,2.1-1.28,4.132-2.659,6.11-4.114-.065,2.717-.135,5.429-.176,8.146a.772.772,0,0,0,1.544,0c.041-2.629.106-5.259.17-7.888,1.614,1.538,3.234,3.075,4.83,4.631.71.693,1.808-.4,1.092-1.092q-2.729-2.668-5.511-5.282a83.494,83.494,0,0,0,7.019-6.18.772.772,0,0,0-1.092-1.092Z" transform="translate(-284.95 -348.589)" fill="#fff"/>
      <path id="Trazado_19066" data-name="Trazado 19066" d="M791.662,909.975q-2.034,2.007-4.243,3.8c.065-2.224.135-4.443.223-6.667.041-1-1.508-.992-1.549,0-.088,2.207-.159,4.414-.223,6.615-1.262-1.18-2.524-2.359-3.8-3.521-.734-.669-1.831.422-1.092,1.092q2.219,2.016,4.4,4.073-2.2,1.637-4.543,3.075c-.845.516-.07,1.855.781,1.338,1.432-.875,2.823-1.814,4.179-2.8-.047,1.86-.088,3.727-.117,5.587a.772.772,0,0,0,1.544,0c.029-1.778.07-3.557.112-5.335,1.074,1.027,2.154,2.048,3.216,3.087.71.693,1.808-.4,1.092-1.092-1.285-1.256-2.588-2.494-3.891-3.733a62.669,62.669,0,0,0,5-4.419.772.772,0,0,0-1.092-1.092Z" transform="translate(-322.513 -375.749)" fill="#fff"/>
      <path id="Trazado_19067" data-name="Trazado 19067" d="M856.439,719.41q-7.976-.044-15.958-.082c2.23-2.242,4.39-4.549,6.45-6.931,1.3-1.5-.88-3.7-2.189-2.189q-3.187,3.689-6.656,7.166-.238-8.883-.651-17.754c-.094-1.984-3.187-2-3.093,0q.44,9.244.669,18.487-4.6-3.838-9.214-7.683c-1.52-1.268-3.715.91-2.189,2.189q4,3.337,8,6.673-7.157-.035-14.309-.076a1.547,1.547,0,0,0,0,3.093l15.524.082q-3.847,3.469-7.935,6.614a1.6,1.6,0,0,0-.558,2.113,1.555,1.555,0,0,0,2.113.558q4.481-3.442,8.692-7.254.194,10.811.123,21.633a1.547,1.547,0,0,0,3.093,0q.079-10.617-.117-21.228l7.325,6.11c1.52,1.268,3.715-.91,2.189-2.189q-3.786-3.16-7.577-6.321,8.126.044,16.257.082a1.547,1.547,0,0,0,0-3.093Z" transform="translate(-337.11 -289.73)" fill="#fff"/>
      <path id="Trazado_19068" data-name="Trazado 19068" d="M924.294,687.331c.065-.053.123-.112.188-.17.352-.311.7-.628,1.039-.945.411-.387.822-.775,1.227-1.174a.778.778,0,0,0-.522-1.315.613.613,0,0,0-.287.041.79.79,0,0,0-.141.07.6.6,0,0,0-.135.112q-.96.942-1.96,1.837l-.194.176c-.681.61-1.379,1.2-2.084,1.778h0c.065-2.224.135-4.443.223-6.667.041-1-1.508-.992-1.549,0q-.132,3.31-.223,6.614c-1.262-1.18-2.524-2.359-3.8-3.521a.775.775,0,0,0-1.1,1.092q2.219,2.016,4.4,4.073h0c-.692.517-1.4,1.009-2.107,1.5-.1.07-.205.135-.305.206-.7.469-1.409.927-2.125,1.367h0a.8.8,0,0,0,.317,1.45.714.714,0,0,0,.464-.117h0c.657-.4,1.3-.816,1.943-1.244l.37-.247c.628-.423,1.25-.857,1.86-1.3h0c-.047,1.861-.088,3.727-.117,5.587a.772.772,0,0,0,1.544,0c.029-1.778.07-3.557.111-5.335,1.074,1.027,2.154,2.048,3.216,3.087a.726.726,0,0,0,.569.223.792.792,0,0,0,.634-1.18.8.8,0,0,0-.111-.135c-1.285-1.256-2.588-2.494-3.891-3.733h0c.869-.687,1.714-1.4,2.547-2.131Z" transform="translate(-377.867 -282.378)" fill="#fff"/>
      <path id="Trazado_19069" data-name="Trazado 19069" d="M670.08,718.054c21.281,0,24.4-31.534,24.4-31.534s4.255,31.534,26.628,31.534c0,0-22.655,5.388-25.513,31.487-4.232-24.967-25.513-31.487-25.513-31.487Z" transform="translate(-276.912 -284.935)" fill="#fff"/>
      <path id="Trazado_19070" data-name="Trazado 19070" d="M768.04,701.854c7.084,0,8.123-10.494,8.123-10.494s1.414,10.494,8.862,10.494a11.888,11.888,0,0,0-8.492,10.482,13.284,13.284,0,0,0-8.492-10.482Z" transform="translate(-317.379 -286.935)" fill="#fff"/>
      <path id="Trazado_19071" data-name="Trazado 19071" d="M647.325,117.145l-3.868-.018q-9.684-.053-19.374-.1,1.506-1.488,2.976-3.023c.317-.329.628-.657.939-.986.716-.757,1.432-1.514,2.136-2.283.3-.323.6-.646.892-.974.963-1.062,1.919-2.13,2.852-3.216v-.006a1.848,1.848,0,0,0,.205-.288,1.537,1.537,0,0,0,.018-1.461,1.6,1.6,0,0,0-.153-.252,1.8,1.8,0,0,0-.4-.411,1.364,1.364,0,0,0-1.051-.264,1.415,1.415,0,0,0-.8.487c-.91,1.056-1.843,2.1-2.782,3.14-.376.417-.763.828-1.145,1.244-.54.587-1.086,1.174-1.637,1.755-.5.528-1,1.051-1.5,1.573-.422.434-.845.863-1.268,1.3-.581.587-1.156,1.18-1.743,1.761h0q-.326-12.853-.927-25.7c-.094-1.984-3.187-2-3.093,0q.634,13.293.951,26.6-6.823-5.687-13.646-11.38a1.6,1.6,0,0,0-.9-.376,1.675,1.675,0,0,0-.593.065,1.444,1.444,0,0,0-.7,2.5q6.083,5.071,12.161,10.142-10.608-.053-21.217-.112h0a1.547,1.547,0,0,0,0,3.093q11.374.062,22.743.117h0q-1.329,1.224-2.688,2.412c-.182.158-.364.323-.546.481-.786.687-1.573,1.367-2.371,2.042-.434.364-.874.728-1.309,1.092-.6.5-1.2,1-1.8,1.485-1.1.886-2.207,1.767-3.322,2.623a1.607,1.607,0,0,0-.558,2.119,1.7,1.7,0,0,0,1.256.775,1.328,1.328,0,0,0,.305,0,1.149,1.149,0,0,0,.558-.217.084.084,0,0,0,.018-.012q1.726-1.329,3.422-2.694c.734-.593,1.461-1.2,2.189-1.8.346-.288.693-.569,1.039-.863q1.417-1.188,2.805-2.412l.276-.241c1.015-.892,2.019-1.79,3.017-2.706h0q.3,15.477.194,30.947a1.547,1.547,0,0,0,3.093,0q.106-15.177-.182-30.355,5.529,4.6,11.051,9.214a1.6,1.6,0,0,0,.9.376c1.315.106,2.535-1.526,1.291-2.565q-5.793-4.824-11.58-9.655,9.121.044,18.235.094c1.884.012,3.768.018,5.652.029h0a1.547,1.547,0,0,0,0-3.093Z" transform="translate(-244.725 -37.66)" fill="#fff"/>
      <path id="Trazado_19072" data-name="Trazado 19072" d="M570.69,167.386a81.371,81.371,0,0,1-6.256,5.558q.141-4.824.323-9.649c.041-1-1.508-.992-1.544,0q-.194,4.8-.323,9.6c-1.86-1.743-3.727-3.486-5.617-5.2-.734-.669-1.831.423-1.092,1.092q3.125,2.844,6.2,5.746-3.125,2.351-6.462,4.4c-.845.516-.07,1.855.781,1.338,2.1-1.279,4.132-2.659,6.11-4.114-.065,2.717-.135,5.429-.176,8.146a.775.775,0,0,0,1.549,0c.041-2.629.106-5.259.17-7.888,1.614,1.538,3.234,3.075,4.83,4.631.71.693,1.808-.4,1.092-1.092q-2.729-2.667-5.511-5.282a83.516,83.516,0,0,0,7.019-6.18A.772.772,0,0,0,570.7,167.4Z" transform="translate(-229.604 -68.485)" fill="#fff"/>
      <path id="Trazado_19073" data-name="Trazado 19073" d="M474.94,150.789c12.3,0,14.109-18.229,14.109-18.229s2.459,18.229,15.395,18.229A20.654,20.654,0,0,0,489.695,169a23.065,23.065,0,0,0-14.749-18.206Z" transform="translate(-196.301 -56.097)" fill="#fff"/>
      <path id="Trazado_19074" data-name="Trazado 19074" d="M435.8,176.726c4.789,0,5.493-7.1,5.493-7.1s.957,7.1,5.992,7.1a8.051,8.051,0,0,0-5.746,7.09,8.979,8.979,0,0,0-5.746-7.09Z" transform="translate(-180.128 -71.411)" fill="#fff"/>
      <path id="Trazado_19075" data-name="Trazado 19075" d="M454.5,41.35l-15.958-.082c2.23-2.242,4.39-4.549,6.45-6.931,1.3-1.5-.88-3.7-2.189-2.189q-3.187,3.689-6.656,7.166-.238-8.883-.651-17.754c-.094-1.984-3.187-2-3.093,0q.44,9.244.669,18.488-4.6-3.838-9.214-7.683c-1.52-1.268-3.715.91-2.189,2.189q4,3.337,8,6.673-7.157-.035-14.309-.076a1.547,1.547,0,0,0,0,3.093q7.765.044,15.524.082-3.847,3.469-7.935,6.614a1.6,1.6,0,0,0-.558,2.113,1.561,1.561,0,0,0,2.119.558q4.481-3.442,8.692-7.254.194,10.811.123,21.633a1.547,1.547,0,0,0,3.093,0q.079-10.617-.117-21.228l7.325,6.11c1.52,1.268,3.715-.91,2.189-2.189q-3.786-3.16-7.577-6.321,8.126.044,16.257.082a1.547,1.547,0,0,0,0-3.093Z" transform="translate(-171.071 -9.627)" fill="#fff"/>
      <path id="Trazado_19076" data-name="Trazado 19076" d="M536.1,40C557.381,40,560.5,8.47,560.5,8.47S564.759,40,587.131,40c0,0-22.654,5.388-25.513,31.487C557.387,46.525,536.106,40,536.106,40Z" transform="translate(-221.566 -4.836)" fill="#fff"/>
      <path id="Trazado_19077" data-name="Trazado 19077" d="M634.06,23.794c7.084,0,8.123-10.494,8.123-10.494s1.414,10.494,8.862,10.494a11.888,11.888,0,0,0-8.493,10.482A13.284,13.284,0,0,0,634.06,23.794Z" transform="translate(-262.033 -6.831)" fill="#fff"/>
      <path id="Trazado_19078" data-name="Trazado 19078" d="M523.7,5.895q-2.034,2.007-4.243,3.8c.065-2.224.135-4.443.223-6.667.041-1-1.508-.992-1.549,0-.088,2.207-.158,4.414-.223,6.614-1.262-1.18-2.524-2.359-3.8-3.521-.734-.669-1.831.423-1.092,1.092q2.218,2.016,4.4,4.073-2.2,1.637-4.543,3.075c-.845.516-.07,1.855.781,1.338,1.432-.874,2.823-1.814,4.179-2.8-.047,1.86-.088,3.727-.117,5.587a.772.772,0,0,0,1.544,0c.029-1.778.07-3.557.112-5.335,1.074,1.027,2.154,2.048,3.216,3.087.71.693,1.808-.4,1.092-1.092-1.285-1.256-2.588-2.494-3.891-3.733a62.719,62.719,0,0,0,5-4.419A.772.772,0,0,0,523.7,5.9Z" transform="translate(-211.82 -2.279)" fill="#fff"/>
      <path id="Trazado_19079" data-name="Trazado 19079" d="M647.325,569.193l-3.868-.018q-9.684-.053-19.374-.1c1-.992,2-2,2.976-3.017.317-.329.628-.657.939-.986q1.083-1.136,2.136-2.283c.3-.323.6-.646.892-.968.963-1.062,1.919-2.13,2.852-3.216V558.6a1.845,1.845,0,0,0,.205-.288,1.537,1.537,0,0,0,.018-1.461,1.6,1.6,0,0,0-.153-.252,1.792,1.792,0,0,0-.4-.411,1.365,1.365,0,0,0-1.051-.264,1.416,1.416,0,0,0-.8.487c-.91,1.056-1.843,2.1-2.782,3.14-.376.417-.763.828-1.145,1.244-.54.587-1.086,1.174-1.637,1.755-.5.528-1,1.051-1.5,1.573-.422.434-.845.863-1.268,1.3-.581.587-1.156,1.18-1.743,1.761h0q-.326-12.853-.927-25.7c-.094-1.984-3.187-2-3.093,0q.634,13.293.951,26.6Q611.726,562.4,604.9,556.7a1.6,1.6,0,0,0-.9-.376,1.673,1.673,0,0,0-.593.065,1.444,1.444,0,0,0-.7,2.5q6.083,5.071,12.161,10.142-10.608-.053-21.217-.111h0a1.547,1.547,0,0,0,0,3.093q11.374.062,22.743.117h0q-1.329,1.224-2.688,2.412c-.182.158-.364.323-.546.481-.786.687-1.573,1.367-2.371,2.042-.434.364-.874.728-1.309,1.092-.6.5-1.2,1-1.8,1.485-1.1.886-2.207,1.767-3.322,2.623a1.607,1.607,0,0,0-.558,2.119,1.7,1.7,0,0,0,1.256.775,1.323,1.323,0,0,0,.305,0,1.148,1.148,0,0,0,.558-.217.086.086,0,0,0,.018-.012q1.726-1.329,3.422-2.694c.74-.593,1.461-1.2,2.2-1.8.346-.288.693-.569,1.039-.863.945-.792,1.878-1.6,2.805-2.412.088-.082.182-.158.27-.235q1.523-1.338,3.017-2.706h0q.3,15.477.194,30.948a1.547,1.547,0,0,0,3.093,0q.106-15.177-.182-30.355,5.529,4.6,11.051,9.214a1.6,1.6,0,0,0,.9.376c1.315.106,2.535-1.526,1.291-2.565q-5.793-4.824-11.58-9.655,9.121.044,18.235.094c1.884.012,3.768.018,5.652.029h0a1.547,1.547,0,0,0,0-3.093Z" transform="translate(-244.725 -224.403)" fill="#fff"/>
      <path id="Trazado_19080" data-name="Trazado 19080" d="M570.69,619.426a81.4,81.4,0,0,1-6.256,5.558q.141-4.824.323-9.649c.041-1-1.508-.992-1.544,0q-.194,4.8-.323,9.6c-1.86-1.743-3.727-3.486-5.617-5.2-.734-.669-1.831.423-1.092,1.092q3.125,2.844,6.2,5.746-3.125,2.351-6.462,4.4c-.845.517-.07,1.855.781,1.338,2.1-1.279,4.132-2.659,6.11-4.114-.065,2.717-.135,5.429-.176,8.146a.775.775,0,0,0,1.549,0c.041-2.629.106-5.259.17-7.888,1.614,1.538,3.234,3.075,4.83,4.631.71.693,1.808-.4,1.092-1.092q-2.729-2.668-5.511-5.282a83.524,83.524,0,0,0,7.019-6.18.772.772,0,0,0-1.092-1.092Z" transform="translate(-229.604 -255.221)" fill="#fff"/>
      <path id="Trazado_19081" data-name="Trazado 19081" d="M474.94,602.829c12.3,0,14.109-18.229,14.109-18.229s2.459,18.229,15.395,18.229a20.654,20.654,0,0,0-14.749,18.206,23.065,23.065,0,0,0-14.749-18.206Z" transform="translate(-196.301 -242.833)" fill="#fff"/>
      <path id="Trazado_19082" data-name="Trazado 19082" d="M435.8,628.766c4.789,0,5.493-7.1,5.493-7.1s.957,7.1,5.992,7.1a8.051,8.051,0,0,0-5.746,7.09,8.979,8.979,0,0,0-5.746-7.09Z" transform="translate(-180.128 -258.146)" fill="#fff"/>
      <path id="Trazado_19083" data-name="Trazado 19083" d="M513.341,343.169q-11.621-.062-23.247-.117,5.106-5.062,9.8-10.482c1.3-1.5-.88-3.7-2.189-2.189q-4.807,5.564-10.077,10.77-.326-12.853-.927-25.7c-.094-1.984-3.187-2-3.093,0q.634,13.293.951,26.6-6.823-5.687-13.646-11.38c-1.52-1.268-3.715.91-2.189,2.189q6.083,5.071,12.161,10.142-10.608-.053-21.217-.112a1.547,1.547,0,0,0,0,3.093q11.374.062,22.743.117c-3.879,3.551-7.9,6.949-12.043,10.13a1.607,1.607,0,0,0-.558,2.119,1.561,1.561,0,0,0,2.119.558c4.4-3.375,8.657-6.967,12.765-10.729q.3,15.477.194,30.948a1.547,1.547,0,0,0,3.093,0q.106-15.177-.182-30.355,5.529,4.6,11.051,9.214c1.52,1.268,3.715-.91,2.189-2.189q-5.793-4.824-11.58-9.655l23.887.123a1.547,1.547,0,0,0,0-3.093Z" transform="translate(-189.375 -131.032)" fill="#fff"/>
      <path id="Trazado_19084" data-name="Trazado 19084" d="M454.5,493.39q-7.976-.044-15.958-.082c2.23-2.242,4.39-4.548,6.45-6.931,1.3-1.5-.88-3.7-2.189-2.189q-3.187,3.689-6.656,7.166-.238-8.883-.651-17.754c-.094-1.984-3.187-2-3.093,0q.44,9.244.669,18.487-4.6-3.838-9.214-7.683c-1.52-1.268-3.715.91-2.189,2.189q4,3.337,8,6.673-7.157-.035-14.309-.076a1.547,1.547,0,0,0,0,3.093q7.765.044,15.524.082-3.847,3.469-7.935,6.614a1.6,1.6,0,0,0-.558,2.113,1.561,1.561,0,0,0,2.119.558q4.481-3.442,8.692-7.254.194,10.811.123,21.633a1.547,1.547,0,0,0,3.093,0q.079-10.617-.117-21.228l7.325,6.11c1.52,1.268,3.715-.91,2.189-2.189q-3.786-3.16-7.577-6.321,8.126.044,16.257.082a1.547,1.547,0,0,0,0-3.093Z" transform="translate(-171.071 -196.362)" fill="#fff"/>
      <path id="Trazado_19085" data-name="Trazado 19085" d="M536.1,492.034c21.281,0,24.4-31.534,24.4-31.534s4.255,31.534,26.628,31.534c0,0-22.654,5.388-25.513,31.487-4.232-24.967-25.513-31.487-25.513-31.487Z" transform="translate(-221.566 -191.567)" fill="#fff" opacity="0.5"/>
      <path id="Trazado_19086" data-name="Trazado 19086" d="M607.59,380.8c12.3,0,14.109-18.229,14.109-18.229s2.459,18.229,15.395,18.229a20.654,20.654,0,0,0-14.749,18.206A23.065,23.065,0,0,0,607.6,380.8Z" transform="translate(-251.098 -151.113)" fill="#fff"/>
      <path id="Trazado_19087" data-name="Trazado 19087" d="M634.06,475.834c7.084,0,8.123-10.494,8.123-10.494s1.414,10.494,8.862,10.494a11.888,11.888,0,0,0-8.493,10.482,13.284,13.284,0,0,0-8.492-10.482Z" transform="translate(-262.033 -193.567)" fill="#fff"/>
      <path id="Trazado_19088" data-name="Trazado 19088" d="M569.776,402.746c4.789,0,5.493-7.1,5.493-7.1s.957,7.1,5.992,7.1a8.051,8.051,0,0,0-5.746,7.09,8.979,8.979,0,0,0-5.746-7.09Z" transform="translate(-235.475 -164.778)" fill="#fff"/>
      <path id="Trazado_19089" data-name="Trazado 19089" d="M436.71,393.406a81.359,81.359,0,0,1-6.256,5.558q.141-4.824.323-9.649c.041-1-1.508-.992-1.544,0q-.194,4.8-.323,9.6c-1.86-1.743-3.727-3.486-5.617-5.2-.734-.669-1.831.423-1.092,1.092q3.125,2.844,6.2,5.746-3.125,2.351-6.462,4.4c-.845.516-.07,1.855.781,1.338,2.1-1.279,4.132-2.659,6.11-4.114-.065,2.717-.135,5.429-.17,8.146a.772.772,0,0,0,1.544,0c.041-2.629.106-5.259.17-7.888,1.614,1.538,3.234,3.075,4.83,4.631.71.693,1.808-.4,1.092-1.092q-2.729-2.667-5.511-5.282a83.487,83.487,0,0,0,7.019-6.18.772.772,0,0,0-1.092-1.092Z" transform="translate(-174.257 -161.853)" fill="#fff"/>
      <path id="Trazado_19090" data-name="Trazado 19090" d="M523.7,457.935q-2.034,2.007-4.243,3.8c.065-2.224.135-4.443.223-6.667.041-1-1.508-.992-1.549,0-.088,2.207-.158,4.413-.223,6.614-1.262-1.18-2.524-2.359-3.8-3.521-.734-.669-1.831.423-1.092,1.092q2.218,2.016,4.4,4.073-2.2,1.638-4.543,3.075c-.845.516-.07,1.855.781,1.338,1.432-.874,2.823-1.814,4.179-2.8-.047,1.861-.088,3.727-.117,5.587a.772.772,0,0,0,1.544,0c.029-1.778.07-3.557.112-5.335,1.074,1.027,2.154,2.048,3.216,3.087.71.693,1.808-.4,1.092-1.092-1.285-1.256-2.588-2.494-3.891-3.733a62.716,62.716,0,0,0,5-4.419.772.772,0,0,0-1.092-1.092Z" transform="translate(-211.82 -189.014)" fill="#fff"/>
      <path id="Trazado_19091" data-name="Trazado 19091" d="M588.479,267.37q-7.976-.044-15.958-.082c2.23-2.242,4.39-4.548,6.45-6.931,1.3-1.5-.88-3.7-2.189-2.189q-3.187,3.689-6.656,7.166-.238-8.883-.651-17.754c-.094-1.984-3.187-2-3.093,0q.44,9.244.669,18.488-4.6-3.838-9.214-7.683c-1.52-1.268-3.715.91-2.189,2.189q4,3.337,8,6.673-7.157-.035-14.309-.076a1.547,1.547,0,0,0,0,3.093q7.765.044,15.524.082-3.847,3.469-7.935,6.614a1.6,1.6,0,0,0-.558,2.113,1.561,1.561,0,0,0,2.119.558q4.481-3.442,8.692-7.254.194,10.811.123,21.633a1.547,1.547,0,0,0,3.093,0q.079-10.617-.117-21.228l7.325,6.11c1.52,1.268,3.715-.91,2.189-2.189q-3.786-3.16-7.577-6.321,8.126.044,16.257.082a1.547,1.547,0,0,0,0-3.093Z" transform="translate(-226.417 -102.995)" fill="#fff"/>
      <path id="Trazado_19092" data-name="Trazado 19092" d="M658.246,231.688a.7.7,0,0,0-.569.223q-.96.942-1.96,1.837l-.194.176q-1.021.916-2.089,1.778c.065-2.224.135-4.443.223-6.667.041-1-1.508-.992-1.549,0-.088,2.207-.159,4.414-.223,6.614-1.262-1.18-2.524-2.359-3.8-3.521a.775.775,0,0,0-1.1,1.092q2.218,2.016,4.4,4.073h0c-.693.516-1.391,1.009-2.107,1.5-.1.07-.205.135-.305.205-.7.47-1.4.927-2.125,1.368h-.006a.8.8,0,0,0,.317,1.45.714.714,0,0,0,.464-.117h.006c.657-.4,1.3-.816,1.937-1.238.123-.082.246-.164.37-.252.628-.423,1.25-.857,1.861-1.3h0q-.07,2.791-.117,5.587a.775.775,0,0,0,1.549,0c.029-1.778.07-3.557.112-5.335,1.074,1.027,2.154,2.048,3.216,3.087a.726.726,0,0,0,.569.223.779.779,0,0,0,.522-1.315c-1.285-1.256-2.588-2.494-3.891-3.733h0q1.3-1.03,2.547-2.13c.07-.059.135-.123.206-.188.346-.305.687-.616,1.021-.927.411-.387.822-.775,1.227-1.174a.591.591,0,0,0,.111-.135.793.793,0,0,0-.634-1.18Z" transform="translate(-267.162 -95.642)" fill="#fff"/>
      <path id="Trazado_19093" data-name="Trazado 19093" d="M402.12,266.024c21.281,0,24.4-31.534,24.4-31.534s4.255,31.534,26.628,31.534c0,0-22.655,5.388-25.513,31.487-4.232-24.967-25.513-31.487-25.513-31.487Z" transform="translate(-166.219 -98.204)" fill="#fff"/>
      <path id="Trazado_19094" data-name="Trazado 19094" d="M500.08,249.814c7.084,0,8.123-10.494,8.123-10.494s1.414,10.494,8.862,10.494a11.888,11.888,0,0,0-8.492,10.482A13.284,13.284,0,0,0,500.08,249.814Z" transform="translate(-206.686 -100.199)" fill="#fff"/>
      <path id="Trazado_19095" data-name="Trazado 19095" d="M647.321,1021.229q-11.621-.062-23.247-.117,5.106-5.062,9.8-10.482c1.3-1.5-.88-3.7-2.189-2.189q-4.807,5.564-10.077,10.77-.326-12.853-.927-25.7c-.094-1.984-3.187-2-3.093,0q.634,13.293.951,26.6-6.823-5.687-13.646-11.38c-1.52-1.268-3.715.91-2.189,2.189q6.083,5.071,12.161,10.142-10.608-.053-21.217-.111a1.547,1.547,0,0,0,0,3.093q11.374.062,22.743.117c-3.879,3.551-7.9,6.949-12.043,10.13a1.607,1.607,0,0,0-.557,2.119,1.555,1.555,0,0,0,2.113.557c4.4-3.375,8.657-6.967,12.765-10.729q.3,15.477.194,30.948a1.547,1.547,0,0,0,3.093,0q.106-15.177-.182-30.355,5.529,4.6,11.051,9.214c1.52,1.268,3.715-.91,2.189-2.189q-5.793-4.824-11.58-9.655l23.887.123a1.547,1.547,0,0,0,0-3.093Z" transform="translate(-244.721 -411.135)" fill="#fff"/>
      <path id="Trazado_19096" data-name="Trazado 19096" d="M570.69,1071.466a81.4,81.4,0,0,1-6.256,5.558q.141-4.824.323-9.649c.041-1-1.508-.992-1.544,0q-.194,4.8-.323,9.6c-1.86-1.743-3.727-3.486-5.617-5.2-.734-.669-1.831.423-1.092,1.092q3.125,2.844,6.2,5.746-3.125,2.351-6.462,4.4c-.845.516-.07,1.854.781,1.338,2.1-1.28,4.132-2.659,6.11-4.114-.065,2.717-.135,5.429-.176,8.146a.775.775,0,0,0,1.549,0c.041-2.629.106-5.259.17-7.888,1.614,1.538,3.234,3.075,4.83,4.631.71.693,1.808-.4,1.092-1.092q-2.729-2.667-5.511-5.282a83.5,83.5,0,0,0,7.019-6.18.772.772,0,0,0-1.092-1.092Z" transform="translate(-229.604 -441.956)" fill="#fff"/>
      <path id="Trazado_19097" data-name="Trazado 19097" d="M474.94,1054.869c12.3,0,14.109-18.229,14.109-18.229s2.459,18.229,15.395,18.229a20.654,20.654,0,0,0-14.749,18.206,23.065,23.065,0,0,0-14.749-18.206Z" transform="translate(-196.301 -429.568)" fill="#fff"/>
      <path id="Trazado_19098" data-name="Trazado 19098" d="M435.8,1080.806c4.789,0,5.493-7.1,5.493-7.1s.957,7.1,5.992,7.1a8.051,8.051,0,0,0-5.746,7.09,8.978,8.978,0,0,0-5.746-7.09Z" transform="translate(-180.128 -444.882)" fill="#fff"/>
      <path id="Trazado_19099" data-name="Trazado 19099" d="M513.341,795.209q-11.621-.062-23.247-.117,5.106-5.062,9.8-10.482c1.3-1.5-.88-3.7-2.189-2.189q-4.807,5.564-10.077,10.77-.326-12.853-.927-25.7c-.094-1.984-3.187-2-3.093,0q.634,13.293.951,26.6-6.823-5.687-13.646-11.38c-1.52-1.268-3.715.91-2.189,2.189q6.083,5.071,12.161,10.142-10.608-.053-21.217-.112a1.547,1.547,0,0,0,0,3.093q11.374.062,22.743.117c-3.879,3.551-7.9,6.949-12.043,10.13a1.607,1.607,0,0,0-.558,2.119,1.561,1.561,0,0,0,2.119.558c4.4-3.375,8.657-6.967,12.765-10.729q.3,15.477.194,30.948a1.547,1.547,0,0,0,3.093,0q.106-15.177-.182-30.355,5.529,4.6,11.051,9.214c1.52,1.268,3.715-.91,2.189-2.189q-5.793-4.824-11.58-9.654l23.887.123a1.547,1.547,0,0,0,0-3.093Z" transform="translate(-189.375 -317.767)" fill="#fff"/>
      <path id="Trazado_19100" data-name="Trazado 19100" d="M454.5,945.43l-15.958-.082c2.23-2.242,4.39-4.548,6.45-6.931,1.3-1.5-.88-3.7-2.189-2.189q-3.187,3.689-6.656,7.166-.238-8.883-.651-17.754c-.094-1.984-3.187-2-3.093,0q.44,9.244.669,18.487-4.6-3.838-9.214-7.682c-1.52-1.268-3.715.91-2.189,2.189q4,3.337,8,6.673-7.157-.035-14.309-.076a1.547,1.547,0,0,0,0,3.093q7.765.044,15.524.082-3.847,3.469-7.935,6.614a1.6,1.6,0,0,0-.558,2.113,1.561,1.561,0,0,0,2.119.558q4.481-3.442,8.692-7.254.194,10.811.123,21.633a1.547,1.547,0,0,0,3.093,0q.079-10.617-.117-21.228l7.325,6.11c1.52,1.268,3.715-.91,2.189-2.189q-3.786-3.161-7.577-6.321,8.126.044,16.257.082a1.547,1.547,0,0,0,0-3.093Z" transform="translate(-171.071 -383.098)" fill="#fff"/>
      <path id="Trazado_19101" data-name="Trazado 19101" d="M536.1,944.074c21.281,0,24.4-31.534,24.4-31.534s4.255,31.534,26.628,31.534c0,0-22.654,5.388-25.513,31.488-4.232-24.967-25.513-31.488-25.513-31.488Z" transform="translate(-221.566 -378.303)" fill="#fff"/>
      <path id="Trazado_19102" data-name="Trazado 19102" d="M608.92,828.849c12.3,0,14.109-18.229,14.109-18.229s2.459,18.229,15.395,18.229a20.654,20.654,0,0,0-14.749,18.206,23.065,23.065,0,0,0-14.749-18.206Z" transform="translate(-251.647 -336.2)" fill="#fff"/>
      <path id="Trazado_19103" data-name="Trazado 19103" d="M634.06,927.874c7.084,0,8.123-10.494,8.123-10.494s1.414,10.494,8.862,10.494a11.888,11.888,0,0,0-8.493,10.482A13.284,13.284,0,0,0,634.06,927.874Z" transform="translate(-262.033 -380.302)" fill="#fff"/>
      <path id="Trazado_19104" data-name="Trazado 19104" d="M569.776,854.786c4.789,0,5.493-7.1,5.493-7.1s.957,7.1,5.992,7.1a8.051,8.051,0,0,0-5.746,7.09,8.979,8.979,0,0,0-5.746-7.09Z" transform="translate(-235.475 -351.514)" fill="#fff"/>
      <path id="Trazado_19105" data-name="Trazado 19105" d="M436.71,845.446A81.359,81.359,0,0,1,430.453,851q.141-4.824.323-9.649c.041-1-1.508-.992-1.544,0q-.194,4.8-.323,9.6c-1.86-1.743-3.727-3.486-5.617-5.2-.734-.669-1.831.423-1.092,1.092q3.125,2.843,6.2,5.746-3.125,2.351-6.462,4.4c-.845.516-.07,1.855.781,1.338,2.1-1.28,4.132-2.659,6.11-4.114-.065,2.717-.135,5.429-.17,8.146a.772.772,0,0,0,1.544,0c.041-2.629.106-5.259.17-7.888,1.614,1.538,3.234,3.075,4.83,4.631.71.693,1.808-.4,1.092-1.092q-2.729-2.668-5.511-5.282a83.5,83.5,0,0,0,7.019-6.18.772.772,0,0,0-1.092-1.092Z" transform="translate(-174.257 -348.589)" fill="#fff"/>
      <path id="Trazado_19106" data-name="Trazado 19106" d="M523.7,909.975q-2.034,2.007-4.243,3.8c.065-2.224.135-4.443.223-6.667.041-1-1.508-.992-1.549,0-.088,2.207-.158,4.414-.223,6.615-1.262-1.18-2.524-2.359-3.8-3.521-.734-.669-1.831.422-1.092,1.092q2.218,2.016,4.4,4.073-2.2,1.637-4.543,3.075c-.845.516-.07,1.855.781,1.338,1.432-.875,2.823-1.814,4.179-2.8-.047,1.86-.088,3.727-.117,5.587a.772.772,0,0,0,1.544,0c.029-1.778.07-3.557.112-5.335,1.074,1.027,2.154,2.048,3.216,3.087.71.693,1.808-.4,1.092-1.092-1.285-1.256-2.588-2.494-3.891-3.733a62.679,62.679,0,0,0,5-4.419.772.772,0,0,0-1.092-1.092Z" transform="translate(-211.82 -375.749)" fill="#fff"/>
      <path id="Trazado_19107" data-name="Trazado 19107" d="M588.479,719.41q-7.976-.044-15.958-.082c2.23-2.242,4.39-4.549,6.45-6.931,1.3-1.5-.88-3.7-2.189-2.189q-3.187,3.689-6.656,7.166-.238-8.883-.651-17.754c-.094-1.984-3.187-2-3.093,0q.44,9.244.669,18.487-4.6-3.838-9.214-7.683c-1.52-1.268-3.715.91-2.189,2.189q4,3.337,8,6.673-7.157-.035-14.309-.076a1.547,1.547,0,0,0,0,3.093q7.765.044,15.524.082-3.847,3.469-7.935,6.614a1.6,1.6,0,0,0-.558,2.113,1.561,1.561,0,0,0,2.119.558q4.481-3.442,8.692-7.254.194,10.811.123,21.633a1.547,1.547,0,0,0,3.093,0q.079-10.617-.117-21.228l7.325,6.11c1.52,1.268,3.715-.91,2.189-2.189q-3.786-3.16-7.577-6.321,8.126.044,16.257.082a1.547,1.547,0,0,0,0-3.093Z" transform="translate(-226.417 -289.73)" fill="#fff"/>
      <path id="Trazado_19108" data-name="Trazado 19108" d="M658.246,683.728a.7.7,0,0,0-.569.223q-.96.942-1.96,1.837l-.194.176q-1.021.916-2.089,1.778c.065-2.224.135-4.443.223-6.667.041-1-1.508-.992-1.549,0-.088,2.207-.159,4.413-.223,6.614-1.262-1.18-2.524-2.359-3.8-3.521a.775.775,0,0,0-1.1,1.092q2.218,2.016,4.4,4.073h0c-.693.516-1.391,1.009-2.107,1.5-.1.07-.205.135-.305.205-.7.469-1.4.927-2.125,1.367h-.006a.8.8,0,0,0,.317,1.45.713.713,0,0,0,.464-.117h.006c.657-.4,1.3-.816,1.937-1.238.123-.082.246-.164.37-.252.628-.423,1.25-.857,1.861-1.3h0c-.047,1.86-.088,3.727-.117,5.587a.775.775,0,0,0,1.549,0c.029-1.778.07-3.557.112-5.335,1.074,1.027,2.154,2.048,3.216,3.087a.726.726,0,0,0,.569.223.779.779,0,0,0,.522-1.315c-1.285-1.256-2.588-2.494-3.891-3.733h0q1.3-1.03,2.547-2.13l.2-.182c.346-.311.693-.616,1.027-.933.417-.387.822-.775,1.227-1.174a.591.591,0,0,0,.111-.135.793.793,0,0,0-.634-1.18Z" transform="translate(-267.162 -282.378)" fill="#fff"/>
      <path id="Trazado_19109" data-name="Trazado 19109" d="M402.12,718.054c21.281,0,24.4-31.534,24.4-31.534s4.255,31.534,26.628,31.534c0,0-22.655,5.388-25.513,31.487-4.232-24.967-25.513-31.487-25.513-31.487Z" transform="translate(-166.219 -284.935)" fill="#fff" opacity="0.5"/>
      <path id="Trazado_19110" data-name="Trazado 19110" d="M500.08,701.854c7.084,0,8.123-10.494,8.123-10.494s1.414,10.494,8.862,10.494a11.888,11.888,0,0,0-8.492,10.482A13.284,13.284,0,0,0,500.08,701.854Z" transform="translate(-206.686 -286.935)" fill="#fff"/>
      <path id="Trazado_19111" data-name="Trazado 19111" d="M379.365,117.141c-1.033,0-2.066-.012-3.1-.018l-20.148-.106q1.505-1.488,2.976-3.023c.317-.323.622-.657.939-.98.722-.757,1.432-1.52,2.142-2.289.3-.323.593-.646.892-.968.963-1.062,1.919-2.136,2.858-3.222a1.651,1.651,0,0,0-1.115-2.694,1.32,1.32,0,0,0-1.074.5c-.91,1.056-1.843,2.1-2.782,3.14-.376.417-.763.828-1.144,1.244-.54.587-1.086,1.174-1.637,1.755-.5.528-1,1.051-1.5,1.573-.423.434-.845.863-1.268,1.3-.581.587-1.156,1.18-1.743,1.755h0q-.326-12.853-.927-25.7c-.094-1.984-3.187-2-3.093,0q.634,13.293.951,26.6-6.823-5.687-13.646-11.38a1.6,1.6,0,0,0-.9-.376,1.676,1.676,0,0,0-.593.065,1.444,1.444,0,0,0-.7,2.5q6.083,5.071,12.161,10.142-10.608-.053-21.217-.111h0a1.547,1.547,0,0,0,0,3.093q11.374.062,22.743.117h0c-.886.816-1.784,1.614-2.688,2.412-.182.158-.364.323-.546.481-.786.687-1.573,1.367-2.371,2.037-.434.37-.875.728-1.315,1.092-.6.5-1.2.992-1.8,1.479-1.1.886-2.207,1.767-3.322,2.623a1.607,1.607,0,0,0-.558,2.119,1.7,1.7,0,0,0,1.256.775,1.191,1.191,0,0,0,.863-.223q1.734-1.329,3.439-2.712c.74-.593,1.467-1.2,2.2-1.8.346-.288.693-.569,1.033-.857.945-.792,1.878-1.6,2.805-2.412l.276-.241c1.015-.892,2.019-1.79,3.017-2.706h0q.3,15.477.194,30.948a1.547,1.547,0,0,0,3.093,0q.106-15.177-.182-30.355,5.529,4.6,11.051,9.214a1.6,1.6,0,0,0,.9.376c1.115.088,2.154-1.068,1.7-2.054a1.3,1.3,0,0,0-.164-.264,1.4,1.4,0,0,0-.247-.246q-5.793-4.824-11.58-9.655,9.684.053,19.368.1c1.508.006,3.017.018,4.519.023h0a1.547,1.547,0,0,0,0-3.093Z" transform="translate(-134.033 -37.656)" fill="#fff"/>
      <path id="Trazado_19112" data-name="Trazado 19112" d="M302.73,167.386a81.371,81.371,0,0,1-6.256,5.558q.141-4.824.323-9.649c.041-1-1.508-.992-1.544,0q-.194,4.8-.323,9.6c-1.861-1.743-3.727-3.486-5.617-5.2-.734-.669-1.831.423-1.092,1.092q3.125,2.844,6.2,5.746-3.125,2.351-6.462,4.4c-.845.516-.07,1.855.781,1.338,2.1-1.279,4.132-2.659,6.11-4.114-.065,2.717-.135,5.429-.17,8.146a.772.772,0,0,0,1.544,0c.041-2.629.106-5.259.17-7.888,1.614,1.538,3.234,3.075,4.83,4.631.71.693,1.808-.4,1.092-1.092q-2.729-2.667-5.511-5.282a83.491,83.491,0,0,0,7.019-6.18.772.772,0,0,0-1.092-1.092Z" transform="translate(-118.911 -68.485)" fill="#fff"/>
      <path id="Trazado_19113" data-name="Trazado 19113" d="M206.98,150.789c12.3,0,14.109-18.229,14.109-18.229s2.459,18.229,15.395,18.229A20.654,20.654,0,0,0,221.735,169a23.065,23.065,0,0,0-14.749-18.206Z" transform="translate(-85.608 -56.097)" fill="#fff"/>
      <path id="Trazado_19114" data-name="Trazado 19114" d="M167.836,176.726c4.789,0,5.493-7.1,5.493-7.1s.957,7.1,5.992,7.1a8.051,8.051,0,0,0-5.746,7.09,8.979,8.979,0,0,0-5.746-7.09Z" transform="translate(-69.435 -71.411)" fill="#fff"/>
      <path id="Trazado_19115" data-name="Trazado 19115" d="M186.539,41.35l-15.958-.082c2.23-2.242,4.39-4.549,6.45-6.931,1.3-1.5-.88-3.7-2.189-2.189q-3.187,3.689-6.655,7.166-.238-8.883-.651-17.754c-.094-1.984-3.187-2-3.093,0q.44,9.244.669,18.488-4.6-3.838-9.214-7.683c-1.52-1.268-3.715.91-2.189,2.189q4,3.337,8,6.673-7.157-.035-14.309-.076a1.547,1.547,0,0,0,0,3.093q7.765.044,15.524.082-3.847,3.469-7.935,6.614a1.6,1.6,0,0,0-.558,2.113,1.556,1.556,0,0,0,2.113.558q4.481-3.442,8.692-7.254.194,10.811.123,21.633a1.547,1.547,0,0,0,3.093,0q.079-10.617-.117-21.228l7.325,6.11c1.52,1.268,3.715-.91,2.189-2.189q-3.786-3.16-7.577-6.321,8.126.044,16.257.082a1.547,1.547,0,0,0,0-3.093Z" transform="translate(-60.378 -9.627)" fill="#fff"/>
      <path id="Trazado_19116" data-name="Trazado 19116" d="M268.14,40c21.281,0,24.4-31.534,24.4-31.534S296.8,40,319.171,40c0,0-22.655,5.388-25.513,31.487C289.427,46.525,268.146,40,268.146,40Z" transform="translate(-110.873 -4.836)" fill="#fff" opacity="0.5"/>
      <path id="Trazado_19117" data-name="Trazado 19117" d="M366.1,23.794c7.084,0,8.123-10.494,8.123-10.494s1.414,10.494,8.862,10.494a11.888,11.888,0,0,0-8.493,10.482A13.284,13.284,0,0,0,366.1,23.794Z" transform="translate(-151.34 -6.831)" fill="#fff"/>
      <path id="Trazado_19118" data-name="Trazado 19118" d="M255.737,5.895q-2.034,2.007-4.243,3.8c.065-2.224.135-4.443.223-6.667.041-1-1.508-.992-1.549,0-.088,2.207-.158,4.414-.223,6.614-1.262-1.18-2.524-2.359-3.8-3.521-.734-.669-1.831.423-1.092,1.092q2.219,2.016,4.4,4.073-2.2,1.637-4.543,3.075c-.845.516-.07,1.855.781,1.338,1.432-.874,2.823-1.814,4.179-2.8-.047,1.86-.088,3.727-.117,5.587a.772.772,0,0,0,1.544,0c.029-1.778.07-3.557.112-5.335,1.074,1.027,2.154,2.048,3.216,3.087.71.693,1.808-.4,1.092-1.092-1.285-1.256-2.588-2.494-3.891-3.733a62.716,62.716,0,0,0,5-4.419A.772.772,0,0,0,255.726,5.9Z" transform="translate(-101.123 -2.279)" fill="#fff"/>
      <path id="Trazado_19119" data-name="Trazado 19119" d="M379.361,569.181c-1.033,0-2.066-.012-3.1-.018l-20.148-.106c1-.992,2-2,2.976-3.017.317-.329.628-.657.939-.986.722-.757,1.432-1.52,2.142-2.289.3-.323.593-.646.886-.968.963-1.062,1.919-2.136,2.858-3.222a1.651,1.651,0,0,0-1.115-2.694,1.32,1.32,0,0,0-1.074.5c-.91,1.056-1.843,2.1-2.782,3.14-.376.417-.763.828-1.144,1.244-.54.587-1.086,1.174-1.637,1.755-.5.528-1,1.051-1.5,1.573-.423.434-.845.863-1.268,1.3-.581.587-1.156,1.18-1.743,1.755h0q-.326-12.853-.927-25.7c-.094-1.984-3.187-2-3.093,0q.634,13.293.951,26.6-6.823-5.687-13.646-11.38a1.6,1.6,0,0,0-.9-.376,1.676,1.676,0,0,0-.593.065,1.444,1.444,0,0,0-.7,2.5Q340.827,563.934,346.9,569q-10.608-.053-21.217-.111h0a1.547,1.547,0,0,0,0,3.093q11.374.062,22.743.117h0c-.886.816-1.784,1.614-2.688,2.412-.182.158-.364.323-.546.481-.786.687-1.573,1.367-2.371,2.037-.434.37-.875.728-1.315,1.092-.6.5-1.2.992-1.8,1.479-1.1.886-2.207,1.767-3.322,2.623a1.607,1.607,0,0,0-.558,2.119,1.7,1.7,0,0,0,1.256.775,1.19,1.19,0,0,0,.863-.223q1.734-1.329,3.439-2.706c.74-.593,1.467-1.2,2.2-1.808.346-.287.693-.569,1.033-.857.945-.792,1.878-1.6,2.805-2.412.088-.082.182-.159.27-.235,1.015-.892,2.019-1.79,3.017-2.706h0q.3,15.477.194,30.947a1.547,1.547,0,0,0,3.093,0q.106-15.177-.182-30.355,5.529,4.6,11.051,9.214a1.6,1.6,0,0,0,.9.376c1.115.088,2.154-1.068,1.7-2.054a1.3,1.3,0,0,0-.164-.264,1.4,1.4,0,0,0-.247-.246q-5.793-4.824-11.58-9.655,9.684.053,19.368.1c1.508.006,3.017.018,4.519.023h0a1.547,1.547,0,0,0,0-3.093Z" transform="translate(-134.028 -224.391)" fill="#fff"/>
      <path id="Trazado_19120" data-name="Trazado 19120" d="M302.73,619.426a81.4,81.4,0,0,1-6.256,5.558q.141-4.824.323-9.649c.041-1-1.508-.992-1.544,0q-.194,4.8-.323,9.6c-1.861-1.743-3.727-3.486-5.617-5.2-.734-.669-1.831.423-1.092,1.092q3.125,2.844,6.2,5.746-3.125,2.351-6.462,4.4c-.845.517-.07,1.855.781,1.338,2.1-1.279,4.132-2.659,6.11-4.114-.065,2.717-.135,5.429-.17,8.146a.772.772,0,0,0,1.544,0c.041-2.629.106-5.259.17-7.888,1.614,1.538,3.234,3.075,4.83,4.631.71.693,1.808-.4,1.092-1.092q-2.729-2.668-5.511-5.282a83.5,83.5,0,0,0,7.019-6.18.772.772,0,0,0-1.092-1.092Z" transform="translate(-118.911 -255.221)" fill="#fff"/>
      <path id="Trazado_19121" data-name="Trazado 19121" d="M206.98,602.829c12.3,0,14.109-18.229,14.109-18.229s2.459,18.229,15.395,18.229a20.654,20.654,0,0,0-14.749,18.206,23.065,23.065,0,0,0-14.749-18.206Z" transform="translate(-85.608 -242.833)" fill="#fff"/>
      <path id="Trazado_19122" data-name="Trazado 19122" d="M167.836,628.766c4.789,0,5.493-7.1,5.493-7.1s.957,7.1,5.992,7.1a8.051,8.051,0,0,0-5.746,7.09,8.979,8.979,0,0,0-5.746-7.09Z" transform="translate(-69.435 -258.146)" fill="#fff"/>
      <path id="Trazado_19123" data-name="Trazado 19123" d="M245.381,343.169q-11.621-.062-23.247-.117,5.106-5.062,9.8-10.482c1.3-1.5-.88-3.7-2.189-2.189q-4.807,5.564-10.077,10.77-.326-12.853-.927-25.7c-.094-1.984-3.187-2-3.093,0q.634,13.293.951,26.6-6.823-5.687-13.646-11.38c-1.52-1.268-3.715.91-2.189,2.189q6.083,5.071,12.161,10.142-10.608-.053-21.217-.112a1.547,1.547,0,0,0,0,3.093q11.374.062,22.743.117c-3.879,3.551-7.9,6.949-12.043,10.13a1.607,1.607,0,0,0-.558,2.119,1.556,1.556,0,0,0,2.113.558c4.4-3.375,8.657-6.967,12.765-10.729q.3,15.477.194,30.948a1.547,1.547,0,0,0,3.093,0q.106-15.177-.182-30.355,5.529,4.6,11.051,9.214c1.52,1.268,3.715-.91,2.189-2.189q-5.793-4.824-11.58-9.655l23.887.123a1.547,1.547,0,0,0,0-3.093Z" transform="translate(-78.682 -131.032)" fill="#fff"/>
      <path id="Trazado_19124" data-name="Trazado 19124" d="M186.539,493.39q-7.976-.044-15.958-.082c2.23-2.242,4.39-4.548,6.45-6.931,1.3-1.5-.88-3.7-2.189-2.189q-3.187,3.689-6.655,7.166-.238-8.883-.651-17.754c-.094-1.984-3.187-2-3.093,0q.44,9.244.669,18.487-4.6-3.838-9.214-7.683c-1.52-1.268-3.715.91-2.189,2.189q4,3.337,8,6.673-7.157-.035-14.309-.076a1.547,1.547,0,0,0,0,3.093q7.765.044,15.524.082-3.847,3.469-7.935,6.614a1.6,1.6,0,0,0-.558,2.113,1.556,1.556,0,0,0,2.113.558q4.481-3.442,8.692-7.254.194,10.811.123,21.633a1.547,1.547,0,0,0,3.093,0q.079-10.617-.117-21.228l7.325,6.11c1.52,1.268,3.715-.91,2.189-2.189q-3.786-3.16-7.577-6.321,8.126.044,16.257.082a1.547,1.547,0,0,0,0-3.093Z" transform="translate(-60.378 -196.362)" fill="#fff"/>
      <path id="Trazado_19125" data-name="Trazado 19125" d="M268.14,492.034c21.281,0,24.4-31.534,24.4-31.534s4.255,31.534,26.628,31.534c0,0-22.655,5.388-25.513,31.487-4.232-24.967-25.513-31.487-25.513-31.487Z" transform="translate(-110.873 -191.567)" fill="#fff"/>
      <path id="Trazado_19126" data-name="Trazado 19126" d="M340.96,376.809c12.3,0,14.109-18.229,14.109-18.229s2.459,18.229,15.395,18.229a20.654,20.654,0,0,0-14.749,18.206,23.065,23.065,0,0,0-14.749-18.206Z" transform="translate(-140.954 -149.465)" fill="#fff"/>
      <path id="Trazado_19127" data-name="Trazado 19127" d="M366.1,475.834c7.084,0,8.123-10.494,8.123-10.494s1.414,10.494,8.862,10.494a11.888,11.888,0,0,0-8.493,10.482,13.284,13.284,0,0,0-8.492-10.482Z" transform="translate(-151.34 -193.567)" fill="#fff"/>
      <path id="Trazado_19128" data-name="Trazado 19128" d="M301.816,402.746c4.789,0,5.493-7.1,5.493-7.1s.957,7.1,5.992,7.1a8.051,8.051,0,0,0-5.746,7.09,8.979,8.979,0,0,0-5.746-7.09Z" transform="translate(-124.782 -164.778)" fill="#fff"/>
      <path id="Trazado_19129" data-name="Trazado 19129" d="M168.75,393.406a81.367,81.367,0,0,1-6.256,5.558q.141-4.824.323-9.649c.041-1-1.508-.992-1.544,0q-.194,4.8-.323,9.6c-1.86-1.743-3.727-3.486-5.617-5.2-.734-.669-1.831.423-1.092,1.092q3.125,2.844,6.2,5.746-3.125,2.351-6.462,4.4c-.845.516-.07,1.855.781,1.338,2.1-1.279,4.132-2.659,6.11-4.114-.065,2.717-.135,5.429-.176,8.146a.772.772,0,0,0,1.544,0c.041-2.629.106-5.259.17-7.888,1.614,1.538,3.234,3.075,4.83,4.631.71.693,1.808-.4,1.092-1.092q-2.729-2.667-5.511-5.282a83.488,83.488,0,0,0,7.019-6.18.772.772,0,0,0-1.092-1.092Z" transform="translate(-63.564 -161.853)" fill="#fff"/>
      <path id="Trazado_19130" data-name="Trazado 19130" d="M255.737,457.935q-2.034,2.007-4.243,3.8c.065-2.224.135-4.443.223-6.667.041-1-1.508-.992-1.549,0-.088,2.207-.158,4.413-.223,6.614-1.262-1.18-2.524-2.359-3.8-3.521-.734-.669-1.831.423-1.092,1.092q2.219,2.016,4.4,4.073-2.2,1.638-4.543,3.075c-.845.516-.07,1.855.781,1.338,1.432-.874,2.823-1.814,4.179-2.8-.047,1.861-.088,3.727-.117,5.587a.772.772,0,0,0,1.544,0c.029-1.778.07-3.557.112-5.335,1.074,1.027,2.154,2.048,3.216,3.087.71.693,1.808-.4,1.092-1.092-1.285-1.256-2.588-2.494-3.891-3.733a62.714,62.714,0,0,0,5-4.419.772.772,0,0,0-1.092-1.092Z" transform="translate(-101.123 -189.014)" fill="#fff"/>
      <path id="Trazado_19131" data-name="Trazado 19131" d="M320.519,267.37q-7.976-.044-15.958-.082c2.23-2.242,4.39-4.548,6.45-6.931,1.3-1.5-.88-3.7-2.189-2.189q-3.187,3.689-6.655,7.166-.238-8.883-.651-17.754c-.094-1.984-3.187-2-3.093,0q.44,9.244.669,18.488-4.6-3.838-9.214-7.683c-1.52-1.268-3.715.91-2.189,2.189q4,3.337,8,6.673-7.157-.035-14.309-.076a1.547,1.547,0,0,0,0,3.093q7.765.044,15.524.082-3.847,3.469-7.935,6.614a1.6,1.6,0,0,0-.558,2.113,1.561,1.561,0,0,0,2.119.558q4.481-3.442,8.692-7.254.194,10.811.123,21.633a1.547,1.547,0,0,0,3.093,0q.079-10.617-.117-21.228l7.325,6.11c1.52,1.268,3.715-.91,2.189-2.189q-3.786-3.16-7.577-6.321,8.126.044,16.257.082a1.547,1.547,0,0,0,0-3.093Z" transform="translate(-115.724 -102.995)" fill="#fff"/>
      <path id="Trazado_19132" data-name="Trazado 19132" d="M390.29,231.688a.7.7,0,0,0-.569.223h0q-.96.942-1.96,1.837l-.194.176q-1.021.916-2.089,1.778c.065-2.224.135-4.443.223-6.667.041-1-1.508-.992-1.549,0-.088,2.207-.158,4.414-.223,6.614-1.262-1.18-2.524-2.359-3.8-3.521a.775.775,0,0,0-1.1,1.092q2.219,2.016,4.4,4.073h0q-1.039.775-2.107,1.5c-.1.07-.205.135-.305.205-.7.47-1.409.927-2.125,1.368h0a.8.8,0,0,0,.317,1.45.714.714,0,0,0,.464-.117.018.018,0,0,0,.012-.006c.651-.4,1.3-.816,1.937-1.238.123-.082.246-.164.376-.252.628-.423,1.25-.857,1.86-1.3h0c-.047,1.861-.088,3.727-.117,5.587a.772.772,0,0,0,1.544,0c.029-1.778.07-3.557.112-5.335,1.074,1.027,2.154,2.048,3.216,3.087a.726.726,0,0,0,.569.223.792.792,0,0,0,.634-1.18.8.8,0,0,0-.112-.135c-1.285-1.256-2.588-2.494-3.891-3.733h.006q1.3-1.03,2.541-2.125c.07-.059.135-.123.205-.188.346-.305.687-.616,1.027-.933.4-.37.792-.751,1.18-1.133l.041-.041a.593.593,0,0,0,.112-.135.793.793,0,0,0-.634-1.18Z" transform="translate(-156.473 -95.642)" fill="#fff"/>
      <path id="Trazado_19133" data-name="Trazado 19133" d="M134.16,266.024c21.281,0,24.4-31.534,24.4-31.534s4.255,31.534,26.628,31.534c0,0-22.655,5.388-25.513,31.487-4.232-24.967-25.513-31.487-25.513-31.487Z" transform="translate(-55.526 -98.204)" fill="#fff" opacity="0.5"/>
      <path id="Trazado_19134" data-name="Trazado 19134" d="M232.12,249.814c7.084,0,8.123-10.494,8.123-10.494s1.414,10.494,8.862,10.494a11.888,11.888,0,0,0-8.493,10.482A13.284,13.284,0,0,0,232.12,249.814Z" transform="translate(-95.993 -100.199)" fill="#fff"/>
      <path id="Trazado_19135" data-name="Trazado 19135" d="M379.361,1021.225q-11.621-.062-23.247-.117c1-.992,2-2,2.976-3.017.317-.329.628-.657.939-.986.722-.757,1.432-1.52,2.142-2.289.3-.323.593-.646.886-.968.963-1.062,1.919-2.136,2.858-3.222a1.651,1.651,0,0,0-1.115-2.694,1.32,1.32,0,0,0-1.074.5c-.91,1.056-1.843,2.1-2.782,3.14-.376.417-.763.827-1.144,1.244-.54.587-1.086,1.174-1.637,1.755-.5.528-1,1.051-1.5,1.573-.423.434-.845.863-1.268,1.3-.581.587-1.156,1.18-1.743,1.755h0q-.326-12.853-.927-25.7c-.094-1.984-3.187-2-3.093,0q.634,13.293.951,26.6-6.823-5.687-13.646-11.38a1.6,1.6,0,0,0-.9-.376,1.679,1.679,0,0,0-.593.064,1.444,1.444,0,0,0-.7,2.5q6.083,5.071,12.161,10.142-9.754-.053-19.509-.1l-1.708-.012h0a1.547,1.547,0,0,0,0,3.093q5.6.027,11.192.059,5.775.027,11.55.059h0q-1.329,1.215-2.688,2.412c-.182.164-.37.323-.552.487-.786.687-1.573,1.362-2.365,2.037-.434.37-.88.734-1.32,1.1-.6.493-1.191.992-1.8,1.479-1.1.886-2.207,1.767-3.322,2.623a1.607,1.607,0,0,0-.558,2.119,1.7,1.7,0,0,0,1.256.775,1.19,1.19,0,0,0,.863-.223q1.734-1.329,3.439-2.712c.74-.593,1.467-1.2,2.2-1.8.346-.287.693-.569,1.033-.857.945-.792,1.878-1.6,2.805-2.412l.276-.241c1.015-.892,2.019-1.79,3.017-2.706h0q.3,15.477.194,30.948a1.547,1.547,0,0,0,3.093,0q.106-15.177-.182-30.355,5.529,4.6,11.051,9.214a1.6,1.6,0,0,0,.9.376c1.115.088,2.154-1.068,1.7-2.054a1.3,1.3,0,0,0-.164-.264,1.4,1.4,0,0,0-.247-.246q-5.793-4.824-11.58-9.655l23.887.123h0a1.547,1.547,0,0,0,0-3.093Z" transform="translate(-134.028 -411.13)" fill="#fff"/>
      <path id="Trazado_19136" data-name="Trazado 19136" d="M302.73,1071.466a81.4,81.4,0,0,1-6.256,5.558q.141-4.824.323-9.649c.041-1-1.508-.992-1.544,0q-.194,4.8-.323,9.6c-1.861-1.743-3.727-3.486-5.617-5.2-.734-.669-1.831.423-1.092,1.092q3.125,2.844,6.2,5.746-3.125,2.351-6.462,4.4c-.845.516-.07,1.854.781,1.338,2.1-1.28,4.132-2.659,6.11-4.114-.065,2.717-.135,5.429-.17,8.146a.772.772,0,0,0,1.544,0c.041-2.629.106-5.259.17-7.888,1.614,1.538,3.234,3.075,4.83,4.631.71.693,1.808-.4,1.092-1.092q-2.729-2.667-5.511-5.282a83.478,83.478,0,0,0,7.019-6.18.772.772,0,0,0-1.092-1.092Z" transform="translate(-118.911 -441.956)" fill="#fff"/>
      <path id="Trazado_19137" data-name="Trazado 19137" d="M206.98,1054.869c12.3,0,14.109-18.229,14.109-18.229s2.459,18.229,15.395,18.229a20.654,20.654,0,0,0-14.749,18.206,23.065,23.065,0,0,0-14.749-18.206Z" transform="translate(-85.608 -429.568)" fill="#fff"/>
      <path id="Trazado_19138" data-name="Trazado 19138" d="M167.836,1080.806c4.789,0,5.493-7.1,5.493-7.1s.957,7.1,5.992,7.1a8.051,8.051,0,0,0-5.746,7.09,8.978,8.978,0,0,0-5.746-7.09Z" transform="translate(-69.435 -444.882)" fill="#fff"/>
      <path id="Trazado_19139" data-name="Trazado 19139" d="M245.381,795.209q-11.621-.062-23.247-.117,5.106-5.062,9.8-10.482c1.3-1.5-.88-3.7-2.189-2.189q-4.807,5.564-10.077,10.77-.326-12.853-.927-25.7c-.094-1.984-3.187-2-3.093,0q.634,13.293.951,26.6-6.823-5.687-13.646-11.38c-1.52-1.268-3.715.91-2.189,2.189q6.083,5.071,12.161,10.142-10.608-.053-21.217-.112a1.547,1.547,0,0,0,0,3.093q11.374.062,22.743.117c-3.879,3.551-7.9,6.949-12.043,10.13a1.607,1.607,0,0,0-.558,2.119,1.555,1.555,0,0,0,2.113.558c4.4-3.375,8.657-6.967,12.765-10.729q.3,15.477.194,30.948a1.547,1.547,0,0,0,3.093,0q.106-15.177-.182-30.355,5.529,4.6,11.051,9.214c1.52,1.268,3.715-.91,2.189-2.189q-5.793-4.824-11.58-9.654l23.887.123a1.547,1.547,0,0,0,0-3.093Z" transform="translate(-78.682 -317.767)" fill="#fff"/>
      <path id="Trazado_19140" data-name="Trazado 19140" d="M186.539,945.43l-15.958-.082c2.23-2.242,4.39-4.548,6.45-6.931,1.3-1.5-.88-3.7-2.189-2.189q-3.187,3.689-6.655,7.166-.238-8.883-.651-17.754c-.094-1.984-3.187-2-3.093,0q.44,9.244.669,18.487-4.6-3.838-9.214-7.682c-1.52-1.268-3.715.91-2.189,2.189q4,3.337,8,6.673-7.157-.035-14.309-.076a1.547,1.547,0,0,0,0,3.093q7.765.044,15.524.082-3.847,3.469-7.935,6.614a1.6,1.6,0,0,0-.558,2.113,1.555,1.555,0,0,0,2.113.558q4.481-3.442,8.692-7.254.194,10.811.123,21.633a1.547,1.547,0,0,0,3.093,0q.079-10.617-.117-21.228l7.325,6.11c1.52,1.268,3.715-.91,2.189-2.189q-3.786-3.161-7.577-6.321,8.126.044,16.257.082a1.547,1.547,0,0,0,0-3.093Z" transform="translate(-60.378 -383.098)" fill="#fff"/>
      <path id="Trazado_19141" data-name="Trazado 19141" d="M268.14,944.074c21.281,0,24.4-31.534,24.4-31.534s4.255,31.534,26.628,31.534c0,0-22.655,5.388-25.513,31.488-4.232-24.967-25.513-31.488-25.513-31.488Z" transform="translate(-110.873 -378.303)" fill="#fff" opacity="0.5"/>
      <path id="Trazado_19142" data-name="Trazado 19142" d="M340.96,828.849c12.3,0,14.109-18.229,14.109-18.229s2.459,18.229,15.395,18.229a20.654,20.654,0,0,0-14.749,18.206,23.065,23.065,0,0,0-14.749-18.206Z" transform="translate(-140.954 -336.2)" fill="#fff"/>
      <path id="Trazado_19143" data-name="Trazado 19143" d="M366.1,927.874c7.084,0,8.123-10.494,8.123-10.494s1.414,10.494,8.862,10.494a11.888,11.888,0,0,0-8.493,10.482A13.284,13.284,0,0,0,366.1,927.874Z" transform="translate(-151.34 -380.302)" fill="#fff"/>
      <path id="Trazado_19144" data-name="Trazado 19144" d="M301.816,854.786c4.789,0,5.493-7.1,5.493-7.1s.957,7.1,5.992,7.1a8.051,8.051,0,0,0-5.746,7.09,8.979,8.979,0,0,0-5.746-7.09Z" transform="translate(-124.782 -351.514)" fill="#fff"/>
      <path id="Trazado_19145" data-name="Trazado 19145" d="M168.75,845.446A81.368,81.368,0,0,1,162.493,851q.141-4.824.323-9.649c.041-1-1.508-.992-1.544,0q-.194,4.8-.323,9.6c-1.86-1.743-3.727-3.486-5.617-5.2-.734-.669-1.831.423-1.092,1.092q3.125,2.843,6.2,5.746-3.125,2.351-6.462,4.4c-.845.516-.07,1.855.781,1.338,2.1-1.28,4.132-2.659,6.11-4.114-.065,2.717-.135,5.429-.176,8.146a.772.772,0,0,0,1.544,0c.041-2.629.106-5.259.17-7.888,1.614,1.538,3.234,3.075,4.83,4.631.71.693,1.808-.4,1.092-1.092q-2.729-2.668-5.511-5.282a83.5,83.5,0,0,0,7.019-6.18.772.772,0,0,0-1.092-1.092Z" transform="translate(-63.564 -348.589)" fill="#fff"/>
      <path id="Trazado_19146" data-name="Trazado 19146" d="M255.737,909.975q-2.034,2.007-4.243,3.8c.065-2.224.135-4.443.223-6.667.041-1-1.508-.992-1.549,0-.088,2.207-.158,4.414-.223,6.615-1.262-1.18-2.524-2.359-3.8-3.521-.734-.669-1.831.422-1.092,1.092q2.219,2.016,4.4,4.073-2.2,1.637-4.543,3.075c-.845.516-.07,1.855.781,1.338,1.432-.875,2.823-1.814,4.179-2.8-.047,1.86-.088,3.727-.117,5.587a.772.772,0,0,0,1.544,0c.029-1.778.07-3.557.112-5.335,1.074,1.027,2.154,2.048,3.216,3.087.71.693,1.808-.4,1.092-1.092-1.285-1.256-2.588-2.494-3.891-3.733a62.677,62.677,0,0,0,5-4.419.772.772,0,0,0-1.092-1.092Z" transform="translate(-101.123 -375.749)" fill="#fff"/>
      <path id="Trazado_19147" data-name="Trazado 19147" d="M320.519,719.41q-7.976-.044-15.958-.082c2.23-2.242,4.39-4.549,6.45-6.931,1.3-1.5-.88-3.7-2.189-2.189q-3.187,3.689-6.655,7.166-.238-8.883-.651-17.754c-.094-1.984-3.187-2-3.093,0q.44,9.244.669,18.487-4.6-3.838-9.214-7.683c-1.52-1.268-3.715.91-2.189,2.189q4,3.337,8,6.673-7.157-.035-14.309-.076a1.547,1.547,0,0,0,0,3.093q7.765.044,15.524.082-3.847,3.469-7.935,6.614a1.6,1.6,0,0,0-.558,2.113,1.561,1.561,0,0,0,2.119.558q4.481-3.442,8.692-7.254.194,10.811.123,21.633a1.547,1.547,0,0,0,3.093,0q.079-10.617-.117-21.228l7.325,6.11c1.52,1.268,3.715-.91,2.189-2.189q-3.786-3.16-7.577-6.321,8.126.044,16.257.082a1.547,1.547,0,0,0,0-3.093Z" transform="translate(-115.724 -289.73)" fill="#fff"/>
      <path id="Trazado_19148" data-name="Trazado 19148" d="M390.29,683.728a.7.7,0,0,0-.569.223h0q-.96.942-1.96,1.837l-.194.176q-1.021.916-2.089,1.778c.065-2.224.135-4.443.223-6.667.041-1-1.508-.992-1.549,0-.088,2.207-.158,4.413-.223,6.614-1.262-1.18-2.524-2.359-3.8-3.521a.775.775,0,0,0-1.1,1.092q2.219,2.016,4.4,4.073h0q-1.039.775-2.107,1.5c-.1.07-.205.135-.305.205-.7.469-1.409.927-2.125,1.367h0a.8.8,0,0,0,.317,1.45.713.713,0,0,0,.464-.117.018.018,0,0,0,.012-.006c.651-.4,1.3-.816,1.937-1.238.123-.082.246-.164.376-.252.628-.422,1.25-.857,1.86-1.3h0c-.047,1.86-.088,3.727-.117,5.587a.772.772,0,0,0,1.544,0c.029-1.778.07-3.557.112-5.335,1.074,1.027,2.154,2.048,3.216,3.087a.726.726,0,0,0,.569.223.764.764,0,0,0,.522-1.315c-1.285-1.256-2.588-2.494-3.891-3.733l.006-.006q1.3-1.03,2.541-2.125c.065-.059.129-.117.2-.176.346-.311.693-.622,1.033-.939.4-.376.792-.751,1.186-1.133a.272.272,0,0,0,.041-.041.592.592,0,0,0,.112-.135.793.793,0,0,0-.634-1.18Z" transform="translate(-156.473 -282.378)" fill="#fff"/>
      <path id="Trazado_19149" data-name="Trazado 19149" d="M134.16,718.054c21.281,0,24.4-31.534,24.4-31.534s4.255,31.534,26.628,31.534c0,0-22.655,5.388-25.513,31.487-4.232-24.967-25.513-31.487-25.513-31.487Z" transform="translate(-55.526 -284.935)" fill="#fff"/>
      <path id="Trazado_19150" data-name="Trazado 19150" d="M232.12,701.854c7.084,0,8.123-10.494,8.123-10.494s1.414,10.494,8.862,10.494a11.888,11.888,0,0,0-8.493,10.482A13.284,13.284,0,0,0,232.12,701.854Z" transform="translate(-95.993 -286.935)" fill="#fff"/>
      <path id="Trazado_19151" data-name="Trazado 19151" d="M111.4,117.149c-.828,0-1.661-.006-2.488-.012l-20.759-.106q1.505-1.488,2.976-3.023c.317-.323.622-.657.939-.98.722-.757,1.432-1.52,2.142-2.289.3-.323.593-.646.892-.968.963-1.062,1.919-2.136,2.858-3.222a1.651,1.651,0,0,0-1.115-2.694,1.32,1.32,0,0,0-1.074.5c-.91,1.056-1.843,2.1-2.782,3.14-.376.417-.763.828-1.144,1.244q-.81.88-1.637,1.761c-.5.528-1,1.051-1.5,1.573-.423.434-.845.869-1.274,1.3-.575.587-1.156,1.174-1.737,1.755h0q-.326-12.853-.927-25.7c-.094-1.984-3.187-2-3.093,0q.634,13.293.951,26.6-6.823-5.687-13.646-11.38a1.6,1.6,0,0,0-.9-.376c-1.315-.106-2.535,1.526-1.291,2.565q6.083,5.071,12.161,10.142-10.608-.053-21.217-.112h0a1.547,1.547,0,0,0,0,3.093q11.374.062,22.743.117h0q-1.329,1.224-2.688,2.412c-.182.158-.364.323-.546.481-.786.687-1.573,1.367-2.371,2.037-.434.37-.88.734-1.321,1.1-.6.493-1.191.992-1.8,1.479-1.1.886-2.207,1.767-3.322,2.623a1.607,1.607,0,0,0-.558,2.119,1.7,1.7,0,0,0,1.256.775,1.191,1.191,0,0,0,.863-.223q1.734-1.329,3.439-2.712c.74-.593,1.467-1.2,2.2-1.8.346-.288.693-.569,1.033-.857.945-.792,1.878-1.6,2.805-2.412l.276-.241c1.015-.892,2.019-1.79,3.017-2.706h0q.3,15.477.194,30.947a1.547,1.547,0,0,0,3.093,0q.106-15.177-.182-30.355,5.529,4.6,11.051,9.214a1.6,1.6,0,0,0,.9.376c1.315.106,2.535-1.526,1.291-2.565q-5.793-4.824-11.58-9.655l20.143.106,3.744.018h0a1.547,1.547,0,0,0,0-3.093Z" transform="translate(-23.34 -37.664)" fill="#fff"/>
      <path id="Trazado_19152" data-name="Trazado 19152" d="M34.77,167.386a81.371,81.371,0,0,1-6.256,5.558q.141-4.824.323-9.649c.041-1-1.508-.992-1.544,0q-.194,4.8-.323,9.6c-1.86-1.743-3.727-3.486-5.617-5.2-.734-.669-1.831.423-1.092,1.092q3.125,2.844,6.2,5.746-3.125,2.351-6.462,4.4c-.845.516-.07,1.855.781,1.338,2.1-1.279,4.132-2.659,6.11-4.114-.065,2.717-.135,5.429-.17,8.146a.772.772,0,0,0,1.544,0c.041-2.629.106-5.259.17-7.888,1.614,1.538,3.234,3.075,4.83,4.631.71.693,1.808-.4,1.092-1.092q-2.729-2.667-5.511-5.282a83.494,83.494,0,0,0,7.019-6.18.772.772,0,0,0-1.092-1.092Z" transform="translate(-8.218 -68.485)" fill="#fff"/>
      <path id="Trazado_19153" data-name="Trazado 19153" d="M.18,40c21.281,0,24.4-31.534,24.4-31.534S28.839,40,51.211,40c0,0-22.655,5.388-25.513,31.487C21.461,46.525.18,40,.18,40Z" transform="translate(-0.18 -4.836)" fill="#fff"/>
      <path id="Trazado_19154" data-name="Trazado 19154" d="M98.14,23.794c7.084,0,8.123-10.494,8.123-10.494s1.414,10.494,8.862,10.494a11.888,11.888,0,0,0-8.493,10.482A13.284,13.284,0,0,0,98.14,23.794Z" transform="translate(-40.647 -6.831)" fill="#fff"/>
      <path id="Trazado_19155" data-name="Trazado 19155" d="M111.4,569.189c-.828,0-1.661-.006-2.488-.012l-20.759-.106c1-.992,2-2,2.976-3.017.317-.329.628-.657.939-.986.722-.757,1.432-1.52,2.142-2.289.3-.323.593-.646.886-.968.963-1.062,1.919-2.136,2.858-3.222A1.651,1.651,0,0,0,96.84,555.9a1.32,1.32,0,0,0-1.074.5c-.91,1.056-1.843,2.1-2.782,3.14-.376.417-.763.828-1.144,1.244q-.81.88-1.637,1.761c-.5.528-1,1.051-1.5,1.573-.423.434-.845.869-1.274,1.3-.575.587-1.156,1.174-1.737,1.755h0q-.326-12.853-.927-25.7c-.094-1.984-3.187-2-3.093,0q.634,13.293.951,26.6-6.823-5.687-13.646-11.38a1.6,1.6,0,0,0-.9-.376c-1.315-.106-2.535,1.526-1.291,2.565q6.083,5.071,12.161,10.142-10.608-.053-21.217-.112h0a1.547,1.547,0,0,0,0,3.093q11.374.062,22.743.117h0q-1.329,1.224-2.688,2.412c-.182.159-.364.323-.546.481-.786.687-1.573,1.368-2.371,2.036-.434.37-.88.734-1.321,1.1-.6.493-1.191.992-1.8,1.479-1.1.886-2.207,1.767-3.322,2.624a1.607,1.607,0,0,0-.558,2.119,1.7,1.7,0,0,0,1.256.775,1.19,1.19,0,0,0,.863-.223q1.734-1.33,3.439-2.706c.74-.593,1.467-1.2,2.2-1.808.346-.287.693-.569,1.033-.857.945-.792,1.878-1.6,2.805-2.412.088-.082.182-.159.27-.235q1.523-1.338,3.017-2.706h0q.3,15.477.194,30.948a1.547,1.547,0,0,0,3.093,0q.106-15.177-.182-30.355,5.529,4.6,11.051,9.214a1.6,1.6,0,0,0,.9.376c1.315.106,2.535-1.526,1.291-2.565q-5.793-4.824-11.58-9.655l20.143.106,3.744.018h0a1.547,1.547,0,0,0,0-3.093Z" transform="translate(-23.336 -224.399)" fill="#fff"/>
      <path id="Trazado_19156" data-name="Trazado 19156" d="M34.77,619.426a81.4,81.4,0,0,1-6.256,5.558q.141-4.824.323-9.649c.041-1-1.508-.992-1.544,0q-.194,4.8-.323,9.6c-1.86-1.743-3.727-3.486-5.617-5.2-.734-.669-1.831.423-1.092,1.092q3.125,2.844,6.2,5.746-3.125,2.351-6.462,4.4c-.845.517-.07,1.855.781,1.338,2.1-1.279,4.132-2.659,6.11-4.114-.065,2.717-.135,5.429-.17,8.146a.772.772,0,0,0,1.544,0c.041-2.629.106-5.259.17-7.888,1.614,1.538,3.234,3.075,4.83,4.631.71.693,1.808-.4,1.092-1.092q-2.729-2.668-5.511-5.282a83.5,83.5,0,0,0,7.019-6.18.772.772,0,0,0-1.092-1.092Z" transform="translate(-8.218 -255.221)" fill="#fff"/>
      <path id="Trazado_19157" data-name="Trazado 19157" d="M.18,492.034c21.281,0,24.4-31.534,24.4-31.534s4.255,31.534,26.628,31.534c0,0-22.655,5.388-25.513,31.487C21.461,498.555.18,492.034.18,492.034Z" transform="translate(-0.18 -191.567)" fill="#fff" opacity="0.5"/>
      <path id="Trazado_19158" data-name="Trazado 19158" d="M73.01,376.809c12.3,0,14.109-18.229,14.109-18.229s2.459,18.229,15.395,18.229a20.654,20.654,0,0,0-14.749,18.206,23.065,23.065,0,0,0-14.749-18.206Z" transform="translate(-30.266 -149.465)" fill="#fff"/>
      <path id="Trazado_19159" data-name="Trazado 19159" d="M98.14,475.834c7.084,0,8.123-10.494,8.123-10.494s1.414,10.494,8.862,10.494a11.888,11.888,0,0,0-8.493,10.482,13.284,13.284,0,0,0-8.493-10.482Z" transform="translate(-40.647 -193.567)" fill="#fff"/>
      <path id="Trazado_19160" data-name="Trazado 19160" d="M33.856,402.746c4.789,0,5.493-7.1,5.493-7.1s.957,7.1,5.992,7.1a8.051,8.051,0,0,0-5.746,7.09,8.979,8.979,0,0,0-5.746-7.09Z" transform="translate(-14.089 -164.778)" fill="#fff"/>
      <path id="Trazado_19161" data-name="Trazado 19161" d="M52.559,267.37q-7.976-.044-15.958-.082c2.23-2.242,4.39-4.548,6.45-6.931,1.3-1.5-.88-3.7-2.189-2.189q-3.187,3.689-6.656,7.166-.238-8.883-.651-17.754c-.094-1.984-3.187-2-3.093,0q.44,9.244.669,18.488-4.6-3.838-9.214-7.683c-1.52-1.268-3.715.91-2.189,2.189q4,3.337,8,6.673-7.157-.035-14.309-.076a1.547,1.547,0,0,0,0,3.093q7.765.044,15.524.082-3.847,3.469-7.935,6.614a1.6,1.6,0,0,0-.558,2.113,1.561,1.561,0,0,0,2.119.558q4.481-3.442,8.692-7.254.194,10.811.123,21.633a1.547,1.547,0,0,0,3.093,0q.079-10.617-.117-21.228l7.325,6.11c1.52,1.268,3.715-.91,2.189-2.189q-3.786-3.16-7.577-6.321,8.126.044,16.257.082a1.547,1.547,0,0,0,0-3.093Z" transform="translate(-5.031 -102.995)" fill="#fff"/>
      <path id="Trazado_19162" data-name="Trazado 19162" d="M122.34,231.688a.71.71,0,0,0-.434.112.593.593,0,0,0-.135.111q-.96.942-1.96,1.837l-.194.176c-.681.61-1.379,1.2-2.084,1.778.065-2.224.135-4.443.223-6.667.041-1-1.508-.992-1.549,0-.088,2.207-.158,4.414-.223,6.614-1.262-1.18-2.524-2.359-3.8-3.521a.775.775,0,0,0-1.1,1.092q2.219,2.016,4.4,4.073h0q-1.039.775-2.107,1.5c-.1.07-.205.135-.305.205q-1.048.7-2.13,1.373h0a.8.8,0,0,0,.317,1.45.714.714,0,0,0,.464-.117h.006c.657-.4,1.3-.816,1.937-1.238.123-.082.247-.164.37-.252.628-.423,1.25-.857,1.861-1.3h0q-.07,2.791-.117,5.587a.772.772,0,0,0,1.544,0c.029-1.778.07-3.557.112-5.335,1.074,1.027,2.154,2.048,3.216,3.087a.726.726,0,0,0,.569.223.794.794,0,0,0,.669-1.109.691.691,0,0,0-.153-.205c-.381-.37-.763-.728-1.144-1.1-.916-.88-1.825-1.761-2.747-2.635h0q1.3-1.03,2.547-2.13l.194-.176c.346-.311.693-.622,1.033-.939.411-.387.822-.775,1.227-1.174a.593.593,0,0,0,.112-.135.793.793,0,0,0-.634-1.18Z" transform="translate(-45.785 -95.642)" fill="#fff"/>
      <path id="Trazado_19163" data-name="Trazado 19163" d="M111.4,1021.229q-11.621-.062-23.247-.117c1-.992,2-2,2.976-3.017.317-.329.628-.657.939-.986.722-.757,1.432-1.52,2.142-2.289.3-.323.593-.646.886-.968.963-1.062,1.919-2.136,2.858-3.222a1.651,1.651,0,0,0-1.115-2.694,1.32,1.32,0,0,0-1.074.5c-.91,1.056-1.843,2.1-2.782,3.14-.376.417-.763.828-1.144,1.244q-.81.88-1.637,1.761c-.5.528-1,1.051-1.5,1.573-.423.434-.845.869-1.274,1.3-.575.587-1.156,1.174-1.737,1.755h0q-.326-12.853-.927-25.7c-.094-1.984-3.187-2-3.093,0q.634,13.293.951,26.6-6.823-5.687-13.646-11.38a1.6,1.6,0,0,0-.9-.376c-1.315-.106-2.535,1.526-1.291,2.565q6.083,5.071,12.161,10.142l-19.937-.106c-.428,0-.851,0-1.279-.006h0a1.547,1.547,0,0,0,0,3.093q4.2.018,8.393.041,7.175.035,14.35.076h0c-.886.816-1.784,1.614-2.688,2.412-.182.164-.37.323-.552.487-.786.687-1.573,1.362-2.365,2.037-.44.37-.88.734-1.321,1.1-.6.493-1.191.992-1.8,1.479-1.1.886-2.207,1.767-3.322,2.624a1.607,1.607,0,0,0-.558,2.119,1.7,1.7,0,0,0,1.256.775,1.19,1.19,0,0,0,.863-.223q1.734-1.329,3.439-2.712c.74-.593,1.467-1.2,2.2-1.8.346-.287.693-.569,1.033-.857.945-.792,1.878-1.6,2.805-2.412l.276-.241c1.015-.892,2.019-1.79,3.017-2.706h0q.3,15.477.194,30.948a1.547,1.547,0,0,0,3.093,0q.106-15.177-.182-30.355,5.529,4.6,11.051,9.214a1.6,1.6,0,0,0,.9.376c1.315.106,2.535-1.526,1.291-2.565q-5.793-4.824-11.58-9.654l23.887.123h0a1.547,1.547,0,0,0,0-3.093Z" transform="translate(-23.336 -411.135)" fill="#fff"/>
      <path id="Trazado_19164" data-name="Trazado 19164" d="M34.77,1071.466a81.4,81.4,0,0,1-6.256,5.558q.141-4.824.323-9.649c.041-1-1.508-.992-1.544,0q-.194,4.8-.323,9.6c-1.86-1.743-3.727-3.486-5.617-5.2-.734-.669-1.831.423-1.092,1.092q3.125,2.844,6.2,5.746-3.125,2.351-6.462,4.4c-.845.516-.07,1.854.781,1.338,2.1-1.28,4.132-2.659,6.11-4.114-.065,2.717-.135,5.429-.17,8.146a.772.772,0,0,0,1.544,0c.041-2.629.106-5.259.17-7.888,1.614,1.538,3.234,3.075,4.83,4.631.71.693,1.808-.4,1.092-1.092q-2.729-2.667-5.511-5.282a83.481,83.481,0,0,0,7.019-6.18.772.772,0,0,0-1.092-1.092Z" transform="translate(-8.218 -441.956)" fill="#fff"/>
      <path id="Trazado_19165" data-name="Trazado 19165" d="M.18,944.074c21.281,0,24.4-31.534,24.4-31.534s4.255,31.534,26.628,31.534c0,0-22.655,5.388-25.513,31.488C21.461,950.595.18,944.074.18,944.074Z" transform="translate(-0.18 -378.303)" fill="#fff"/>
      <path id="Trazado_19166" data-name="Trazado 19166" d="M73.01,828.849c12.3,0,14.109-18.229,14.109-18.229s2.459,18.229,15.395,18.229a20.654,20.654,0,0,0-14.749,18.206,23.065,23.065,0,0,0-14.749-18.206Z" transform="translate(-30.266 -336.2)" fill="#fff"/>
      <path id="Trazado_19167" data-name="Trazado 19167" d="M98.14,927.874c7.084,0,8.123-10.494,8.123-10.494s1.414,10.494,8.862,10.494a11.888,11.888,0,0,0-8.493,10.482A13.284,13.284,0,0,0,98.14,927.874Z" transform="translate(-40.647 -380.302)" fill="#fff"/>
      <path id="Trazado_19168" data-name="Trazado 19168" d="M33.856,854.786c4.789,0,5.493-7.1,5.493-7.1s.957,7.1,5.992,7.1a8.051,8.051,0,0,0-5.746,7.09,8.979,8.979,0,0,0-5.746-7.09Z" transform="translate(-14.089 -351.514)" fill="#fff"/>
      <path id="Trazado_19169" data-name="Trazado 19169" d="M52.559,719.41q-7.976-.044-15.958-.082c2.23-2.242,4.39-4.549,6.45-6.931,1.3-1.5-.88-3.7-2.189-2.189q-3.187,3.689-6.656,7.166-.238-8.883-.651-17.754c-.094-1.984-3.187-2-3.093,0q.44,9.244.669,18.487-4.6-3.838-9.214-7.683c-1.52-1.268-3.715.91-2.189,2.189q4,3.337,8,6.673-7.157-.035-14.309-.076a1.547,1.547,0,0,0,0,3.093q7.765.044,15.524.082-3.847,3.469-7.935,6.614a1.6,1.6,0,0,0-.558,2.113,1.561,1.561,0,0,0,2.119.558q4.481-3.442,8.692-7.254.194,10.811.123,21.633a1.547,1.547,0,0,0,3.093,0q.079-10.617-.117-21.228l7.325,6.11c1.52,1.268,3.715-.91,2.189-2.189q-3.786-3.16-7.577-6.321,8.126.044,16.257.082a1.547,1.547,0,0,0,0-3.093Z" transform="translate(-5.031 -289.73)" fill="#fff"/>
      <path id="Trazado_19170" data-name="Trazado 19170" d="M122.34,683.728a.71.71,0,0,0-.434.112.592.592,0,0,0-.135.111q-.96.942-1.96,1.837l-.194.176c-.681.61-1.379,1.2-2.084,1.778.065-2.224.135-4.443.223-6.667.041-1-1.508-.992-1.549,0-.088,2.207-.158,4.413-.223,6.614-1.262-1.18-2.524-2.359-3.8-3.521a.775.775,0,0,0-1.1,1.092q2.219,2.016,4.4,4.073h0q-1.039.775-2.107,1.5c-.1.07-.205.135-.305.205q-1.048.7-2.13,1.373h0a.8.8,0,0,0,.317,1.45.713.713,0,0,0,.464-.117h.006c.657-.4,1.3-.816,1.937-1.238.123-.082.247-.164.37-.252.628-.423,1.25-.857,1.861-1.3h0c-.047,1.86-.088,3.727-.117,5.587a.772.772,0,0,0,1.544,0c.029-1.778.07-3.557.112-5.335,1.074,1.027,2.154,2.048,3.216,3.087a.726.726,0,0,0,.569.223.794.794,0,0,0,.669-1.109.691.691,0,0,0-.153-.205c-.293-.288-.6-.569-.892-.857-1-.963-2-1.925-3-2.876a.018.018,0,0,0,.012-.006c.863-.687,1.714-1.391,2.541-2.125.065-.059.129-.117.2-.176.346-.311.693-.622,1.033-.939.411-.387.822-.775,1.227-1.174a.592.592,0,0,0,.112-.135.793.793,0,0,0-.634-1.18Z" transform="translate(-45.785 -282.378)" fill="#fff"/>
    </g>
  </g>
</svg>
