<svg xmlns="http://www.w3.org/2000/svg" xmlns:xlink="http://www.w3.org/1999/xlink" width="150" height="150" viewBox="0 0 150 150">
  <defs>
    <clipPath id="clip-Assets_5">
      <rect width="150" height="150"/>
    </clipPath>
  </defs>
  <g id="Assets_5" data-name="Assets 5" clip-path="url(#clip-Assets_5)">
    <g id="Patrones-navidad-cosito" transform="translate(13.263 18.132)">
      <path id="Unión_62" data-name="Unión 62" d="M20701.68-5692.69a12.53,12.53,0,0,1,1.828-10.287l-15.463,3.066a2.221,2.221,0,0,1-2.617-2.362,2.16,2.16,0,0,1-.553-1.8c1.012-7.216-4.8-12.967-11.867-12.675a1.805,1.805,0,0,1-1.934-1.418,1.616,1.616,0,0,1,.072-2.064c4.619-6.006,4.025-13.6.412-19.948a1.983,1.983,0,0,1,.7-2.743,2.153,2.153,0,0,1,2.514-.5c6.889,3.128,14.959,2.346,20.668-2.773a2.007,2.007,0,0,1,1.814-.5,2.022,2.022,0,0,1,2.09,2.018,11.179,11.179,0,0,0,13.5,10.887,2.254,2.254,0,0,1,1.049.047h.006a1.667,1.667,0,0,1,1.6,1.971c-.016.115-.025.234-.035.344a.158.158,0,0,0-.012.073c-.6,5.256-.689,10.541-.937,15.815a12.614,12.614,0,0,1,9.488-4.016,11.445,11.445,0,0,1,7.256,2.743c-.375-5.407-.84-10.809-1.525-16.174a1.66,1.66,0,0,1,1.605-1.976,2.09,2.09,0,0,1,1.461-.214,11.173,11.173,0,0,0,13.5-10.892,2.03,2.03,0,0,1,2.1-2.013,1.993,1.993,0,0,1,1.814.5c5.709,5.115,13.781,5.892,20.668,2.769a2.159,2.159,0,0,1,2.518.5,1.988,1.988,0,0,1,.705,2.743c-3.609,6.351-4.2,13.952.412,19.954a1.6,1.6,0,0,1,.072,2.059,1.818,1.818,0,0,1-1.934,1.424c-7.061-.292-12.869,5.454-11.867,12.669a2.207,2.207,0,0,1-.553,1.8,2.231,2.231,0,0,1-2.617,2.362l-13.752-2.727a12.742,12.742,0,0,1,2.359,12.91c-3.535,9.728-15.564,10.624-21.936,3.969a12.8,12.8,0,0,1-6.156,3.946,13.083,13.083,0,0,1-3.654.523A13.311,13.311,0,0,1,20701.68-5692.69Zm40.84-.589c2.086-7.743-5.568-13.118-12.467-10.381a1.923,1.923,0,0,1-.73.141,9.432,9.432,0,0,0-2.559,2.367,3.014,3.014,0,0,1-.277.325,12.81,12.81,0,0,1,.465,1.312,13.2,13.2,0,0,1-.383,8.6C20730.8-5685.2,20740.434-5685.512,20742.52-5693.279Zm-32.42-8.05a6.086,6.086,0,0,0-2.816,4.922,2.11,2.11,0,0,0,2.092,2.1,2.141,2.141,0,0,0,2.1-2.1,1.365,1.365,0,0,0,.006-.141c.025-.109.051-.224.082-.328a.463.463,0,0,0,.021-.136,1.164,1.164,0,0,0,.1-.125c.016-.031.256-.329.225-.313.066-.068.135-.135.2-.2.025-.016.057-.037.1-.068l.006.01a2.141,2.141,0,0,0,.75-2.862,2.213,2.213,0,0,0-1.865-1.046A1.817,1.817,0,0,0,20710.1-5701.329Zm-21.064-3.04q9.129-1.806,18.248-3.618-9.337-8.509-18.67-17.013c-2-1.82.969-4.771,2.957-2.961q9.252,8.43,18.5,16.851c.443-6.1.453-12.227,1.012-18.316a15.254,15.254,0,0,1-15.443-11.679,23.074,23.074,0,0,1-18.609,2.842c2.133,5.742,2.273,12.12-.6,17.551A15.378,15.378,0,0,1,20689.035-5704.369Zm35.105-.1a13.556,13.556,0,0,1,7.014-4.312,7.523,7.523,0,0,0-8.953-6.462c-3.652.639-5.947,3.363-7,6.634A13.287,13.287,0,0,1,20724.141-5704.472Zm32.9-21.92q-9.337,8.509-18.676,17.013,9.123,1.806,18.244,3.617a15.378,15.378,0,0,1,12.617-16.339c-2.883-5.433-2.748-11.815-.611-17.561a23.074,23.074,0,0,1-18.607-2.841,15.26,15.26,0,0,1-15.834,11.663c.709,6.053,1.162,12.138,1.543,18.217q9.19-8.361,18.363-16.726a2.044,2.044,0,0,1,1.395-.57C20757.143-5729.918,20758.6-5727.807,20757.045-5726.392Zm-20.84,33.666a2.116,2.116,0,0,1-.75-2.862,1.464,1.464,0,0,0-.168-2.122v-.01c-1.965-1.846,1-4.8,2.957-2.957a5.69,5.69,0,0,1,.824,7.2,2.3,2.3,0,0,1-1.85,1.037A2,2,0,0,1,20736.205-5692.727Z" transform="translate(-20661.139 5769.705)" fill="#fff"/>
      <path id="Trazado_22769" data-name="Trazado 22769" d="M130.91,111.706q-2.051-.695-4.095-1.39l-2.982-1.009c-.2-.067-.77-.321-1.158-.448-.12-.314-.336-.762-.4-.956-.329-.971-.658-1.943-.986-2.907-.486-1.42-.964-2.84-1.45-4.259a.912.912,0,0,0-.755-.814.1.1,0,0,1-.045-.007.736.736,0,0,0-.127-.015h-.179a.577.577,0,0,0-.112.015.164.164,0,0,0-.06.007.912.912,0,0,0-.755.814c-.448,1.315-.889,2.63-1.338,3.945l-1.009,2.982c-.067.2-.321.77-.448,1.158-.314.12-.762.336-.956.4l-2.907.986-4.416,1.5a1.014,1.014,0,0,0,0,1.935q2.051.695,4.095,1.39l2.981,1.009c.2.067.77.321,1.158.448.12.314.336.762.4.956.329.971.658,1.943.986,2.907l1.5,4.416a1.014,1.014,0,0,0,1.935,0l1.39-4.1,1.009-2.982c.067-.2.321-.77.448-1.158.314-.12.762-.336.956-.4l2.907-.986,4.416-1.5a1.014,1.014,0,0,0,0-1.935Zm-5.574,1.711c-1.091.374-3.355.673-4.229,1.547-.815.822-1.091,2.9-1.435,3.916l-.852,2.511c-.247-.732-.5-1.465-.747-2.2-.374-1.091-.673-3.355-1.547-4.229-.814-.822-2.892-1.091-3.916-1.442l-2.511-.852c.732-.247,1.465-.5,2.2-.747,1.091-.374,3.355-.673,4.229-1.547.815-.822,1.091-2.9,1.435-3.916l.852-2.511c.247.732.5,1.465.747,2.2.374,1.091.673,3.355,1.547,4.229.814.822,2.892,1.091,3.916,1.442l2.511.852C126.8,112.917,126.068,113.171,125.336,113.418Z" transform="translate(-24.371 -19.944)" fill="#fff"/>
      <path id="Trazado_24941" data-name="Trazado 24941" d="M116.36,104.805l-1.7-.577-1.239-.419c-.084-.028-.32-.134-.481-.186-.05-.13-.14-.317-.168-.4-.137-.4-.273-.807-.41-1.208-.2-.59-.4-1.18-.6-1.77a.379.379,0,0,0-.314-.338.039.039,0,0,1-.019,0,.308.308,0,0,0-.053-.006H111.3a.241.241,0,0,0-.047.006.068.068,0,0,0-.025,0,.379.379,0,0,0-.314.338c-.186.546-.369,1.093-.556,1.639l-.419,1.239c-.028.084-.134.32-.186.481-.13.05-.317.14-.4.168l-1.208.41-1.835.624a.421.421,0,0,0,0,.8l1.7.577,1.239.419c.084.028.32.133.481.186.05.13.14.317.168.4.137.4.273.807.41,1.208l.624,1.835a.421.421,0,0,0,.8,0l.577-1.7.419-1.239c.028-.084.134-.32.186-.481.13-.05.317-.14.4-.168l1.208-.41,1.835-.624a.421.421,0,0,0,0-.8Zm-2.316.711a5.2,5.2,0,0,0-1.757.643,4.772,4.772,0,0,0-.6,1.627l-.354,1.043c-.1-.3-.208-.609-.31-.913a5.2,5.2,0,0,0-.643-1.757,4.73,4.73,0,0,0-1.627-.6l-1.043-.354c.3-.1.609-.208.913-.31a5.2,5.2,0,0,0,1.757-.643,4.772,4.772,0,0,0,.6-1.627l.354-1.043c.1.3.208.609.31.913a5.2,5.2,0,0,0,.643,1.757,4.731,4.731,0,0,0,1.627.6l1.043.354C114.653,105.308,114.348,105.414,114.044,105.516Z" transform="translate(-84.669 -99.398)" fill="#fff"/>
      <path id="Trazado_22770" data-name="Trazado 22770" d="M84.845,17.56c-.927-.314-1.861-.635-2.787-.949-.673-.232-1.353-.456-2.025-.687-.134-.045-.523-.217-.792-.306-.082-.217-.232-.516-.276-.65-.224-.658-.448-1.323-.673-1.98-.329-.964-.658-1.935-.986-2.9a.619.619,0,0,0-.516-.553h-.03a.375.375,0,0,1-.09-.015h-.127a.23.23,0,0,0-.075.007h-.037a.619.619,0,0,0-.516.553c-.306.9-.605,1.793-.912,2.683-.232.673-.456,1.353-.687,2.025-.045.135-.217.523-.306.792-.217.082-.516.232-.65.276-.658.224-1.315.448-1.98.673-1,.344-2,.68-3,1.024a.688.688,0,0,0,0,1.315c.927.314,1.861.635,2.787.949.673.232,1.353.456,2.025.687.135.045.523.217.792.306.082.217.232.516.277.65.224.658.448,1.323.673,1.98.344,1,.68,2,1.024,3a.687.687,0,0,0,1.315,0c.314-.927.635-1.861.949-2.787.232-.673.456-1.353.687-2.025.045-.135.217-.523.306-.792.217-.082.516-.232.65-.276.658-.224,1.315-.448,1.98-.673,1-.344,2-.68,3-1.024a.688.688,0,0,0,0-1.315Z" transform="translate(-14.734 0.578)" fill="#fff"/>
      <path id="Trazado_24940" data-name="Trazado 24940" d="M80.929,15.7c-.713-.241-1.431-.488-2.143-.73-.517-.178-1.04-.351-1.557-.529-.1-.034-.4-.167-.609-.236-.063-.167-.178-.4-.213-.5-.172-.506-.345-1.017-.517-1.523-.253-.741-.506-1.488-.759-2.23a.476.476,0,0,0-.4-.425h-.023a.288.288,0,0,1-.069-.011h-.1a.177.177,0,0,0-.057.006h-.029a.476.476,0,0,0-.4.425c-.236.69-.465,1.379-.7,2.063-.178.517-.351,1.04-.529,1.557-.034.1-.167.4-.236.609-.167.063-.4.178-.5.213-.506.172-1.011.345-1.523.517-.77.264-1.54.523-2.31.787a.529.529,0,0,0,0,1.011c.713.241,1.431.488,2.143.73.517.178,1.04.351,1.557.529.1.034.4.167.609.236.063.167.178.4.213.5.172.506.345,1.017.517,1.523.264.77.523,1.54.787,2.31a.528.528,0,0,0,1.011,0c.241-.713.488-1.431.73-2.143.178-.517.351-1.04.529-1.557.034-.1.167-.4.236-.609.167-.063.4-.178.5-.213.506-.172,1.011-.345,1.523-.517.77-.264,1.54-.523,2.31-.787a.529.529,0,0,0,0-1.011Z" transform="translate(-28.146 89.328)" fill="#fff"/>
    </g>
  </g>
</svg>
