<svg xmlns="http://www.w3.org/2000/svg" fill="none" height="17" width="17" style=""><rect id="backgroundrect" width="100%" height="100%" x="0" y="0" fill="none" stroke="none"/><defs/><g class="currentLayer" style=""><title>Layer 1</title><path clip-rule="evenodd" d="M8.5 16a7.5 7.5 0 100-15 7.5 7.5 0 000 15z" fill="#717171" fill-rule="evenodd" id="svg_1" class=""/><path clip-rule="evenodd" d="M17 8.5a8.5 8.5 0 11-17 0 8.5 8.5 0 0117 0zm-1 0a7.5 7.5 0 11-15 0 7.5 7.5 0 0115 0z" fill="#000" fill-opacity=".15" fill-rule="evenodd" id="svg_2"/><path fill="#ff4444" fill-opacity="1" stroke="#ff4444" stroke-opacity="1" stroke-width="1" stroke-dasharray="none" stroke-linejoin="miter" stroke-linecap="butt" stroke-dashoffset="" fill-rule="evenodd" opacity="1" marker-start="" marker-mid="" marker-end="" d="M0.6122449040412903,8.428571437151543 C0.6122449040412903,4.019957157336038 4.18322247069185,0.44897959068547877 8.591836750507355,0.44897959068547877 C13.000451030322859,0.44897959068547877 16.57142859697342,4.019957157336038 16.57142859697342,8.428571437151543 C16.57142859697342,12.837185716967047 13.000451030322859,16.408163283617608 8.591836750507355,16.408163283617608 C4.18322247069185,16.408163283617608 0.6122449040412903,12.837185716967047 0.6122449040412903,8.428571437151543 z" id="svg_4" class=""/><rect fill="#05c800" stroke="#05c800" stroke-dashoffset="" fill-rule="evenodd" id="svg_7" x="-10" y="9" width="0" height="1" style="color: rgb(5, 200, 0);"/><rect fill="#fff" stroke-dashoffset="" fill-rule="nonzero" x="7.457090377807617" y="3.910386323928833" width="1.9429636001586914" height="9.158815383911133" style="color: rgb(5, 200, 0);" class="" transform="rotate(39.743038177490234 8.428572654724123,8.489793777465819) " id="svg_5"/><rect fill="#fff" stroke-dashoffset="" fill-rule="nonzero" x="7.620355606079102" y="3.992018938064575" width="1.9429636001586914" height="9.158815383911133" style="color: rgb(5, 200, 0);" class="" transform="rotate(-44.8770637512207 8.591837882995607,8.571426391601564) " id="svg_8"/><image xmlns:xlink="http://www.w3.org/1999/xlink" id="svg_6" x="9" y="11" width="1" height="0" style="color: rgb(255, 68, 68);" xlink:href="logo/vector_paint_icon256.png"/></g></svg>