<svg xmlns="http://www.w3.org/2000/svg" width="141.256" height="80.728" viewBox="0 0 141.256 80.728">
  <g id="patrone-aniversario-24-2" transform="translate(-25.54 -21.295)">
    <g id="Grupo_7582" transform="translate(64.75 91.305)" opacity="0.802">
      <g id="Grupo_7581">
        <path id="Trazado_25469" d="M199.314,269.245l-.425,2.345H197.13l1.864-10.18h2.292l1.864,10.18h-1.759l-.372-2.345Zm.853-5.49-.639,4h1.225Z" transform="translate(-186.045 -261.04)" fill="#fff"/>
        <path id="Trazado_25470" d="M220.159,262.965H218.4V261.42h5.223v1.545h-1.759V271.6h-1.706Z" transform="translate(-201.08 -261.047)" fill="#fff"/>
        <path id="Trazado_25471" d="M241.86,271.59V261.41h4.8v1.545h-3.092v2.773H245.8v1.545h-2.239v2.773h3.092v1.545Z" transform="translate(-217.664 -261.04)" fill="#fff"/>
        <path id="Trazado_25472" d="M289.746,271.59H288.04V261.41h1.653v10.18Z" transform="translate(-250.308 -261.04)" fill="#fff"/>
        <path id="Trazado_25473" d="M301.684,269.245l-.425,2.345H299.5l1.864-10.18h2.292l1.864,10.18h-1.759l-.372-2.345Zm.906-5.49-.639,4h1.225Z" transform="translate(-258.409 -261.04)" fill="#fff"/>
        <path id="Trazado_25474" d="M366.243,271.59H364.59V261.41h1.653Z" transform="translate(-304.42 -261.04)" fill="#fff"/>
        <path id="Trazado_25475" d="M380.005,268.844a2.938,2.938,0,0,1-.586,1.811,2.37,2.37,0,0,1-1.172.747,2.652,2.652,0,0,1-.958.105,3.17,3.17,0,0,1-1.653-.425,2.638,2.638,0,0,1-.853-1.011,4.082,4.082,0,0,1-.372-1.439l1.6-.105a2.031,2.031,0,0,0,.533,1.278.732.732,0,0,0,.692.267,1.111,1.111,0,0,0,.906-.481,1.245,1.245,0,0,0,.161-.692,1.844,1.844,0,0,0-.639-1.278c-.319-.267-.853-.747-1.492-1.278A6.063,6.063,0,0,1,375,265.01a2.612,2.612,0,0,1-.372-1.439,2.3,2.3,0,0,1,1.011-2.078,3.2,3.2,0,0,1,3.092-.053,2.888,2.888,0,0,1,.8.8,2.769,2.769,0,0,1,.372,1.172l-1.6.267a1.6,1.6,0,0,0-.372-.958.875.875,0,0,0-.639-.267.72.72,0,0,0-.692.372,1.524,1.524,0,0,0-.214.747,2.187,2.187,0,0,0,.639,1.439c.161.161.425.372.747.639.372.32.639.481.8.639a4.445,4.445,0,0,1,.958,1.12,2.078,2.078,0,0,1,.267.481,3.182,3.182,0,0,1,.214.958Z" transform="translate(-311.362 -260.798)" fill="#fff"/>
        <g id="Grupo_7580" transform="translate(0 0.265)">
          <path id="Trazado_25476" d="M167.25,261.05H168.8v1.334l-4.743,7.2-2.664-4.1v5.915H159.31V261.05h1.6l3.145,4.8Z" transform="translate(-159.31 -261.05)" fill="#fff"/>
          <path id="Trazado_25477" d="M184.76,279.736V274.3l2.025-1.439v6.876Z" transform="translate(-177.3 -269.398)" fill="#fff"/>
        </g>
        <path id="Trazado_25478" d="M264.783,267.741v3.837H263.13V261.4h2.664a2.947,2.947,0,0,1,2.078.692,2.45,2.45,0,0,1,.586,1.706v1.492a2.249,2.249,0,0,1-.906,1.811l1.225,4.423h-1.811l-1.011-3.837h0l-.425-1.492h.319a1.128,1.128,0,0,0,.692-.267.717.717,0,0,0,.267-.639V263.8c0-.586-.32-.906-.958-.906h-1.011v3.251l-.053,1.6h0Z" transform="translate(-232.699 -261.028)" fill="#fff"/>
        <path id="Trazado_25479" d="M343.883,267.741v3.837H342.23V261.4h2.664a2.948,2.948,0,0,1,2.078.692,2.45,2.45,0,0,1,.586,1.706v1.492a2.249,2.249,0,0,1-.906,1.811l1.225,4.423h-1.811l-1.011-3.837h0l-.425-1.492h.319a1.128,1.128,0,0,0,.692-.267.716.716,0,0,0,.267-.639V263.8c0-.586-.319-.906-.958-.906h-1.011v3.251l-.053,1.6Z" transform="translate(-288.614 -261.028)" fill="#fff"/>
        <path id="Trazado_25480" d="M325.3,263.824v-1.172a2.269,2.269,0,0,0-.8-1.759,2.842,2.842,0,0,0-3.837,0,2.288,2.288,0,0,0-.8,1.759v.106l1.439,7.782a2.507,2.507,0,0,0,1.278.267,2.779,2.779,0,0,0,1.92-.747,2.288,2.288,0,0,0,.8-1.759v-3.623H322.58v1.545h.958v2.025a.886.886,0,0,1-.267.639,1.036,1.036,0,0,1-1.386,0,.716.716,0,0,1-.267-.639v-5.7a.886.886,0,0,1,.267-.639,1.036,1.036,0,0,1,1.386,0,.716.716,0,0,1,.267.639v1.225l1.759.053h0Z" transform="translate(-272.801 -260.148)" fill="#fff"/>
      </g>
    </g>
    <g id="Grupo_7624" data-name="Grupo 7624" transform="translate(25.54 30.962)" opacity="0.5" style="isolation: isolate">
      <path id="Trazado_25838" data-name="Trazado 25838" d="M49.977,102.671a11.819,11.819,0,0,0-10.526-4.086c-.621.106-.457,1.076.147,1.076a15.645,15.645,0,0,1,10.2,3.186.127.127,0,0,0,.179-.179Z" transform="translate(-35.096 -85.503)" fill="#fff"/>
      <path id="Trazado_25839" data-name="Trazado 25839" d="M49.977,102.671a11.819,11.819,0,0,0-10.526-4.086c-.621.106-.457,1.076.147,1.076a15.645,15.645,0,0,1,10.2,3.186.127.127,0,0,0,.179-.179Z" transform="translate(-35.096 -85.503)" fill="#fff"/>
      <path id="Trazado_25840" data-name="Trazado 25840" d="M95.944,94.241a8.608,8.608,0,0,0-9.6,5.056c-.07.173.2.267.29.123a8.781,8.781,0,0,1,9.034-4.171C96.32,95.352,96.613,94.37,95.944,94.241Z" transform="translate(-68.512 -82.416)" fill="#fff"/>
      <path id="Trazado_25841" data-name="Trazado 25841" d="M78.59,70.959c-1.838,3.506-2.914,7.917-.853,11.572a.116.116,0,0,0,.211-.088c-1.231-3.857-.223-7.454,1.586-10.933.322-.621-.616-1.175-.941-.551Z" transform="translate(-61.645 -65.875)" fill="#fff"/>
      <path id="Trazado_25842" data-name="Trazado 25842" d="M95.175,125.357a9.725,9.725,0,0,0-11.036-7.424c-.147.029-.1.24.032.249a10.4,10.4,0,0,1,9.925,7.471.558.558,0,0,0,1.076-.3Z" transform="translate(-66.899 -99.16)" fill="#fff"/>
      <path id="Trazado_25843" data-name="Trazado 25843" d="M81.856,122.386c-.191-.114-.352.17-.173.293a10.856,10.856,0,0,1,3.673,4.279,18.759,18.759,0,0,1,1.193,5.159.482.482,0,0,0,.923,0c.586-3.846-2.506-7.879-5.616-9.734Z" transform="translate(-65.172 -102.403)" fill="#fff"/>
      <path id="Trazado_25844" data-name="Trazado 25844" d="M55.369,118.182c-4.235.66-8.119,5.616-8.412,9.79-.041.589.829.66.994.135A17.435,17.435,0,0,1,50.3,122.69a11.963,11.963,0,0,1,5.17-4.139.192.192,0,0,0-.1-.369Z" transform="translate(-40.678 -99.448)" fill="#fff"/>
      <path id="Trazado_25845" data-name="Trazado 25845" d="M51.2,117.368a9.067,9.067,0,0,0-5.675,1.709c-.278.214-.038.674.284.487a14.053,14.053,0,0,1,5.42-1.981C51.355,117.565,51.317,117.374,51.2,117.368Z" transform="translate(-39.581 -98.872)" fill="#fff"/>
      <path id="Trazado_25846" data-name="Trazado 25846" d="M77.358,132.557c-1.213-1.97-.788-3.963-.363-6.108a.183.183,0,0,0-.352-.1c-.768,2.134-1.351,4.675.182,6.616.24.3.73-.088.531-.41Z" transform="translate(-61.114 -105.136)" fill="#fff"/>
      <path id="Trazado_25847" data-name="Trazado 25847" d="M102.091,111.734a11.182,11.182,0,0,0-7.208-.144.116.116,0,0,0,.062.223,12.06,12.06,0,0,1,7.032.334C102.232,112.244,102.352,111.821,102.091,111.734Z" transform="translate(-74.501 -94.415)" fill="#fff"/>
      <path id="Trazado_25848" data-name="Trazado 25848" d="M91.524,80.637a9.881,9.881,0,0,0-3.21,5.886c-.029.167.223.24.258.07a10.522,10.522,0,0,1,3.251-5.657C92.022,80.745,91.729,80.461,91.524,80.637Z" transform="translate(-69.913 -72.871)" fill="#fff"/>
      <path id="Trazado_25849" data-name="Trazado 25849" d="M58.925,84.261a10.485,10.485,0,0,0-4.957-5.994.337.337,0,0,0-.34.58,13.181,13.181,0,0,1,5,5.537.159.159,0,0,0,.29-.123Z" transform="translate(-45.281 -71.202)" fill="#fff"/>
      <path id="Trazado_25850" data-name="Trazado 25850" d="M47.94,73.521c-.041.006-.079.012-.12.015a.6.6,0,0,0-.39.161.558.558,0,0,0-.161.39.568.568,0,0,0,.551.551l.12.018a.566.566,0,0,0,.4-.167.573.573,0,0,0,.167-.4c-.012-.273-.252-.61-.566-.566Z" transform="translate(-40.9 -67.877)" fill="#fff"/>
      <path id="Trazado_25851" data-name="Trazado 25851" d="M125.064,94.59a.419.419,0,0,0,0,.838A.419.419,0,0,0,125.064,94.59Z" transform="translate(-95.607 -82.773)" fill="#fff"/>
      <path id="Trazado_25852" data-name="Trazado 25852" d="M81.713,152.818a.5.5,0,0,0-1,0,.4.4,0,0,0,.015.243.534.534,0,0,0,.973,0A.4.4,0,0,0,81.713,152.818Z" transform="translate(-64.531 -123.599)" fill="#fff"/>
      <path id="Trazado_25853" data-name="Trazado 25853" d="M84.571,56.748c-.671-.193-1.334-.413-2-.63-.015-.006-.026,0-.041-.006-.035-.551-.079-1.1-.12-1.653a.184.184,0,0,0-.311-.129,3.987,3.987,0,0,0-.923,1.53,14.147,14.147,0,0,0-1.381-.422.2.2,0,0,0-.193.331c.293.317.592.627.891.938a4.79,4.79,0,0,0-.961,1.029c-.114.164.073.331.234.3a7.349,7.349,0,0,0,1.791-.542c.258.63.58,1.243.885,1.852.1.2.4.094.4-.108.035-1.128.387-2.058,1.668-2.078a.214.214,0,0,0,.056-.419Zm-1.621.569a2,2,0,0,0-.489,1.134c-.205-.4-.419-.791-.657-1.167a.149.149,0,0,0-.1-.067.206.206,0,0,0-.258-.082,7.344,7.344,0,0,1-1.231.4,4.294,4.294,0,0,1,.68-.621.21.21,0,0,0,.041-.325c-.188-.2-.378-.393-.569-.589a8.1,8.1,0,0,0,.835.167c.117.015.149-.091.12-.179a5.9,5.9,0,0,1,.745-1.087c.032.5.067,1,.111,1.495a.194.194,0,0,0,.27.158c.372.108.742.22,1.114.331a1.857,1.857,0,0,0-.618.437Z" transform="translate(-63.684 -54.276)" fill="#fff" opacity="0.997"/>
      <path id="Trazado_25854" data-name="Trazado 25854" d="M30.368,121.581c-.545-.278-1.105-.536-1.624-.859L28.7,120.7a4.657,4.657,0,0,0,.1-1.612c-.015-.164-.243-.319-.372-.155l-1.082,1.4a4.534,4.534,0,0,1-1.114-.786c-.147-.141-.44,0-.363.211.205.572.372,1.155.592,1.718,0,.012.012.018.015.026s-.006,0-.006.006a9.685,9.685,0,0,1-.876,1.325c-.12.144-.012.454.211.361.492-.205.982-.422,1.468-.636a7.682,7.682,0,0,0,.786,1.372.2.2,0,0,0,.372-.1c.012-.487.023-.97.035-1.457a12.956,12.956,0,0,0,1.855-.387.225.225,0,0,0,.053-.407Zm-3.054.548c-.325.129-.651.255-.973.384a3.879,3.879,0,0,0,.413-.885.14.14,0,0,0-.015-.12.17.17,0,0,0,.021-.117,7.359,7.359,0,0,0-.246-1.041,4.545,4.545,0,0,0,.78.451.234.234,0,0,0,.3-.079l.78-1.017c-.009.416-.056.827-.1,1.249a.132.132,0,0,0,.123.155.285.285,0,0,0,.138.1c.372.144.736.322,1.1.5a11.377,11.377,0,0,1-1.381.27.218.218,0,0,0-.211.211l-.012.991a7.385,7.385,0,0,1-.507-.967.189.189,0,0,0-.214-.088Z" transform="translate(-25.54 -99.931)" fill="#fff" opacity="0.997"/>
      <path id="Trazado_25855" data-name="Trazado 25855" d="M125.856,114.111c-.522-.132-1.09-.085-1.595-.214-.557-.144-.577-.97-.762-1.486a.211.211,0,0,0-.381-.05,3.826,3.826,0,0,0-.542,1.117h-.006a3,3,0,0,0-1.518.114.232.232,0,0,0-.056.416,2.055,2.055,0,0,1,.624.607.739.739,0,0,1-.191.915.658.658,0,0,0-.205.706.248.248,0,0,0,.3.17c.481-.185.973-.358,1.436-.58a2.964,2.964,0,0,0,1.281,1.3c.1.056.278-.012.261-.149q-.119-.928-.249-1.85a4.042,4.042,0,0,0,1.647-.651.2.2,0,0,0-.047-.355Zm-1.8.671a.183.183,0,0,0-.182.182c.073.554.152,1.105.234,1.659a2.565,2.565,0,0,1-.829-1.014.154.154,0,0,0-.091-.082.2.2,0,0,0-.229-.126,11.15,11.15,0,0,0-1.134.372,2.5,2.5,0,0,0,.27-.343,1.1,1.1,0,0,0,.076-.589,1.53,1.53,0,0,0-.554-.923,4.688,4.688,0,0,1,.912-.082.168.168,0,0,0,.129-.059.14.14,0,0,0,.141-.088,3.949,3.949,0,0,1,.416-.774c.117.419.226.841.319,1.269a.23.23,0,0,0,.217.164,9.065,9.065,0,0,1,1.574.076,2.486,2.486,0,0,1-1.263.355Z" transform="translate(-92.942 -95.266)" fill="#fff" opacity="0.997"/>
    </g>
    <path id="Trazado_25414" d="M164.872,26.218a28.751,28.751,0,0,1,2.146,2.787A18.116,18.116,0,0,1,168.46,32a19.536,19.536,0,0,1,.786,3.154,22.774,22.774,0,0,1,.255,3.4,16.209,16.209,0,0,1-.158,2.5,20.336,20.336,0,0,1-.487,2.3,14.227,14.227,0,0,1-.692,2.093c-.284.7-.613,1.354-.938,2.011l-.243.492a2.781,2.781,0,0,1-.284.451l-1.633,2.667-11.6,17.613a2.725,2.725,0,0,1-2.333,1.357l-5.37.015a2.582,2.582,0,0,1-2.143-4.01l7.512-11.578h-.082a13.945,13.945,0,0,1-6.067-1.008,14.316,14.316,0,0,1-4.845-3.47h0a16.379,16.379,0,0,1-3.086-5.115,18.1,18.1,0,0,1-1.041-6.023,18.75,18.75,0,0,1,1.131-6.683,17.289,17.289,0,0,1,3.47-5.666,14.921,14.921,0,0,1,5.32-3.907,16.888,16.888,0,0,1,6.677-1.287,17.969,17.969,0,0,1,3.362.319,13.9,13.9,0,0,1,3.283,1.058,20.337,20.337,0,0,1,5.619,3.547ZM155.5,44.734a6.794,6.794,0,0,0,2.169-1.6,7.835,7.835,0,0,0,1.427-2.421A7.549,7.549,0,0,0,159.579,38a6.861,6.861,0,0,0-4.318-6.545,5.42,5.42,0,0,0-2.746-.607,6.513,6.513,0,0,0-2.579.662,6.674,6.674,0,0,0-2.128,1.6,7.306,7.306,0,0,0-1.427,2.3,8.851,8.851,0,0,0-.006,5.4c.006.018.015.035.021.053a7.877,7.877,0,0,0,1.439,2.374,5.959,5.959,0,0,0,2.134,1.553,7.837,7.837,0,0,0,5.534-.056Z" transform="translate(-78.092 0)" fill="#fff" style="isolation: isolate"/>
    <g id="Grupo_7560" transform="translate(90.145 44.953)" style="isolation: isolate">
      <path id="Trazado_25415" d="M248.2,113v-.023l-.015-5.452h-.246a2.01,2.01,0,0,1-1.723-.979,1.986,1.986,0,0,1-.006-1.967l.938-1.559a1.943,1.943,0,0,1,1.677-.988l4.385-.012a2,2,0,0,1,1.641.856,9.764,9.764,0,0,1,1.556-.536,11,11,0,0,1,2.623-.334,10.557,10.557,0,0,1,4.265.85,11.125,11.125,0,0,1,3.45,2.327,10.875,10.875,0,0,1,2.345,3.479,10.552,10.552,0,0,1,.871,4.262l.026,10.534a3.479,3.479,0,0,1-3.55,3.532h-.05a3.552,3.552,0,0,1-3.535-3.517l-.026-10.534a3.842,3.842,0,0,0-.29-1.515,4.588,4.588,0,0,0-.824-1.269,3.831,3.831,0,0,0-1.231-.818,3.74,3.74,0,0,0-1.518-.284,3.842,3.842,0,0,0-1.515.29,4.342,4.342,0,0,0-1.228.824,4.086,4.086,0,0,0-.818,1.231,3.74,3.74,0,0,0-.284,1.518l.026,10.534a3.525,3.525,0,1,1-7.049.021v-.006l-.018-7.213L248.19,113Z" transform="translate(-245.951 -102.008)" fill="#fff"/>
    </g>
    <g id="Grupo_7561" transform="translate(115.267 44.771)" style="isolation: isolate">
      <path id="Trazado_25416" d="M349.571,113.994a4.629,4.629,0,0,0-.457-1.967,6.873,6.873,0,0,0-1.275-1.8,6.665,6.665,0,0,0-1.765-1.266,4.753,4.753,0,0,0-1.97-.446,5.091,5.091,0,0,0-3.972,1.691,5.95,5.95,0,0,0-1.061,1.765,5.831,5.831,0,0,0-.363,2.049,5.607,5.607,0,0,0,.375,2.008,5.525,5.525,0,0,0,1.07,1.759,5.09,5.09,0,0,0,3.98,1.671C349.263,119.458,349.571,113.994,349.571,113.994Zm6.686-2.113a10.934,10.934,0,0,1-.566,6.528l-.123.284a13.149,13.149,0,0,1-6.665,6.739,11.339,11.339,0,0,1-4.751,1.079,12.141,12.141,0,0,1-5.085-1.011,12.808,12.808,0,0,1-3.942-2.738,12.375,12.375,0,0,1-2.55-4.01,13.445,13.445,0,0,1-.914-4.751,12.741,12.741,0,0,1,.891-4.8,12.424,12.424,0,0,1,6.4-6.768l.023-.009a12.121,12.121,0,0,1,5.08-1.038,11.514,11.514,0,0,1,4.8,1.011,12.843,12.843,0,0,1,3.983,2.735s2.395,1.885,3.429,6.75Z" transform="translate(-331.658 -101.386)" fill="#fff"/>
    </g>
    <path id="Trazado_25417" d="M270.629,63.737,270.6,52.1l7.46-.018V53.8l-5.364.015.009,3.28,4.344-.012v1.68l-4.341.012.012,5-2.09.006V63.74Z" transform="translate(-173.23 -21.761)" fill="#fff" opacity="0.901" style="isolation: isolate"/>
    <path id="Trazado_25418" d="M298.843,71.348a4.426,4.426,0,0,1-2.216-.528,3.852,3.852,0,0,1-1.521-1.512,4.442,4.442,0,0,1-.539-2.213,4.745,4.745,0,0,1,.528-2.3,4.183,4.183,0,0,1,1.471-1.562,4.4,4.4,0,0,1,2.254-.58,4.03,4.03,0,0,1,2.134.528,3.57,3.57,0,0,1,1.439,1.471,4.351,4.351,0,0,1,.539,2.049v.369a1.385,1.385,0,0,1-.038.41l-6.229.015a2.272,2.272,0,0,0,.659,1.515,2.121,2.121,0,0,0,1.477.531,1.8,1.8,0,0,0,1.064-.29,2.289,2.289,0,0,0,.654-.739l2.131-.006a4.051,4.051,0,0,1-2.084,2.465,3.683,3.683,0,0,1-1.721.372Zm-.018-6.885a2.149,2.149,0,0,0-1.351.454,2.048,2.048,0,0,0-.777,1.354l4.1-.012a1.887,1.887,0,0,0-.618-1.31,1.836,1.836,0,0,0-1.354-.489Z" transform="translate(-190.17 -29.234)" fill="#fff" opacity="0.901" style="isolation: isolate"/>
    <path id="Trazado_25419" d="M325.309,62.745l-.029-12.009,2.131-.006L327.44,62.7l-2.131.006Z" transform="translate(-211.883 -20.807)" fill="#fff" opacity="0.901" style="isolation: isolate"/>
    <path id="Trazado_25420" d="M346.21,71.754V70.033l4.165-4.766-4.139.012-.006-1.762,6.557-.018v1.721l-4.247,4.766,4.344-.012.006,1.762-6.68.018Z" transform="translate(-226.678 -29.834)" fill="#fff" opacity="0.901" style="isolation: isolate"/>
    <g id="Grupo_7563" transform="translate(55.394 71.693)" opacity="0.901" style="isolation: isolate">
      <path id="Trazado_25421" d="M127.39,207.4l4.438-12.349,2.5-.006,4.5,12.325-2.377.006-.991-2.867-4.713.012-.976,2.872-2.377.006Zm3.963-4.6,3.526-.009-1.817-5.118Z" transform="translate(-127.39 -194.518)" fill="#fff"/>
      <path id="Trazado_25422" d="M168.171,215.509l-.021-8.729,1.967-.006.167,1.474a3.025,3.025,0,0,1,1.143-1.231,3.562,3.562,0,0,1,1.8-.454,3.08,3.08,0,0,1,2.5,1.017,4.359,4.359,0,0,1,.909,2.99l.012,4.918-2.254.006-.012-4.713a2.968,2.968,0,0,0-.454-1.721,1.645,1.645,0,0,0-1.436-.613,2.026,2.026,0,0,0-1.556.66,2.673,2.673,0,0,0-.61,1.888l.012,4.508-2.172.006h0Z" transform="translate(-156.203 -202.652)" fill="#fff"/>
      <path id="Trazado_25423" d="M199.757,196.281a1.5,1.5,0,0,1-1.026-.366,1.334,1.334,0,0,1-.413-.941,1.186,1.186,0,0,1,.407-.944,1.433,1.433,0,0,1,1.023-.372,1.5,1.5,0,0,1,1.026.366,1.274,1.274,0,0,1,.413.941,1.186,1.186,0,0,1-.407.944A1.491,1.491,0,0,1,199.757,196.281Zm-1.123,10.086-.021-8.729,2.254-.006.021,8.729Z" transform="translate(-177.527 -193.533)" fill="#fff"/>
      <path id="Trazado_25424" d="M211.778,215.876l-3.218-8.723,2.336-.006,2.231,6.592,2.2-6.6,2.336-.006-3.174,8.738-2.705.006Z" transform="translate(-184.768 -203.058)" fill="#fff"/>
      <path id="Trazado_25425" d="M241.772,215.428a4.926,4.926,0,0,1-2.339-.569,4,4,0,0,1-1.6-1.595,5.01,5.01,0,0,1-.58-2.377,5.154,5.154,0,0,1,.569-2.421,4.017,4.017,0,0,1,1.553-1.644A4.96,4.96,0,0,1,244,206.81a3.955,3.955,0,0,1,1.521,1.553,4.39,4.39,0,0,1,.539,2.172v.41a1.8,1.8,0,0,1-.038.451l-6.6.018a2.246,2.246,0,0,0,.7,1.6,2.274,2.274,0,0,0,1.559.569,2.082,2.082,0,0,0,1.146-.331,1.929,1.929,0,0,0,.695-.821l2.3-.006a4.533,4.533,0,0,1-.815,1.518,3.954,3.954,0,0,1-1.392,1.07,3.8,3.8,0,0,1-1.844.413Zm-.018-7.3a2.485,2.485,0,0,0-1.433.454,2.276,2.276,0,0,0-.815,1.436l4.3-.012a1.9,1.9,0,0,0-1.905-1.888,1.275,1.275,0,0,0-.149.006Z" transform="translate(-205.048 -202.43)" fill="#fff"/>
      <path id="Trazado_25426" d="M269.411,215.251l-.021-8.729,2.008-.006.208,1.638A3.437,3.437,0,0,1,274.8,206.3l.006,2.377h-.616a3.291,3.291,0,0,0-1.31.252,1.855,1.855,0,0,0-.9.78,3.29,3.29,0,0,0-.325,1.559l.009,3.975-2.254.006Z" transform="translate(-227.768 -202.471)" fill="#fff"/>
      <path id="Trazado_25427" d="M292.663,215.321a5.37,5.37,0,0,1-2.049-.363,3.324,3.324,0,0,1-1.4-1.061,2.625,2.625,0,0,1-.618-1.556l2.254-.006a1.477,1.477,0,0,0,.577.859,1.863,1.863,0,0,0,1.19.366,1.5,1.5,0,0,0,1.064-.29.813.813,0,0,0,.325-.7.8.8,0,0,0-.492-.777,9.473,9.473,0,0,0-1.354-.407c-.369-.082-.739-.161-1.149-.284a8.3,8.3,0,0,1-1.067-.448,2.119,2.119,0,0,1-.78-.695,1.8,1.8,0,0,1-.29-1.064,2.486,2.486,0,0,1,.9-1.97,4.569,4.569,0,0,1,5.042-.053,2.991,2.991,0,0,1,1.111,2l-2.131.006c-.126-.657-.618-.982-1.436-.979a1.727,1.727,0,0,0-.982.249.674.674,0,0,0-.325.616c0,.246.164.451.492.613a6.062,6.062,0,0,0,1.354.407q.853.18,1.682.446a3.04,3.04,0,0,1,1.231.736,2.147,2.147,0,0,1,.454,1.433,2.587,2.587,0,0,1-1.674,2.5,4.021,4.021,0,0,1-1.926.413Z" transform="translate(-241.348 -202.359)" fill="#fff"/>
      <path id="Trazado_25428" d="M320.544,215.418a4.13,4.13,0,0,1-1.847-.363,2.668,2.668,0,0,1-1.067-.941,2.437,2.437,0,0,1-.372-1.31,2.4,2.4,0,0,1,.938-1.97,4.491,4.491,0,0,1,2.826-.744l2.213-.006v-.246a1.622,1.622,0,0,0-.5-1.31,1.9,1.9,0,0,0-1.272-.407,2.234,2.234,0,0,0-1.187.331,1.387,1.387,0,0,0-.613.944l-2.172.006a2.91,2.91,0,0,1,.651-1.641,3.774,3.774,0,0,1,1.433-1.07,4.976,4.976,0,0,1,1.967-.375,4.283,4.283,0,0,1,2.914.935,3.378,3.378,0,0,1,1.073,2.62l.015,5.37-1.926.006-.208-1.392A3.153,3.153,0,0,1,322.349,215a3.446,3.446,0,0,1-1.8.413Zm.528-1.765a1.922,1.922,0,0,0,1.515-.618,2.81,2.81,0,0,0,.651-1.559l-1.926.006a1.968,1.968,0,0,0-1.269.331,1.034,1.034,0,0,0-.366.821.894.894,0,0,0,.372.777,1.8,1.8,0,0,0,1.026.243Z" transform="translate(-261.605 -202.476)" fill="#fff"/>
      <path id="Trazado_25429" d="M347.291,215.061l-.021-8.729,2.008-.006.208,1.638a3.437,3.437,0,0,1,3.192-1.852l.006,2.377h-.616a3.291,3.291,0,0,0-1.31.252,1.855,1.855,0,0,0-.9.78,3.29,3.29,0,0,0-.325,1.559l.009,3.975-2.254.006Z" transform="translate(-282.821 -202.336)" fill="#fff"/>
      <path id="Trazado_25430" d="M368.257,195.861a1.5,1.5,0,0,1-1.026-.366,1.334,1.334,0,0,1-.413-.941,1.186,1.186,0,0,1,.407-.944,1.432,1.432,0,0,1,1.023-.372,1.5,1.5,0,0,1,1.026.366,1.274,1.274,0,0,1,.413.941,1.186,1.186,0,0,1-.407.944A1.491,1.491,0,0,1,368.257,195.861Zm-1.082,10.086-.021-8.729,2.254-.006.021,8.729Z" transform="translate(-296.638 -193.236)" fill="#fff"/>
      <path id="Trazado_25431" d="M382.088,215.281a4.321,4.321,0,0,1-3.857-2.163,5.049,5.049,0,0,1,.029-4.754,4.272,4.272,0,0,1,1.595-1.6,4.6,4.6,0,0,1,2.254-.58,4.742,4.742,0,0,1,2.257.569,4.345,4.345,0,0,1,2.184,3.972,4.992,4.992,0,0,1-.569,2.38,4.272,4.272,0,0,1-1.595,1.6,4.459,4.459,0,0,1-2.3.58Zm-.006-1.926a2,2,0,0,0,1.515-.66,3.28,3.28,0,0,0-.009-3.934,2.054,2.054,0,0,0-1.518-.651,1.932,1.932,0,0,0-1.515.66,2.846,2.846,0,0,0-.651,1.97,2.667,2.667,0,0,0,.659,1.967,2.211,2.211,0,0,0,1.518.651h0Z" transform="translate(-304.297 -202.386)" fill="#fff"/>
    </g>
    <g id="Grupo_7564" transform="translate(116.129 29.65)" opacity="0.901">
      <path id="Trazado_25432" d="M336.521,71.706l-.021-8.28,2.131-.006.021,8.239-2.131.006Z" transform="translate(-335.943 -59.428)" fill="#fff" opacity="0.9" style="isolation: isolate"/>
      <path id="Trazado_25433" d="M336.335,49.861l.5.9a.04.04,0,0,0,.041.041h0l.9.489a.154.154,0,0,1,.032.214.152.152,0,0,1-.029.032l-.9.5a.04.04,0,0,0-.041.041h0l-.49.9c-.041.082-.164.082-.246,0l-.5-.9a.04.04,0,0,0-.041-.041h0l-.9-.489a.159.159,0,0,1,0-.246l.9-.5a.04.04,0,0,0,.041-.041h0l.49-.9a.159.159,0,0,1,.246,0Z" transform="translate(-334.599 -49.799)" fill="#fff" style="isolation: isolate"/>
    </g>
    <g id="Grupo_7625" data-name="Grupo 7625" transform="translate(91.748 31.104)" opacity="0.901" style="isolation: isolate">
      <path id="Trazado_25856" data-name="Trazado 25856" d="M255.154,58.808l-1.2,8.269h-2.53l1.726-8.269h2Zm-.68-4.048a1.441,1.441,0,0,1,1.038.393,1.345,1.345,0,0,1,0,1.935,1.441,1.441,0,0,1-1.038.393,1.411,1.411,0,0,1-1.029-.393,1.366,1.366,0,0,1,0-1.935A1.411,1.411,0,0,1,254.474,54.76Z" transform="translate(-251.42 -54.76)" fill="#fff"/>
    </g>
    <g id="Grupo_7626" data-name="Grupo 7626" transform="translate(138.233 72.327)" opacity="0.901" style="isolation: isolate">
      <path id="Trazado_25857" data-name="Trazado 25857" d="M411.44,207.717a1.411,1.411,0,0,1-1.029-.393,1.366,1.366,0,0,1,0-1.935,1.544,1.544,0,0,1,2.058,0,1.366,1.366,0,0,1,0,1.935A1.411,1.411,0,0,1,411.44,207.717Zm-.662-4.048L412,195.4h2.53l-1.744,8.269h-2Z" transform="translate(-410.01 -195.4)" fill="#fff"/>
    </g>
    <path id="Trazado_25858" data-name="Trazado 25858" d="M405.37,53.231c.012.129.026.264.044.41a21.276,21.276,0,0,0,.712,3.541,15.4,15.4,0,0,0,3.6,6.478l.15-3.555a17.14,17.14,0,0,1-2.741-5.6,21.975,21.975,0,0,1-.554-2.4l-1.2,1.131Z" transform="translate(-268.497 -21.775)" fill="#fff" opacity="0.4"/>
    <path id="Trazado_25859" data-name="Trazado 25859" d="M404.446,71.586a14.2,14.2,0,0,1-5.531-8.084,21.89,21.89,0,0,1-.712-3.541c-.012-.106-.023-.2-.032-.3l1.351-1.272a22.272,22.272,0,0,0,.715,3.47,15.862,15.862,0,0,0,4.347,7.357Z" transform="translate(-263.408 -26.222)" fill="#fff" opacity="0.998"/>
    <path id="Trazado_25860" data-name="Trazado 25860" d="M377.227,79.86l-1.137,1.07A12.241,12.241,0,0,0,378.9,84.3a18.243,18.243,0,0,1-1.43-3.529C377.38,80.461,377.3,80.156,377.227,79.86Z" transform="translate(-247.8 -41.399)" fill="#fff" opacity="0.4"/>
    <path id="Trazado_25861" data-name="Trazado 25861" d="M397.217,76.583A15.344,15.344,0,0,1,392,68.5a22.189,22.189,0,0,1-.7-3.362l-1.782,1.677a20.933,20.933,0,0,0,.577,2.606,14.446,14.446,0,0,0,4.282,7.041S396.977,76.595,397.217,76.583Z" transform="translate(-257.293 -30.993)" fill="#fff" opacity="0.4"/>
    <path id="Trazado_25862" data-name="Trazado 25862" d="M387.791,81.853a15.965,15.965,0,0,1-3.553-6.5c-.223-.771-.387-1.5-.507-2.154l-1.372,1.29c.094.425.205.873.34,1.34a16.114,16.114,0,0,0,2.336,4.918,9.253,9.253,0,0,0,2.755,1.1Z" transform="translate(-252.232 -36.691)" fill="#fff" opacity="0.998"/>
    <path id="Trazado_25863" data-name="Trazado 25863" d="M414.59,54.2l.173-4.106a18.819,18.819,0,0,1-1.17-3.045c-.141-.478-.255-.938-.352-1.378l-1.272,1.2a21.311,21.311,0,0,0,.621,2.858,17.014,17.014,0,0,0,2,4.473Z" transform="translate(-273.163 -17.23)" fill="#fff" opacity="0.998"/>
    <g id="Grupo_7627" data-name="Grupo 7627" transform="translate(139.429 22.827)" opacity="0.52">
      <path id="Trazado_25864" data-name="Trazado 25864" d="M418.72,43.39h0" transform="translate(-417.363 -38.445)" fill="#fff"/>
      <path id="Trazado_25865" data-name="Trazado 25865" d="M418.841,29.586a12.536,12.536,0,0,0,2.963.788,9.4,9.4,0,0,0,.009-1.85c-.24.489-1.357.724-3.242.466a1.829,1.829,0,0,0-2.058,1.319,1.853,1.853,0,0,0-.736-1.759c-.6-.431.138-1.4.138-1.4s-.293.223-.944-.636c0,0-.674,1.618.387,2.286a2.411,2.411,0,0,1,.991,1.4c-.478-.642-1.41-.736-2.26.226l.616.469s.366-1.017,1.715-.39l.079.035a.518.518,0,0,1-.006.067c-.009.076-.018.155-.026.24,0,0,0-.07-.018-.182-.041.07-.067.12-.067.12a1.1,1.1,0,0,1,.023-.117.878.878,0,0,0-.155.164,1.361,1.361,0,0,1,.12-.24l-.926.873c.111.563.255,1.172.44,1.811.129.446.281.9.454,1.366l.17-4.042c.24-.138.642-.182,1.167.434A3.718,3.718,0,0,0,419.7,32.08l.592-1.524a1.432,1.432,0,0,1-2.1.062c-.648-.551-1.105-.56-1.41-.407a1.749,1.749,0,0,1,2.061-.624Z" transform="translate(-414.09 -26.52)" fill="#fff"/>
    </g>
    <path id="Trazado_25866" data-name="Trazado 25866" d="M435.185,181.588l-4.663-14.228,18.733,8.55-12.967,6.217-4.156,9.919,5.326,4.7-12.337-5,5.848-.07,4.221-10.092Zm10.915-4.968-12.152-1.093,1.911,5.827,10.241-4.737Z" transform="translate(-282.458 -103.252)" fill="#fff" opacity="0.499" style="isolation: isolate"/>
    <path id="Trazado_25867" data-name="Trazado 25867" d="M467.392,196.31l-10.241,4.737-1.911-5.827Z" transform="translate(-303.75 -122.945)" fill="#fff"/>
    <g id="Grupo_7628" data-name="Grupo 7628" transform="translate(35.162 66.634)" opacity="0.752" style="isolation: isolate">
      <path id="Trazado_25868" data-name="Trazado 25868" d="M77.153,185.5a5.856,5.856,0,0,1,7.891,2.494.65.65,0,0,1-1.155.6,4.556,4.556,0,0,0-6.138-1.94.65.65,0,0,1-.6-1.155Z" transform="translate(-71.398 -182.243)" fill="#fff"/>
      <path id="Trazado_25869" data-name="Trazado 25869" d="M59.316,188.325a8.453,8.453,0,1,1,15-7.8c2.149,4.136.788,10.405-1.383,12.865l.63.2a.649.649,0,0,1,.1,1.2l-.771.4c.41,5.006,1.814,5.478,3.74,6.111a7.515,7.515,0,0,1,3.772,2.272.65.65,0,0,1-.067.917.6.6,0,0,1-.126.085.649.649,0,0,1-.791-.152,6.362,6.362,0,0,0-3.195-1.888c-2.412-.791-4.068-1.715-4.584-6.7l-.29.149a.651.651,0,0,1-.92-.774l.2-.63c-3.262.363-9.125-2.031-11.323-6.261Zm12,4.757c2-1.038,4.089-7.644,1.85-11.953a7.153,7.153,0,0,0-12.695,6.6c2.239,4.309,8.849,6.393,10.845,5.355Z" transform="translate(-58.365 -175.975)" fill="#fff"/>
    </g>
  </g>
</svg>
